<?xml version="1.0" encoding="UTF-8" standalone="no"?>
<svg width="166px" height="154px" viewBox="0 0 166 154" version="1.1" xmlns="http://www.w3.org/2000/svg" xmlns:xlink="http://www.w3.org/1999/xlink">
    <!-- Generator: Sketch 3.8.2 (29753) - http://www.bohemiancoding.com/sketch -->
    <title>choose registration icon</title>
    <desc>Created with Sketch.</desc>
    <defs></defs>
    <g id="Landing-page-icons" stroke="none" stroke-width="1" fill="none" fill-rule="evenodd">
        <g id="Customer-Registration---Screen-3c" transform="translate(-157.000000, -382.000000)">
            <g id="choose-registration-icon" transform="translate(159.000000, 384.000000)">
                <g id="Group-3">
                    <circle id="Oval-1" stroke="#FE9800" stroke-width="3" cx="75" cy="75" r="75"></circle>
                    <g id="Group-2" transform="translate(116.000000, 100.000000)">
                        <rect id="Rectangle-6" fill="#FE9800" x="0" y="0" width="48" height="48" rx="5"></rect>
                        <text id="1." font-family="Raleway-Medium, Raleway" font-size="35" font-weight="400" fill="#FFFFFF">
                            <tspan x="16.59" y="34">1.</tspan>
                        </text>
                    </g>
                </g>
                <rect id="Rectangle-1" fill="#FE9800" x="89" y="57" width="37" height="7"></rect>
                <rect id="Rectangle-1" fill="#FE9800" x="89" y="69" width="29" height="7"></rect>
                <circle id="Oval-5" fill="#FE9800" cx="63.5" cy="30.5" r="5.5"></circle>
                <rect id="Rectangle-1" fill="#FE9800" x="75" y="27" width="29" height="3"></rect>
                <rect id="Rectangle-1" fill="#FE9800" x="75" y="33" width="18" height="3"></rect>
                <polygon id="a" points="27 36 111 36 111 120 27 120"></polygon>
                <path d="M92.94,91.545 L77.05,83.635 C76.455,83.39 75.825,83.25 75.16,83.25 L72.5,83.25 L72.5,62.25 C72.5,59.345 70.155,57 67.25,57 C64.345,57 62,59.345 62,62.25 L62,99.84 L49.995,97.32 C49.715,97.285 49.47,97.215 49.155,97.215 C48.07,97.215 47.09,97.67 46.39,98.37 L43.625,101.17 L60.915,118.46 C61.86,119.405 63.19,120 64.625,120 L88.39,120 C91.015,120 93.045,118.075 93.43,115.52 L96.055,97.075 C96.09,96.83 96.125,96.585 96.125,96.375 C96.125,94.205 94.795,92.315 92.94,91.545 L92.94,91.545 Z" id="Shape" stroke="#FE9800" stroke-width="3"></path>
                <rect id="Rectangle-23" fill="#FE9800" x="61" y="119" width="32" height="9"></rect>
                <circle id="Oval-13" fill="#FFFFFF" cx="67.5" cy="123.5" r="2.5"></circle>
                <path d="M58.5,75.34 L58.5,62.25 C58.5,57.42 62.42,53.5 67.25,53.5 C72.08,53.5 76,57.42 76,62.25 L76,75.34 C80.235,72.505 83,67.71 83,62.25 C83,53.535 75.965,46.5 67.25,46.5 C58.535,46.5 51.5,53.535 51.5,62.25 C51.5,67.71 54.265,72.505 58.5,75.34 L58.5,75.34 Z" id="Path" stroke="#FE9800" fill="#FE9800"></path>
            </g>
        </g>
    </g>
</svg>