<?xml version="1.0" encoding="UTF-8" standalone="no"?>
<svg width="36px" height="26px" viewBox="0 0 36 26" version="1.1" xmlns="http://www.w3.org/2000/svg" xmlns:xlink="http://www.w3.org/1999/xlink">
    <!-- Generator: Sketch 3.8.2 (29753) - http://www.bohemiancoding.com/sketch -->
    <title>filing icon</title>
    <desc>Created with Sketch.</desc>
    <defs></defs>
    <g id="Landing-page-icons" stroke="none" stroke-width="1" fill="none" fill-rule="evenodd">
        <g id="Customer-Registration---Screen-3c" transform="translate(-43.000000, -453.000000)">
            <g id="filing-icon" transform="translate(44.000000, 454.000000)">
                <path d="M14.7027027,4.59459459 L14.7027027,2.00878906 C14.7027027,0.901419975 13.8080901,0 12.7045294,0 L1.99817327,0 C0.89758748,0 0,0.899365498 0,2.00878906 L0,5.97297297 L0,20.9711788 C0,22.0865456 0.89455064,22.972973 1.99803478,22.972973 L27.4073706,22.972973 C28.5093042,22.972973 29.4054054,22.0767392 29.4054054,20.9711788 L29.4054054,6.5963888 C29.4054054,5.48102198 28.5108548,4.59459459 27.4073706,4.59459459 L14.7027027,4.59459459 Z" id="Combined-Shape" stroke="#FE9800" fill="#FE9800"></path>
                <path d="M4.03120711,9.2668688 C4.34235743,8.20895773 5.49069584,7.35135135 6.59262937,7.35135135 L32.0019652,7.35135135 C33.1054494,7.35135135 33.74643,8.21348928 33.4366125,9.2668688 L29.9687929,21.0574555 C29.6576426,22.1153666 28.5093042,22.972973 27.4073706,22.972973 L1.99803478,22.972973 C0.89455064,22.972973 0.253569979,22.110835 0.563387484,21.0574555 L4.03120711,9.2668688 Z" id="Rectangle-41" stroke="#FFFFFF" stroke-width="3" fill="#FFFFFF"></path>
                <path d="M4.03120711,9.2668688 C4.34235743,8.20895773 5.49069584,7.35135135 6.59262937,7.35135135 L32.0019652,7.35135135 C33.1054494,7.35135135 33.74643,8.21348928 33.4366125,9.2668688 L29.9687929,21.0574555 C29.6576426,22.1153666 28.5093042,22.972973 27.4073706,22.972973 L1.99803478,22.972973 C0.89455064,22.972973 0.253569979,22.110835 0.563387484,21.0574555 L4.03120711,9.2668688 Z" id="Rectangle-41" stroke="#FE9800" fill="#FFFFFF"></path>
            </g>
        </g>
    </g>
</svg>