<?xml version="1.0" encoding="UTF-8" standalone="no"?>
<svg width="29px" height="24px" viewBox="0 0 29 24" version="1.1" xmlns="http://www.w3.org/2000/svg" xmlns:xlink="http://www.w3.org/1999/xlink">
    <!-- Generator: Sketch 3.8.2 (29753) - http://www.bohemiancoding.com/sketch -->
    <title>financial projections icon</title>
    <desc>Created with Sketch.</desc>
    <defs></defs>
    <g id="Landing-page-icons" stroke="none" stroke-width="1" fill="none" fill-rule="evenodd">
        <g id="Customer-Registration---Screen-3c" transform="translate(-9.000000, -454.000000)" stroke="#FE9800">
            <g id="financial-projections-icon" transform="translate(10.000000, 455.000000)">
                <g id="stand">
                    <path d="M7.53846154,22.6153846 C7.53846154,22.6153846 11.7920737,14 13.9188798,14 C16.099766,14 20.4615385,22.6153846 20.4615385,22.6153846" id="Path-88"></path>
                    <rect id="Combined-Shape" fill="#FE9800" x="0.307692308" y="0" width="27" height="2.15384615"></rect>
                    <rect id="Rectangle-44" fill="#FFFFFF" x="2.30769231" y="2.15384615" width="23.1538462" height="14"></rect>
                </g>
                <g id="graph" transform="translate(5.446155, 5.384615)">
                    <polyline id="Path-89" points="0.420421072 7.28395433 5.86702026 2.97626202 10.1127285 5.13010817 14.9808487 0.827297259"></polyline>
                    <ellipse id="Oval-17" fill="#FFFFFF" cx="1.07692308" cy="6.46153846" rx="1.07692308" ry="1.07692308"></ellipse>
                    <ellipse id="Oval-17" fill="#FFFFFF" cx="5.92307692" cy="3.23076923" rx="1.07692308" ry="1.07692308"></ellipse>
                    <path d="M15.0769231,2.15384615 C15.6716913,2.15384615 16.1538462,1.67169127 16.1538462,1.07692308 C16.1538462,0.482154885 15.6716913,0 15.0769231,0 C14.4821549,0 14,0.482154885 14,1.07692308 C14,1.67169127 14.4821549,2.15384615 15.0769231,2.15384615 Z" id="Oval-17" fill="#FFFFFF"></path>
                </g>
            </g>
        </g>
    </g>
</svg>