<?xml version="1.0" encoding="UTF-8" standalone="no"?>
<svg width="59px" height="32px" viewBox="0 0 59 32" version="1.1" xmlns="http://www.w3.org/2000/svg" xmlns:xlink="http://www.w3.org/1999/xlink">
    <!-- Generator: Sketch 3.8.2 (29753) - http://www.bohemiancoding.com/sketch -->
    <title>free closure icon</title>
    <desc>Created with Sketch.</desc>
    <defs></defs>
    <g id="Landing-page-icons" stroke="none" stroke-width="1" fill="none" fill-rule="evenodd">
        <g id="Customer-Registration---Screen-3c" transform="translate(-673.000000, -291.000000)">
            <g id="free-closure-icon" transform="translate(673.000000, 291.000000)">
                <g id="closed" transform="translate(0.000000, 1.000000)">
                    <path d="M5.0665083,7.0015191 C5.0665083,7.0015191 12.06482,1.81440396 13.0894588,1.81285265 C14.1140976,1.81130133 26.9999991,9.27246097 26.9999991,9.27246097 M1.1650619,9.25567505 C1.36726845,7.60883487 2.8606854,6.43704873 4.50744209,6.63924503 L28.5938993,9.5966901 C30.2376384,9.79851588 31.4074332,11.2873672 31.2040248,12.9439959 L30.6092577,17.7879848 C30.4070512,19.434825 28.9136342,20.6066112 27.2668776,20.4044149 L3.18042035,17.4469698 C1.53668129,17.245144 0.366886418,15.7562927 0.570294848,14.099664 L1.1650619,9.25567505 Z" id="Combined-Shape" stroke="#FE9800"></path>
                    <ellipse id="Oval-12" stroke="#FE9800" fill="#FFFFFF" cx="12.8576812" cy="1.55555556" rx="1.51322751" ry="1.55555556"></ellipse>
                    <text id="CLOSED" transform="translate(16.008582, 13.096356) rotate(7.000000) translate(-16.008582, -13.096356) " font-family="Arial-Black, Arial Black" font-size="4.53968254" font-weight="700" letter-spacing="0.428571433" fill="#FE9800">
                        <tspan x="4.54737275" y="15.0963557">CLOSED</tspan>
                    </text>
                </g>
                <g id="support" transform="translate(26.000000, 0.000000)" fill="#FE9800">
                    <g id="headset">
                        <path d="M5.89300785,25.7228404 C2.78853397,21.7437623 1.96472727,16.854251 1.96472727,14.9557073 C1.96472727,6.79960976 8.14763636,0.164292683 15.7472727,0.164292683 C23.3472727,0.164292683 29.5301818,6.79960976 29.5301818,14.9557073 C29.5301818,16.0347317 29.4094545,17.1461463 29.1716364,18.2606829 L27.7538182,17.9121951 C27.9672727,16.912 28.0756364,15.9172683 28.0756364,14.9557073 C28.0756364,7.66009756 22.5454545,1.72487805 15.7472727,1.72487805 C8.94945455,1.72487805 3.41927273,7.66009756 3.41927273,14.9553171 C3.41927273,17.3283902 4.84436364,24.8679024 11.1767273,28.2677073 L10.5258182,29.6643902 C8.59525214,28.6278299 7.07798841,27.2416582 5.89300785,25.7228404 Z" id="Shape"></path>
                        <rect id="Rectangle-20" stroke="#FFFFFF" x="0" y="8.58536585" width="5.45454545" height="12.097561" rx="2.72727273"></rect>
                        <rect id="Rectangle-20" stroke="#FFFFFF" x="26.5454545" y="8.58536585" width="5.45454545" height="12.097561" rx="2.72727273"></rect>
                        <ellipse id="Oval-12" cx="10.1333333" cy="29.3333333" rx="2.66666667" ry="2.66666667"></ellipse>
                    </g>
                    <g id="face" transform="translate(7.466667, 7.466667)">
                        <path d="M8.53333333,16 C3.82933333,16 0,12.1706667 0,7.46666667 C0,7.15733333 0.0213333333,6.848 0.0533333333,6.54933333 C2.57066667,5.42933333 4.56533333,3.37066667 5.61066667,0.821333333 C7.54133333,3.552 10.72,5.33333333 14.3146667,5.33333333 C15.1466667,5.33333333 15.9466667,5.23733333 16.7146667,5.056 C16.9386667,5.81333333 17.0666667,6.624 17.0666667,7.46666667 C17.0666667,12.1706667 13.2373333,16 8.53333333,16 L8.53333333,16 Z M11.7333333,7.2 C10.9973333,7.2 10.4,7.79733333 10.4,8.53333333 C10.4,9.26933333 10.9973333,9.86666667 11.7333333,9.86666667 C12.4693333,9.86666667 13.0666667,9.26933333 13.0666667,8.53333333 C13.0666667,7.79733333 12.4693333,7.2 11.7333333,7.2 L11.7333333,7.2 Z M5.33333333,7.2 C4.59733333,7.2 4,7.79733333 4,8.53333333 C4,9.26933333 4.59733333,9.86666667 5.33333333,9.86666667 C6.06933333,9.86666667 6.66666667,9.26933333 6.66666667,8.53333333 C6.66666667,7.79733333 6.06933333,7.2 5.33333333,7.2 L5.33333333,7.2 Z" id="Combined-Shape"></path>
                    </g>
                </g>
            </g>
        </g>
    </g>
</svg>