<?xml version="1.0" encoding="UTF-8" standalone="no"?>
<svg width="46px" height="39px" viewBox="0 0 46 39" version="1.1" xmlns="http://www.w3.org/2000/svg" xmlns:xlink="http://www.w3.org/1999/xlink">
    <!-- Generator: Sketch 3.8.2 (29753) - http://www.bohemiancoding.com/sketch -->
    <title>legal advice via skype icon</title>
    <desc>Created with Sketch.</desc>
    <defs>
        <rect id="path-1" x="15.125" y="-1.42108547e-14" width="7.5" height="6.68918919"></rect>
        <rect id="path-2" x="23.25" y="-9.59232693e-14" width="2.5" height="6.68918919"></rect>
        <rect id="path-3" x="12" y="-5.32907052e-14" width="2.5" height="6.68918919"></rect>
        <polygon id="path-4" points="3.79005533 8.09209354 10.7900553 8.09209354 10.7900553 9.92542687 3.79005533 9.92542687"></polygon>
        <mask id="mask-5" maskContentUnits="userSpaceOnUse" maskUnits="objectBoundingBox" x="-1" y="-1" width="9" height="3.83333333">
            <rect x="2.79005533" y="7.09209354" width="9" height="3.83333333" fill="white"></rect>
            <use xlink:href="#path-4" fill="black"></use>
        </mask>
        <polygon id="path-6" points="-0.0664592147 9.89243324 10.9335408 9.89243324 10.9335408 11.7257666 -0.0664592147 11.7257666"></polygon>
        <mask id="mask-7" maskContentUnits="userSpaceOnUse" maskUnits="objectBoundingBox" x="-1" y="-1" width="13" height="3.83333333">
            <rect x="-1.06645921" y="8.89243324" width="13" height="3.83333333" fill="white"></rect>
            <use xlink:href="#path-6" fill="black"></use>
        </mask>
    </defs>
    <g id="Landing-page-icons" stroke="none" stroke-width="1" fill="none" fill-rule="evenodd">
        <g id="Customer-Registration---Screen-3c" transform="translate(-121.000000, -285.000000)">
            <g id="legal-advice-via-skype-icon" transform="translate(116.000000, 286.000000)">
                <g id="skype" transform="translate(15.000000, 0.000000)">
                    <path d="M33.16176,18.67875 C33.65136,19.3802083 34.02432,20.1414583 34.28496,20.975625 C34.54416,21.806875 34.6752,22.6672917 34.6752,23.5583333 C34.6752,24.834375 34.42032,26.033125 33.91632,27.1560417 C33.41088,28.2760417 32.71536,29.2633333 31.82832,30.1208333 C30.94128,30.9695833 29.9088,31.6360417 28.72224,32.1202083 C27.53568,32.604375 26.2872,32.8420833 24.95952,32.8420833 C23.0688,32.8420833 21.37248,32.39 19.86768,31.4872917 C19.45008,31.545625 19.0296,31.5879167 18.6048,31.62 C18.17856,31.6491667 17.75664,31.6608333 17.33472,31.6608333 C15.12576,31.6608333 13.05216,31.2597917 11.11248,30.460625 C9.17712,29.6570833 7.48224,28.56625 6.02208,27.1764583 C4.56624,25.7925 3.41856,24.160625 2.592,22.2925 C1.75824,20.424375 1.34208,18.4279167 1.34208,16.3060417 C1.34208,15.8947917 1.36224,15.5039583 1.40544,15.1422917 C1.44432,14.780625 1.4976,14.4116667 1.55232,14.0427083 C0.51552,12.5858333 0,11.0210417 0,9.3425 C0,8.09416667 0.25488,6.914375 0.76032,5.80458333 C1.26432,4.69625 1.95552,3.73229167 2.84256,2.91416667 C3.7296,2.09458333 4.76784,1.45 5.9472,0.9775 C7.12944,0.505 8.38368,0.274583333 9.71136,0.274583333 C10.66752,0.274583333 11.56464,0.388333333 12.41712,0.620208333 C13.2696,0.855 14.06736,1.18166667 14.8032,1.60895833 C15.21936,1.54916667 15.6456,1.506875 16.06608,1.47333333 C16.49232,1.44708333 16.91856,1.43104167 17.33472,1.43104167 C19.55088,1.43104167 21.63168,1.821875 23.57712,2.59916667 C25.51824,3.370625 27.21744,4.43958333 28.6776,5.79583333 C30.13776,7.15791667 31.28832,8.734375 32.12352,10.528125 C32.95584,12.3247917 33.372,14.2527083 33.372,16.3060417 C33.37344,17.0629167 33.30432,17.8547917 33.16176,18.67875 L33.16176,18.67875 Z" id="Shape" stroke="#FE9800"></path>
                    <path d="M24.95952,23.3483333 C25.64208,22.4383333 25.97904,21.369375 25.97904,20.1414583 C25.97904,19.1745833 25.78896,18.3622917 25.41456,17.703125 C25.02432,17.046875 24.47424,16.4970833 23.76432,16.058125 C23.112,15.6322917 22.26384,15.2545833 21.2256,14.91625 C20.1816,14.6508333 19.07424,14.39125 17.90352,14.1258333 L16.62048,13.8297917 C16.27632,13.7554167 16.00272,13.6927083 15.7968,13.6358333 C15.56784,13.5789583 15.35616,13.51625 15.15456,13.441875 C14.96448,13.3733333 14.76288,13.293125 14.56128,13.205625 C14.1696,13.039375 13.84128,12.8133333 13.58064,12.5479167 C13.37904,12.3189583 13.27824,12.01125 13.27824,11.6291667 C13.27824,11.070625 13.60656,10.571875 14.25888,10.13 C14.9976,9.71729167 15.90048,9.51895833 16.97328,9.53208333 C18.21312,9.53208333 19.08432,9.71729167 19.57536,10.0891667 C20.16864,10.5295833 20.63376,11.0720833 20.9664,11.7122917 C21.25584,12.181875 21.5496,12.531875 21.85344,12.7622917 C22.14288,12.986875 22.54464,13.1079167 23.05008,13.1239583 C23.61888,13.1239583 24.08976,12.9329167 24.48576,12.5479167 C24.87312,12.1891667 25.05888,11.7852083 25.0488,11.3302083 C25.0488,10.80375 24.90192,10.2860417 24.61392,9.78729167 C24.3288,9.31916667 23.84928,8.82041667 23.18832,8.29104167 C22.85424,8.06354167 22.48704,7.855 22.09104,7.66395833 C21.6936,7.47145833 21.2472,7.30229167 20.76192,7.159375 C20.2536,7.019375 19.71936,6.91145833 19.15632,6.83854167 C18.59184,6.76708333 17.97552,6.73354167 17.29296,6.73354167 C15.5736,6.73354167 14.12352,6.94645833 12.94272,7.37229167 C11.67408,7.815625 10.7136,8.42520833 10.06272,9.215625 C9.41184,9.968125 9.0864,10.8722917 9.0864,11.928125 C9.0864,13.039375 9.40176,13.9435417 10.02384,14.640625 C10.65024,15.3945833 11.4984,15.9647917 12.5712,16.35125 C13.59072,16.7639583 14.89392,17.125625 16.49232,17.4377083 C17.08992,17.580625 17.61264,17.7016667 18.07488,17.7935417 C18.52992,17.8839583 18.9432,17.9875 19.30464,18.0997917 C19.98576,18.2879167 20.53872,18.6029167 20.96064,19.050625 C21.41136,19.4385417 21.63744,19.9372917 21.63744,20.5527083 C21.63744,21.4029167 21.2256,22.09125 20.412,22.61625 C19.64304,23.154375 18.60336,23.4197917 17.2944,23.4008333 C16.24608,23.4008333 15.4872,23.2783333 15.00624,23.0304167 C14.40864,22.7547917 13.968,22.4047917 13.67856,21.9877083 C13.31136,21.5122917 13.0176,20.984375 12.78144,20.4141667 C12.57552,19.873125 12.2976,19.4647917 11.93472,19.1891667 C11.59632,18.910625 11.20032,18.7720833 10.7352,18.7720833 C10.14192,18.7720833 9.65232,18.9397917 9.26496,19.269375 C8.8776,19.6441667 8.69184,20.083125 8.70048,20.5760417 C8.70048,21.435 9.0144,22.2939583 9.63648,23.154375 C10.25424,24.0395833 11.04768,24.7308333 12.01392,25.228125 C13.42944,25.9689583 15.20784,26.34375 17.3448,26.3583333 C19.08864,26.3583333 20.6424,26.0958333 21.99456,25.5722917 C23.32224,24.9758333 24.31296,24.2364583 24.95952,23.3483333 L24.95952,23.3483333 Z" id="Path" fill="#FE9800"></path>
                </g>
                <g id="gavel" transform="translate(17.485281, 30.793786) rotate(-45.000000) translate(-17.485281, -30.793786) translate(4.485281, 19.793786)">
                    <use id="Rectangle-28" fill="#FE9800" xlink:href="#path-1"></use>
                    <use id="Rectangle-28" fill="#FE9800" xlink:href="#path-2"></use>
                    <rect id="Rectangle-31" stroke="#FFFFFF" fill="#FE9800" x="16.9410036" y="7.17881703" width="5" height="14"></rect>
                    <use id="Rectangle-28" fill="#FE9800" xlink:href="#path-3"></use>
                    <g id="Shape" transform="translate(7.290055, 9.008760) rotate(45.000000) translate(-7.290055, -9.008760) ">
                        <use fill="#FE9800" fill-rule="evenodd" xlink:href="#path-4"></use>
                        <use stroke="#FFFFFF" mask="url(#mask-5)" stroke-width="2" xlink:href="#path-4"></use>
                    </g>
                    <g id="Shape" transform="translate(5.433541, 10.809100) rotate(45.000000) translate(-5.433541, -10.809100) ">
                        <use fill="#FE9800" fill-rule="evenodd" xlink:href="#path-6"></use>
                        <use stroke="#FFFFFF" mask="url(#mask-7)" stroke-width="2" xlink:href="#path-6"></use>
                    </g>
                </g>
            </g>
        </g>
    </g>
</svg>