<?xml version="1.0" encoding="UTF-8" standalone="no"?>
<svg width="166px" height="154px" viewBox="0 0 166 154" version="1.1" xmlns="http://www.w3.org/2000/svg" xmlns:xlink="http://www.w3.org/1999/xlink">
    <!-- Generator: Sketch 3.8.2 (29753) - http://www.bohemiancoding.com/sketch -->
    <title>on top of things icon</title>
    <desc>Created with Sketch.</desc>
    <defs></defs>
    <g id="Landing-page-icons" stroke="none" stroke-width="1" fill="none" fill-rule="evenodd">
        <g id="Customer-Registration---Screen-3c" transform="translate(-1086.000000, -382.000000)">
            <g id="on-top-of-things-icon" transform="translate(1088.000000, 384.000000)">
                <g id="Group-3">
                    <circle id="Oval-1" stroke="#FE9800" stroke-width="3" cx="75" cy="75" r="75"></circle>
                    <g id="Group-2" transform="translate(116.000000, 100.000000)">
                        <rect id="Rectangle-6" fill="#FE9800" x="0" y="0" width="48" height="48" rx="5"></rect>
                        <text id="4." font-family="Raleway-Medium, Raleway" font-size="35" font-weight="400" fill="#FFFFFF">
                            <tspan x="14.7" y="34">4.</tspan>
                        </text>
                    </g>
                </g>
                <g id="reminder" transform="translate(47.000000, 35.000000)">
                    <g id="calendar">
                        <path d="M53.75,7.625 L46.6666667,7.625 L18.3333333,7.625 L11.25,7.625 L7.70833333,7.625 C3.77708333,7.625 0.660416667,10.8125 0.660416667,14.7083333 L0.625,64.2916667 C0.625,68.1875 3.77708333,71.375 7.70833333,71.375 L57.2916667,71.375 C61.1875,71.375 64.375,68.1875 64.375,64.2916667 L64.375,14.7083333 C64.375,10.8125 61.1875,7.625 57.2916667,7.625 L53.75,7.625 Z" id="Path" stroke="#FE9800" stroke-width="3" fill="#FE9800"></path>
                        <circle id="Oval-16" fill="#FFFFFF" cx="20" cy="11" r="5"></circle>
                        <rect id="Rectangle-24" fill="#FE9800" x="16" y="0" width="8" height="14" rx="4"></rect>
                        <circle id="Oval-16" fill="#FFFFFF" cx="44" cy="11" r="5"></circle>
                        <rect id="Rectangle-24" fill="#FE9800" x="40" y="0" width="8" height="14" rx="4"></rect>
                        <polygon id="Path" fill="#FFFFFF" points="61 68 4 68 4 22 61 22"></polygon>
                        <polygon id="Shape" fill="#FE9800" points="48.54375 34.1708333 44.7895833 30.4166667 27.50625 47.7 19.9979167 40.1916667 16.24375 43.9458333 27.50625 55.2083333 48.54375 34.1708333"></polygon>
                    </g>
                </g>
                <g id="clock-outline" transform="translate(20.000000, 75.000000)" fill="#FFFFFF">
                    <path d="M22,42.3333333 C13.615,42.3333333 6.83333333,35.5516667 6.83333333,27.1666667 C6.83333333,18.7816667 13.615,12 22,12 C30.385,12 37.1666667,18.7816667 37.1666667,27.1666667 C37.1666667,35.5516667 30.385,42.3333333 22,42.3333333 L22,42.3333333 Z" id="Path"></path>
                    <path d="M22,7.66666667 C11.2316667,7.66666667 2.5,16.3983333 2.5,27.1666667 C2.5,37.935 11.21,46.6666667 22,46.6666667 C32.7683333,46.6666667 41.5,37.935 41.5,27.1666667 C41.5,16.3983333 32.7683333,7.66666667 22,7.66666667 L22,7.66666667 Z" id="Path"></path>
                    <polygon id="Path" points="23.0833333 16.3333333 19.8333333 16.3333333 19.8333333 29.3333333 30.125 35.5083333 31.75 32.8433333 23.0833333 27.7083333"></polygon>
                    <polygon id="Path" points="13.0733333 6.345 10.3 3.03 0.333333333 11.3716667 3.12833333 14.6866667"></polygon>
                    <polygon id="Path" points="43.6666667 11.3933333 33.7 3.03 30.905 6.345 40.8716667 14.7083333"></polygon>
                    <path d="M26,0.666666667 C15.2316667,0.666666667 6.5,9.39833333 6.5,20.1666667 C6.5,30.935 15.21,39.6666667 26,39.6666667 C36.7683333,39.6666667 45.5,30.935 45.5,20.1666667 C45.5,9.39833333 36.7683333,0.666666667 26,0.666666667 L26,0.666666667 Z" id="Path"></path>
                </g>
                <g id="clock" transform="translate(21.000000, 80.000000)">
                    <path d="M6.375,21.375 C6.375,14.11875 12.24375,8.25 19.5,8.25 C26.75625,8.25 32.625,14.11875 32.625,21.375 C32.625,28.63125 26.75625,34.5 19.5,34.5 C12.24375,34.5 6.375,28.63125 6.375,21.375 Z" id="Path" fill="#FE9800"></path>
                    <path d="M19.5,4.5 C10.18125,4.5 2.625,12.05625 2.625,21.375 C2.625,30.69375 10.1625,38.25 19.5,38.25 C28.81875,38.25 36.375,30.69375 36.375,21.375 C36.375,12.05625 28.81875,4.5 19.5,4.5 L19.5,4.5 Z" id="Path" fill="#FE9800"></path>
                    <polygon id="Path" fill="#FE9800" points="11.775 3.35625 9.375 0.4875 0.75 7.70625 3.16875 10.575"></polygon>
                    <polygon id="Path" fill="#FE9800" points="38.25 7.725 29.625 0.4875 27.20625 3.35625 35.83125 10.59375"></polygon>
                    <path d="M19.625,7.5 C11.8938889,7.5 5.625,13.7688889 5.625,21.5 C5.625,29.2311111 11.8783333,35.5 19.625,35.5 C27.3561111,35.5 33.625,29.2311111 33.625,21.5 C33.625,13.7688889 27.3561111,7.5 19.625,7.5 L19.625,7.5 Z" id="Path" fill="#FFFFFF"></path>
                    <polygon id="Path" fill="#FE9800" points="17.625 12 17.625 24.25 27.7807617 24.1716309 27.7399902 21.8630371 20.065918 21.8935547 20.0947266 11.9978027"></polygon>
                </g>
            </g>
        </g>
    </g>
</svg>