<?xml version="1.0" encoding="UTF-8" standalone="no"?>
<svg width="58px" height="40px" viewBox="0 0 58 40" version="1.1" xmlns="http://www.w3.org/2000/svg" xmlns:xlink="http://www.w3.org/1999/xlink">
    <!-- Generator: Sketch 3.8.2 (29753) - http://www.bohemiancoding.com/sketch -->
    <title>pay icon</title>
    <desc>Created with Sketch.</desc>
    <defs>
        <path d="M6.60771004,21.3093378 L8.24695414,21.2931305 L11.7704918,21.258293 C11.7704918,21.258293 20.7566678,15.2954424 25.4278304,14.0363188 C27.4476898,13.4918607 28.958312,15.8475477 28.958312,15.8475477 L26.4881532,19.0966332 C26.4881532,19.0966332 22.3899846,20.5608724 23.9991035,23.9774306 C24.6954672,25.4559832 32.4671491,24.5217169 32.4671491,24.5217169 C32.4671491,24.5217169 39.9577357,22.5556331 38.246606,28.2852648 C37.9502628,29.2775553 34.8759877,29.3785985 29.8522164,31.1527479 C27.4582132,31.9981923 20.522638,34.9569996 16.331583,33.6082589 C10.9065702,31.8624132 6.49503714,32.7412148 6.49503714,32.7412148 L6.29159196,21.2071049 L6.60771004,21.3093378 Z" id="path-1"></path>
        <mask id="mask-2" maskContentUnits="userSpaceOnUse" maskUnits="objectBoundingBox" x="-1" y="-1" width="34.2091356" height="22.0007022">
            <rect x="5.29159196" y="12.9546385" width="34.2091356" height="22.0007022" fill="white"></rect>
            <use xlink:href="#path-1" fill="black"></use>
        </mask>
    </defs>
    <g id="Landing-page-icons" stroke="none" stroke-width="1" fill="none" fill-rule="evenodd">
        <g id="Customer-Registration---Screen-3c" transform="translate(-680.000000, -440.000000)">
            <g id="pay-icon" transform="translate(680.000000, 438.000000)">
                <g id="cash" transform="translate(40.064506, 21.583547) rotate(-54.000000) translate(-40.064506, -21.583547) translate(21.564506, 11.583547)">
                    <rect id="Rectangle-26" fill="#FE9800" x="-3.01980663e-14" y="1.42108547e-14" width="36.9688068" height="19.7830356" rx="3"></rect>
                    <ellipse id="Oval-14" stroke="#FFFFFF" fill="#FFFFFF" cx="18.4425549" cy="9.755255" rx="6.81211486" ry="6.77907551"></ellipse>
                    <text id="$" font-family="ArialRoundedMTBold, Arial Rounded MT Bold" font-size="9.9205983" font-weight="normal" letter-spacing="2.14285707" fill="#FE9800">
                        <tspan x="14.9219741" y="12.9682393">$</tspan>
                    </text>
                </g>
                <g id="Path-124">
                    <use fill="#FFFFFF" fill-rule="evenodd" xlink:href="#path-1"></use>
                    <use stroke="#FFFFFF" mask="url(#mask-2)" stroke-width="2" xlink:href="#path-1"></use>
                </g>
                <path d="M8.24695414,21.2931305 L11.7704918,21.258293 C11.7704918,21.258293 20.7566678,15.2954424 25.4278304,14.0363188 C27.4476898,13.4918607 31.8435579,15.8475477 31.8435579,15.8475477 L29.3733991,19.0966332 C29.3733991,19.0966332 22.3899846,20.5608724 23.9991035,23.9774306 C24.6954672,25.4559832 32.4671491,24.5217169 32.4671491,24.5217169 C32.4671491,24.5217169 39.9577357,22.5556331 38.246606,28.2852648 C37.9502628,29.2775553 34.8759877,29.3785985 29.8522164,31.1527479 C27.4582132,31.9981923 20.522638,34.9569996 16.331583,33.6082589 C10.9065702,31.8624132 6.49503714,32.7412148 6.49503714,32.7412148 L6.29159196,21.2071049 L8.24695414,21.2931305 Z" id="Path-124" stroke="#FE9800" fill="#FFFFFF"></path>
                <path d="M0.294887886,21.5407405 C0.294887886,20.9867376 0.735473695,20.5376296 1.29926787,20.5376296 L3.71673741,20.5376296 C4.27144116,20.5376296 4.72111739,20.9871844 4.72111739,21.5407405 L4.72111739,32.5945192 C4.72111739,33.148522 4.28053159,33.59763 3.71673741,33.59763 L1.29926787,33.59763 C0.744564124,33.59763 0.294887886,33.1480753 0.294887886,32.5945192 L0.294887886,21.5407405 Z" id="Rectangle-27" fill="#FE9800" transform="translate(2.508003, 27.067630) rotate(-1.000000) translate(-2.508003, -27.067630) "></path>
                <ellipse id="Oval-15" fill="#FFFFFF" cx="2.95081967" cy="30.4285714" rx="0.885245902" ry="0.880952381"></ellipse>
            </g>
        </g>
    </g>
</svg>