<?xml version="1.0" encoding="UTF-8" standalone="no"?>
<svg width="43px" height="36px" viewBox="0 0 43 36" version="1.1" xmlns="http://www.w3.org/2000/svg" xmlns:xlink="http://www.w3.org/1999/xlink">
    <!-- Generator: Sketch 3.8.2 (29753) - http://www.bohemiancoding.com/sketch -->
    <title>pre-checked forms icon</title>
    <desc>Created with Sketch.</desc>
    <defs></defs>
    <g id="Landing-page-icons" stroke="none" stroke-width="1" fill="none" fill-rule="evenodd">
        <g id="Customer-Registration---Screen-3c" transform="translate(-128.000000, -364.000000)">
            <g id="pre-checked-forms-icon" transform="translate(128.000000, 364.000000)">
                <g id="form" transform="translate(0.630858, 0.919922)" stroke="#FE9800">
                    <path d="M0.706599777,3.55413609 C0.706599777,1.90126539 2.05130067,0.561348941 3.70510458,0.561348941 L28.5415398,0.561348941 C30.1975683,0.561348941 31.5400446,1.90418386 31.5400446,3.55413609 L31.5400446,31.2926421 C31.5400446,32.9455128 30.1953437,34.2854292 28.5415398,34.2854292 L3.70510458,34.2854292 C2.04907611,34.2854292 0.706599777,32.9425943 0.706599777,31.2926421 L0.706599777,3.55413609 Z M5.7812709,6.88862876 L14.4531773,6.88862876 L14.4531773,15.5605351 L5.7812709,15.5605351 L5.7812709,6.88862876 Z" id="Combined-Shape"></path>
                </g>
                <g id="pencil" transform="translate(5.608696, 7.478261)">
                    <polygon id="Path" fill="#FE9800" points="22.9649721 1.53422948 11.3810182 1.53422948 11.3810182 0.26594199 22.9649721 0.26594199"></polygon>
                    <polygon id="Path" fill="#FE9800" points="22.9649721 4.07080445 11.3810182 4.07080445 11.3810182 2.80251696 22.9649721 2.80251696"></polygon>
                    <polygon id="Path" fill="#FE9800" points="19.489786 6.60737942 11.3810182 6.60737942 11.3810182 5.33909193 19.489786 5.33909193"></polygon>
                    <polygon id="Path" fill="#FE9800" points="0.803433668 13.1369131 0.803433668 11.8928317 22.001427 11.8928317 22.001427 13.1369131"></polygon>
                    <polygon id="Path" fill="#FE9800" points="22.001427 16.5598585 0.803433668 16.5598585 0.803433668 15.3157771 22.001427 15.3157771"></polygon>
                    <polygon id="Path" fill="#FE9800" points="15.642029 19.982804 0.803433668 19.982804 0.803433668 18.7387226 15.642029 18.7387226"></polygon>
                    <polygon id="Combined-Shape" fill="#FFFFFF" points="15.7347465 21.9411459 21.2354949 20.985139 37.1076289 5.29558019 32.4962278 0.399597707 16.826087 16.1030398"></polygon>
                    <path d="M36.6088988,5.06595729 C37.0335443,4.64046009 37.0335443,3.95311847 36.6088988,3.52762127 L34.0610254,0.974638104 C33.6363798,0.549140909 32.9504139,0.549140909 32.5257683,0.974638104 L30.5332007,2.97120187 L34.6163311,7.06252105 L36.6088988,5.06595729 L36.6088988,5.06595729 Z M15.9903999,21.5799321 L16.7673713,16.7485842 L20.8217477,20.8029607 L15.9903999,21.5799321 Z M21.4087652,20.2965748 L33.4512779,8.22991079 L29.3681475,4.13859161 L17.3256348,16.2052557 L21.4087652,20.2965748 Z" id="Combined-Shape" fill="#FE9800"></path>
                </g>
            </g>
        </g>
    </g>
</svg>