<?xml version="1.0" encoding="UTF-8" standalone="no"?>
<svg width="40px" height="30px" viewBox="0 0 40 30" version="1.1" xmlns="http://www.w3.org/2000/svg" xmlns:xlink="http://www.w3.org/1999/xlink">
    <!-- Generator: Sketch 3.8.2 (29753) - http://www.bohemiancoding.com/sketch -->
    <title>registration certificate icon</title>
    <desc>Created with Sketch.</desc>
    <defs>
        <rect id="path-1" x="0" y="-1.77635684e-15" width="24" height="32" rx="3"></rect>
        <mask id="mask-2" maskContentUnits="userSpaceOnUse" maskUnits="objectBoundingBox" x="0" y="0" width="24" height="32" fill="white">
            <use xlink:href="#path-1"></use>
        </mask>
    </defs>
    <g id="Landing-page-icons" stroke="none" stroke-width="1" fill="none" fill-rule="evenodd">
        <g id="Customer-Registration---Screen-3c" transform="translate(-129.000000, -452.000000)">
            <g id="registration-certificate-icon" transform="translate(129.000000, 452.000000)">
                <g id="certificate" transform="translate(16.000000, 12.000000) rotate(-90.000000) translate(-16.000000, -12.000000) translate(4.000000, -4.000000)">
                    <use id="Rectangle-33" stroke="#FE9800" mask="url(#mask-2)" stroke-width="2" xlink:href="#path-1"></use>
                    <polygon id="Path" fill="#FE9800" transform="translate(16.907168, 17.931430) rotate(90.000000) translate(-16.907168, -17.931430) " points="8.90716784 18.4490419 8.90716784 17.4138183 24.9071678 17.4138183 24.9071678 18.4490419"></polygon>
                    <polygon id="Path" fill="#FE9800" transform="translate(13.231050, 15.255312) rotate(90.000000) translate(-13.231050, -15.255312) " points="23.2310498 15.7729239 3.23104975 15.7729239 3.23104975 14.7377002 23.2310498 14.7377002"></polygon>
                    <polygon id="Path" fill="#FE9800" transform="translate(9.231050, 15.255312) rotate(90.000000) translate(-9.231050, -15.255312) " points="19.2310498 15.7729239 -0.768950246 15.7729239 -0.768950246 14.7377002 19.2310498 14.7377002"></polygon>
                </g>
                <g id="ribbon" transform="translate(20.000000, 5.000000)" stroke="#FFFFFF" fill="#FE9800">
                    <polygon id="Rectangle-32" points="5 14 15 14 15 24 10.1386719 20.8603516 5 24"></polygon>
                    <polygon id="Combined-Shape" points="19.11875 9.125 17.0905 6.779375 17.373125 3.674375 14.3723125 2.9825 12.80125 0.299375 9.975 1.53125 7.14875 0.299375 5.5776875 2.9825 2.576875 3.6659375 2.8595 6.7709375 0.83125 9.125 2.8595 11.470625 2.576875 14.5840625 5.5776875 15.2759375 7.14875 17.9590625 9.975 16.71875 12.80125 17.950625 14.3723125 15.2675 17.373125 14.575625 17.0905 11.470625"></polygon>
                    <ellipse id="Oval-12" cx="9.87109375" cy="9.01953125" rx="4.05234375" ry="4.11328125"></ellipse>
                </g>
            </g>
        </g>
    </g>
</svg>