<?xml version="1.0" encoding="UTF-8" standalone="no"?>
<svg width="34px" height="25px" viewBox="0 0 34 25" version="1.1" xmlns="http://www.w3.org/2000/svg" xmlns:xlink="http://www.w3.org/1999/xlink">
    <!-- Generator: Sketch 3.8.2 (29753) - http://www.bohemiancoding.com/sketch -->
    <title>reminder icon v2</title>
    <desc>Created with Sketch.</desc>
    <defs></defs>
    <g id="Landing-page-icons" stroke="none" stroke-width="1" fill="none" fill-rule="evenodd">
        <g id="Customer-Registration---Screen-3c" transform="translate(-42.000000, -480.000000)">
            <g id="reminder-icon-v2" transform="translate(44.000000, 481.000000)">
                <g id="calendar" transform="translate(8.000000, 0.000000)">
                    <rect id="Rectangle-48" stroke="#FE9800" x="0.857142857" y="2.2" width="22.1428571" height="18.7" rx="2"></rect>
                    <rect id="Rectangle-48" stroke="#FE9800" fill="#FE9800" x="0.857142857" y="2.2" width="22.1428571" height="4.4" rx="2"></rect>
                    <path d="M6.39285714,0.998428106 C6.39285714,0.447011489 6.8409509,0 7.39634051,0 L7.60365949,0 C8.15786805,0 8.60714286,0.43797493 8.60714286,0.998428106 L8.60714286,3.40157189 C8.60714286,3.95298851 8.1590491,4.4 7.60365949,4.4 L7.39634051,4.4 C6.84213195,4.4 6.39285714,3.96202507 6.39285714,3.40157189 L6.39285714,0.998428106 Z M15.25,0.998428106 C15.25,0.447011489 15.6980938,0 16.2534834,0 L16.4608024,0 C17.0150109,0 17.4642857,0.43797493 17.4642857,0.998428106 L17.4642857,3.40157189 C17.4642857,3.95298851 17.016192,4.4 16.4608024,4.4 L16.2534834,4.4 C15.6992748,4.4 15.25,3.96202507 15.25,3.40157189 L15.25,0.998428106 Z" id="Combined-Shape" stroke="#FFFFFF" stroke-width="2" fill="#D8D8D8"></path>
                    <path d="M6.39285714,0.998428106 C6.39285714,0.447011489 6.8409509,0 7.39634051,0 L7.60365949,0 C8.15786805,0 8.60714286,0.43797493 8.60714286,0.998428106 L8.60714286,3.40157189 C8.60714286,3.95298851 8.1590491,4.4 7.60365949,4.4 L7.39634051,4.4 C6.84213195,4.4 6.39285714,3.96202507 6.39285714,3.40157189 L6.39285714,0.998428106 Z M15.25,0.998428106 C15.25,0.447011489 15.6980938,0 16.2534834,0 L16.4608024,0 C17.0150109,0 17.4642857,0.43797493 17.4642857,0.998428106 L17.4642857,3.40157189 C17.4642857,3.95298851 17.016192,4.4 16.4608024,4.4 L16.2534834,4.4 C15.6992748,4.4 15.25,3.96202507 15.25,3.40157189 L15.25,0.998428106 Z" id="Combined-Shape" stroke="#FE9800" fill="#FFFFFF"></path>
                    <path d="M5.28571429,12.1 C5.8971724,12.1 6.39285714,11.6075132 6.39285714,11 C6.39285714,10.3924868 5.8971724,9.9 5.28571429,9.9 C4.67425617,9.9 4.17857143,10.3924868 4.17857143,11 C4.17857143,11.6075132 4.67425617,12.1 5.28571429,12.1 Z M9.71428571,12.1 C10.3257438,12.1 10.8214286,11.6075132 10.8214286,11 C10.8214286,10.3924868 10.3257438,9.9 9.71428571,9.9 C9.1028276,9.9 8.60714286,10.3924868 8.60714286,11 C8.60714286,11.6075132 9.1028276,12.1 9.71428571,12.1 Z M18.5714286,12.1 C19.1828867,12.1 19.6785714,11.6075132 19.6785714,11 C19.6785714,10.3924868 19.1828867,9.9 18.5714286,9.9 C17.9599705,9.9 17.4642857,10.3924868 17.4642857,11 C17.4642857,11.6075132 17.9599705,12.1 18.5714286,12.1 Z M14.1428571,12.1 C14.7543153,12.1 15.25,11.6075132 15.25,11 C15.25,10.3924868 14.7543153,9.9 14.1428571,9.9 C13.531399,9.9 13.0357143,10.3924868 13.0357143,11 C13.0357143,11.6075132 13.531399,12.1 14.1428571,12.1 Z M9.71428571,16.5 C10.3257438,16.5 10.8214286,16.0075132 10.8214286,15.4 C10.8214286,14.7924868 10.3257438,14.3 9.71428571,14.3 C9.1028276,14.3 8.60714286,14.7924868 8.60714286,15.4 C8.60714286,16.0075132 9.1028276,16.5 9.71428571,16.5 Z M18.5714286,16.5 C19.1828867,16.5 19.6785714,16.0075132 19.6785714,15.4 C19.6785714,14.7924868 19.1828867,14.3 18.5714286,14.3 C17.9599705,14.3 17.4642857,14.7924868 17.4642857,15.4 C17.4642857,16.0075132 17.9599705,16.5 18.5714286,16.5 Z M14.1428571,16.5 C14.7543153,16.5 15.25,16.0075132 15.25,15.4 C15.25,14.7924868 14.7543153,14.3 14.1428571,14.3 C13.531399,14.3 13.0357143,14.7924868 13.0357143,15.4 C13.0357143,16.0075132 13.531399,16.5 14.1428571,16.5 Z" id="Combined-Shape" fill="#FE9800"></path>
                </g>
                <g id="clock" transform="translate(0.000000, 9.000000)">
                    <ellipse id="Oval-27" stroke="#FFFFFF" stroke-width="3.5" fill="#FFFFFF" cx="6.08928571" cy="6.95" rx="6.08928571" ry="6.05"></ellipse>
                    <ellipse id="Oval-27" stroke="#FE9800" fill="#FFFFFF" cx="6.08928571" cy="6.95" rx="6.08928571" ry="6.05"></ellipse>
                    <path d="M6.08928571,3.65 L6.08928571,6.95" id="Line" stroke="#FE9800" stroke-linecap="square"></path>
                    <path d="M9.41071429,6.95 L6.08928571,6.95" id="Line" stroke="#FE9800" stroke-linecap="square" transform="translate(7.750000, 6.950000) scale(-1, -1) translate(-7.750000, -6.950000) "></path>
                </g>
            </g>
        </g>
    </g>
</svg>