<?xml version="1.0" encoding="UTF-8" standalone="no"?>
<svg width="166px" height="154px" viewBox="0 0 166 154" version="1.1" xmlns="http://www.w3.org/2000/svg" xmlns:xlink="http://www.w3.org/1999/xlink">
    <!-- Generator: Sketch 3.8.2 (29753) - http://www.bohemiancoding.com/sketch -->
    <title>scan, sign, send icon</title>
    <desc>Created with Sketch.</desc>
    <defs></defs>
    <g id="Landing-page-icons" stroke="none" stroke-width="1" fill="none" fill-rule="evenodd">
        <g id="Customer-Registration---Screen-3c" transform="translate(-771.000000, -382.000000)">
            <g id="scan,-sign,-send-icon" transform="translate(773.000000, 384.000000)">
                <g id="Group-3">
                    <circle id="Oval-1" stroke="#FE9800" stroke-width="3" cx="75" cy="75" r="75"></circle>
                    <g id="Group-2" transform="translate(116.000000, 100.000000)">
                        <rect id="Rectangle-6" fill="#FE9800" x="0" y="0" width="48" height="48" rx="5"></rect>
                        <text id="3." font-family="Raleway-Medium, Raleway" font-size="35" font-weight="400" fill="#FFFFFF">
                            <tspan x="15.015" y="34">3.</tspan>
                        </text>
                    </g>
                </g>
                <g id="send" transform="translate(39.000000, 32.000000)">
                    <g id="documents">
                        <path d="M60.3911115,9.67385488 L17.0670532,9.67385488 C12.7346474,9.67385488 9.18995174,13.2147635 9.18995174,17.5425407 L9.18995174,72.6233412 C9.18995174,76.9511184 12.7346474,80.492027 17.0670532,80.492027 L60.3911115,80.492027 C64.7235173,80.492027 68.268213,76.9511184 68.268213,72.6233412 L68.268213,17.5425407 C68.268213,13.2147635 64.7235173,9.67385488 60.3911115,9.67385488 L60.3911115,9.67385488 Z M63.016812,76.6769066 L14.4413527,76.6769066 L14.4413527,14.9196454 L63.016812,14.9196454 L63.016812,76.6769066 L63.016812,76.6769066 Z" id="doc" fill="#FE9800"></path>
                        <path d="M50.7573627,1.04144371 C50.7573627,1.04144371 16.5681414,0.498769235 8.33534659,1.23183263 C0.102551785,1.96489603 0.288708092,6.89287951 0.283460786,8.59231088 C0.262577748,15.3556461 0.429572893,59.9724618 0.429572893,59.9724618" id="Path-118" stroke="#FE9800" stroke-width="4"></path>
                        <rect id="Rectangle-9" fill="#FE9800" x="24.9441547" y="33.2799122" width="28.8827055" height="5.24579053"></rect>
                        <rect id="Rectangle-9" fill="#FE9800" x="24.9441547" y="43.7714933" width="19.6927537" height="5.24579053"></rect>
                        <rect id="Rectangle-9" fill="#FE9800" x="24.9441547" y="56.8859696" width="26.257005" height="5.24579053"></rect>
                    </g>
                    <path d="M59.8910603,47 L82.797089,47" id="Stroke-30" stroke="#FFFFFF" stroke-width="20"></path>
                    <path d="M59.8910603,47 L82.797089,47" id="Stroke-30" stroke="#FE9800" stroke-width="14"></path>
                    <polyline id="Arrow-head-30" fill="#FE9800" points="79.9828767 61.3197774 96.645976 46.8791487 79.9828767 32.4370719 79.9828767 61.3197774"></polyline>
                </g>
            </g>
        </g>
    </g>
</svg>