<?xml version="1.0" encoding="utf-8"?>
<!-- Generator: Adobe Illustrator 19.2.0, SVG Export Plug-In . SVG Version: 6.00 Build 0)  -->
<svg version="1.1" id="Layer_1" xmlns="http://www.w3.org/2000/svg" xmlns:xlink="http://www.w3.org/1999/xlink" x="0px" y="0px"
	 viewBox="0 0 992.9 822" style="enable-background:new 0 0 992.9 822;" xml:space="preserve">
<style type="text/css">
	.st0{display:none;}
	.st1{display:inline;fill:url(#SVGID_1_);stroke:#FFFFFF;stroke-miterlimit:10;}
	.st2{opacity:0.88;fill:#FFFFFF;stroke:#FFFFFF;stroke-miterlimit:10;enable-background:new    ;}
	.st3{opacity:0.9;fill:#F4F4F4;stroke:#FFFFFF;stroke-miterlimit:10;enable-background:new    ;}
	.st4{display:inline;fill:#9BA2BC;}
	.st5{display:inline;fill:#6A7699;}
	.st6{display:inline;}
	.st7{fill:#6A7699;}
	.st8{fill:#919EBC;}
	.st9{fill:#B2B6C1;}
	.st10{fill:none;}
	.st11{fill:#2A354C;}
	.st12{display:inline;fill:#2A354C;}
	.st13{display:inline;fill:#919EBC;}
	.st14{fill:#FCDEDE;stroke:#FCDEDE;stroke-miterlimit:10;}
	.st15{fill:#FFFAFA;stroke:#FFFAFA;stroke-miterlimit:10;}
	.st16{fill:#F0D3D3;stroke:#F0D3D3;stroke-miterlimit:10;}
	.st17{fill:#FCDEDE;}
	.st18{fill:#F0D3D3;}
	.st19{fill:#FFEBEB;stroke:#FFEBEB;stroke-miterlimit:10;}
	.st20{fill:#E5B1B1;stroke:#FFFFFF;stroke-miterlimit:10;}
	.st21{fill:#F7F7F7;stroke:#999898;stroke-miterlimit:10;}
	.st22{fill:#FFFFFF;stroke:#999898;stroke-miterlimit:10;}
	.st23{fill:#FFF3F3;stroke:#FFF3F3;stroke-miterlimit:10;}
	.st24{fill:#E5B7B7;stroke:#E5B7B7;stroke-miterlimit:10;}
	.st25{fill:#F2DADA;stroke:#F2DADA;stroke-miterlimit:10;}
	.st26{fill:#FFFFFF;stroke:#FFEBEB;stroke-miterlimit:10;}
	.st27{display:inline;fill:#FCDEDE;}
	.st28{opacity:0.75;fill:#778B8C;stroke:#64787A;stroke-miterlimit:10;enable-background:new    ;}
	.st29{fill:#778B8C;stroke:#64787A;stroke-miterlimit:10;}
	.st30{fill:#8DAAB2;stroke:#8DAAB2;stroke-miterlimit:10;}
	.st31{fill:#98B8C4;stroke:#98B8C4;stroke-miterlimit:10;}
	.st32{fill:#C8E5ED;stroke:#98B8C4;stroke-miterlimit:10;}
	.st33{fill:#B5B5B5;stroke:#B5B5B5;stroke-miterlimit:10;}
	.st34{fill:#898989;stroke:#898989;stroke-miterlimit:10;}
	.st35{fill:#C8E5ED;}
	.st36{fill:#8DAAB2;}
	.st37{fill:#C96E41;stroke:#C96E41;stroke-miterlimit:10;}
	.st38{fill:#2BA02B;stroke:#2BA02B;stroke-miterlimit:10;}
</style>
<g id="Sky" class="st0">
	
		<linearGradient id="SVGID_1_" gradientUnits="userSpaceOnUse" x1="496.45" y1="108.3195" x2="496.45" y2="858.2195" gradientTransform="matrix(1 0 0 -1 0 966.439)">
		<stop  offset="0" style="stop-color:#2484C6;stop-opacity:0"/>
		<stop  offset="1" style="stop-color:#2484C6"/>
	</linearGradient>
	<rect y="108.2" class="st1" width="992.9" height="749.9"/>
</g>
<path class="st2" d="M691.1,174.2c0.3-0.3,0.6-0.7,0.8-1c0.6,0.6,1.2,1.1,1.8,1.6C692.9,174.5,692,174.3,691.1,174.2z"/>
<path class="st2" d="M703.2,181.1c-0.5-0.6-1-1.1-1.5-1.6c0.9,0.4,1.8,0.7,2.7,1C704,180.7,703.6,180.9,703.2,181.1z"/>
<path class="st3" d="M171.5,215c1.4-2,2.2-4.4,2.1-7c-0.1-6.6-5.6-11.9-12.2-11.8c-1,0-1.9,0.2-2.8,0.4c-0.4-9.7-8.4-17.3-18.1-17.1
	c-7.3,0.1-13.6,4.7-16.2,11.1c-2.9-3.6-7.3-5.9-12.2-5.8c-8.4,0.1-15.2,7.6-15,16c0.1,5.7,3.3,10.6,8,13.6h-0.8c-5,0-9,4-9,9
	s4.1,9,9,9h62.2c5,0,9-4.5,9-9.5C175.5,219.8,173.9,216.6,171.5,215z M150.3,212.3c0,0.1,0.1,0.2,0.1,0.2c-0.1,0-0.2-0.1-0.3-0.1
	C150.2,212.3,150.2,212.3,150.3,212.3z"/>
<path class="st3" d="M721,253.1c0,6,4.9,11.3,11,11.3h75.5c6,0,11-5,11-11s-4.9-11-11-11h-1c5.7-3,9.6-9.3,9.7-16.3
	c0.2-10.3-8-19-18.3-19.2c-6-0.1-11.4,2.7-14.9,7c-3.2-7.8-10.7-13.3-19.7-13.5c-11.8-0.2-21.5,9.1-22,20.8
	c-1.1-0.3-2.2-0.5-3.4-0.5c-8.1-0.1-14.7,6.3-14.9,14.4c-0.1,3.2,0.9,6.1,2.6,8.6C723,245.7,721,249.3,721,253.1z M752,240.5
	c-0.1,0-0.2,0.1-0.3,0.2c0-0.1,0.1-0.2,0.1-0.3C751.8,240.4,751.8,240.5,752,240.5z"/>
<path class="st3" d="M497.1,136.4c5.6-3.2,9.3-9.2,9.3-16.1c0-10.3-8.3-18.6-18.6-18.6c-1,0-2,0.1-3,0.3c-5-10.6-15.9-18-28.4-18
	c-11.7,0-21.8,6.4-27.3,15.8c-3.4-6.3-10.1-10.7-17.8-10.7c-9.2,0-16.9,6.1-19.4,14.4c-2.5-3-6.3-4.9-10.5-4.9
	c-3.3,0-6.3,1.2-8.7,3.1c-3.9-10.4-14-17.8-25.7-17.8c-15.2,0-27.5,12.3-27.5,27.5c0,0.4,0,0.9,0,1.3c-2.1-0.8-4.4-1.3-6.8-1.3
	c-10,0-18.1,8.1-18.1,18.1c0,3.3,1.1,6.3,2.6,9c-5.3,1.2-9.2,6-9.2,11.7v4.9c0,6.6,5,12,11.6,12h201.8c6.6,0,11.6-5.4,11.6-12v-4.9
	C513,136.2,497.5,136.9,497.1,136.4z"/>
<g id="Third_buildings" class="st0">
	<polygon class="st4" points="878.8,523.6 878.8,498.2 868.8,510.8 868.8,523.6 815.8,523.6 815.8,508 776.8,501.9 776.8,510.6 
		767.8,510.6 764.8,510.6 758.8,510.6 758.8,501.6 740.8,501.6 740.8,508.9 731.8,508 731.8,565.6 714.8,559.4 714.8,551.6 
		705.1,552.8 705.5,527.6 703,527.6 702.9,553.6 696.8,553.6 696.8,561.6 688.8,561.6 688.8,590.6 634.8,590.6 634.8,574.6 
		625.8,574.6 625.8,590.6 621.8,590.6 621.8,541.6 608.8,541.6 608.8,534.6 582.8,534.6 582.8,539.6 570.8,538.7 570.8,577.6 
		563.8,577.6 563.8,571.6 557.6,571.6 557.3,547.6 553.8,547.6 553.8,571.7 548.3,571.9 542.8,571.7 542.8,547.6 539.2,547.6 
		538.9,571.6 532.8,571.6 532.8,577.6 525.8,577.6 525.8,538.7 513.8,539.6 513.8,534.6 487.8,534.6 487.8,541.6 474.8,541.6 
		474.8,590.6 470.8,590.6 470.8,574.6 461.8,574.6 461.8,590.6 407.8,590.6 407.8,561.6 399.8,561.6 399.8,553.6 393.7,553.6 
		393.6,527.6 391.1,527.6 391.4,552.8 381.8,551.6 381.8,559.4 364.8,565.6 364.8,508 355.8,508.9 355.8,501.6 337.8,501.6 
		337.8,510.6 331.8,510.6 328.8,510.6 319.8,510.6 319.8,501.9 280.8,508 280.8,523.6 227.8,523.6 227.8,510.8 217.8,498.2 
		217.8,523.6 213.8,523.6 213.8,741.6 280.8,741.6 328.8,741.6 331.8,741.6 364.8,741.6 407.8,741.6 474.8,741.6 475.8,741.6 
		524.8,741.6 525.8,741.6 536.8,741.6 559.8,741.6 570.8,741.6 571.8,741.6 620.8,741.6 621.8,741.6 688.8,741.6 731.8,741.6 
		764.8,741.6 767.8,741.6 815.8,741.6 882.8,741.6 882.8,523.6 	"/>
</g>
<g id="Second_Buildings" class="st0">
	<polygon class="st5" points="763.8,464.6 763.8,441.6 759.8,441.6 759.8,464.6 718.8,464.6 718.8,741.6 767.8,741.6 767.8,464.6 	
		"/>
	<g class="st6">
		<g>
			<polygon class="st7" points="258.8,420.6 258.8,413.6 205.8,413.6 205.8,420.6 213.8,420.6 213.8,456.6 207.8,456.6 207.8,462.6 
				213.8,462.6 213.8,741.6 249.8,741.6 249.8,462.6 255.8,462.6 255.8,456.6 249.8,456.6 249.8,420.6 			"/>
			<circle class="st8" cx="231.9" cy="438.7" r="9"/>
		</g>
		<polygon class="st7" points="534.8,514.6 534.8,486.6 527.8,486.6 527.8,470.6 520.8,470.6 520.8,458.6 496.8,458.6 496.8,470.6 
			488.8,470.6 488.8,486.6 482.8,486.6 482.8,514.6 466.8,514.6 466.8,741.6 550.8,741.6 550.8,514.6 		"/>
		<g>
			<rect x="850.8" y="491.6" class="st7" width="68" height="250"/>
			<polygon class="st7" points="921.4,486.6 885.6,461.2 849.9,486.6 837.8,486.6 837.8,491.6 933.8,491.6 933.8,486.6 			"/>
		</g>
		<g>
			<rect x="417.8" y="464.6" class="st7" width="49" height="277"/>
			<g>
				<rect x="425.1" y="470.7" class="st9" width="9.6" height="33.8"/>
				<rect x="437" y="470.7" class="st9" width="9.6" height="33.8"/>
				<rect x="449.2" y="470.7" class="st9" width="9.6" height="33.8"/>
			</g>
			<rect x="425.1" y="486.4" class="st7" width="33.6" height="3.1"/>
		</g>
		<polygon class="st7" points="258.8,514.6 258.8,486.6 263.8,486.6 263.8,470.6 267.8,470.6 267.8,458.6 283.8,458.6 283.8,470.6 
			288.8,470.6 288.8,486.6 292.8,486.6 292.8,514.6 302.8,514.6 302.8,741.6 248.8,741.6 248.8,514.6 		"/>
		<g>
			<rect x="546.8" y="519.6" class="st7" width="49" height="222"/>
			<polygon class="st7" points="547.1,515.6 571,493 594.9,515.6 602.8,515.6 602.8,519.6 538.8,519.6 538.8,515.6 			"/>
		</g>
		<g>
			<rect x="616.8" y="464.6" class="st7" width="49" height="277"/>
			<g>
				<line class="st10" x1="460.4" y1="470.7" x2="450.8" y2="470.7"/>
				<path class="st9" d="M450.8,504.5"/>
			</g>
			<line class="st10" x1="450.8" y1="486.4" x2="450.8" y2="489.5"/>
			<path class="st7" d="M484.5,486.4"/>
		</g>
		<path class="st7" d="M383.7,601.6c0-9,7.1-16.2,16.1-16.9v-22.1h2v22.1c9,0.6,16.4,7.9,16.4,16.9h4.6v140h-44v-140H383.7
			L383.7,601.6z"/>
		<polygon class="st7" points="831.8,514.6 831.8,486.6 824.8,486.6 824.8,470.6 817.8,470.6 817.8,458.6 793.8,458.6 793.8,470.6 
			785.8,470.6 785.8,486.6 779.8,486.6 779.8,514.6 763.8,514.6 763.8,741.6 847.8,741.6 847.8,514.6 		"/>
		<g>
			<g>
				<rect x="726.5" y="474.6" class="st9" width="9.6" height="33.8"/>
				<rect x="738.4" y="474.6" class="st9" width="9.6" height="33.8"/>
				<rect x="750.5" y="474.6" class="st9" width="9.6" height="33.8"/>
			</g>
			<line class="st10" x1="736.1" y1="489.5" x2="736.1" y2="486.4"/>
		</g>
		<g>
			<g>
				<g>
					<path class="st9" d="M773.8,513.5"/>
				</g>
				<path class="st7" d="M807.5,495.4"/>
			</g>
			<path class="st7" d="M674.7,601.6c0-9,7.1-16.2,16.1-16.9v-22.1h2v22.1c9,0.6,16.4,7.9,16.4,16.9l9.6,1.5v138.5h-54.5l0.5-138.5
				L674.7,601.6z"/>
		</g>
	</g>
</g>
<g id="Sky_Scrapers" class="st0">
	<g class="st6">
		<polygon class="st11" points="826.8,552.2 826.8,514.8 902.8,482.9 902.8,437.6 906.8,437.6 906.8,481.2 916.8,476.8 916.8,568.6 
			928.8,570.8 928.8,741.6 796.8,741.6 796.8,546.8 		"/>
		<g>
			<rect x="904.8" y="583.7" class="st8" width="10" height="10"/>
			<rect x="880.8" y="583.7" class="st8" width="10" height="10"/>
			<rect x="856.8" y="583.7" class="st8" width="10" height="10"/>
			<rect x="832.8" y="583.7" class="st8" width="10" height="10"/>
			<rect x="808.8" y="583.7" class="st8" width="10" height="10"/>
		</g>
		<g>
			<rect x="904.8" y="604.3" class="st8" width="10" height="10"/>
			<rect x="880.8" y="604.3" class="st8" width="10" height="10"/>
			<rect x="856.8" y="604.3" class="st8" width="10" height="10"/>
			<rect x="832.8" y="604.3" class="st8" width="10" height="10"/>
			<rect x="808.8" y="604.3" class="st8" width="10" height="10"/>
		</g>
		<g>
			<rect x="904.8" y="624.7" class="st8" width="10" height="10"/>
			<rect x="880.8" y="624.7" class="st8" width="10" height="10"/>
			<rect x="856.8" y="624.7" class="st8" width="10" height="10"/>
			<rect x="832.8" y="624.7" class="st8" width="10" height="10"/>
			<rect x="808.8" y="624.7" class="st8" width="10" height="10"/>
		</g>
		<g>
			<rect x="904.8" y="645.2" class="st8" width="10" height="10"/>
			<rect x="880.8" y="645.2" class="st8" width="10" height="10"/>
			<rect x="856.8" y="645.2" class="st8" width="10" height="10"/>
			<rect x="832.8" y="645.2" class="st8" width="10" height="10"/>
			<rect x="808.8" y="645.2" class="st8" width="10" height="10"/>
		</g>
		<g>
			<rect x="904.8" y="665.6" class="st8" width="10" height="10"/>
			<rect x="880.8" y="665.6" class="st8" width="10" height="10"/>
			<rect x="856.8" y="665.6" class="st8" width="10" height="10"/>
			<rect x="832.8" y="665.6" class="st8" width="10" height="10"/>
			<rect x="808.8" y="665.6" class="st8" width="10" height="10"/>
		</g>
		<g>
			<rect x="904.8" y="686" class="st8" width="10" height="10"/>
			<rect x="880.8" y="686" class="st8" width="10" height="10"/>
			<rect x="856.8" y="686" class="st8" width="10" height="10"/>
			<rect x="832.8" y="686" class="st8" width="10" height="10"/>
			<rect x="808.8" y="686" class="st8" width="10" height="10"/>
		</g>
	</g>
	<g class="st6">
		<rect x="466" y="422.9" class="st11" width="150.6" height="318.9"/>
		<g>
			<rect x="476.3" y="445.4" class="st8" width="10" height="29.7"/>
			<rect x="500.3" y="445.4" class="st8" width="10" height="29.7"/>
			<rect x="524.3" y="445.4" class="st8" width="10" height="29.7"/>
			<rect x="548.3" y="445.4" class="st8" width="10" height="29.7"/>
			<rect x="572.3" y="445.4" class="st8" width="10" height="29.7"/>
			<rect x="596.3" y="445.4" class="st8" width="10" height="29.7"/>
		</g>
		<g>
			<rect x="476.3" y="492" class="st8" width="10" height="29.7"/>
			<rect x="500.3" y="492" class="st8" width="10" height="29.7"/>
			<rect x="524.3" y="492" class="st8" width="10" height="29.7"/>
			<rect x="548.3" y="492" class="st8" width="10" height="29.7"/>
			<rect x="572.3" y="492" class="st8" width="10" height="29.7"/>
			<rect x="596.3" y="492" class="st8" width="10" height="29.7"/>
		</g>
		<g>
			<rect x="476.3" y="538.7" class="st8" width="10" height="29.7"/>
			<rect x="500.3" y="538.7" class="st8" width="10" height="29.7"/>
			<rect x="524.3" y="538.7" class="st8" width="10" height="29.7"/>
			<rect x="548.3" y="538.7" class="st8" width="10" height="29.7"/>
			<rect x="572.3" y="538.7" class="st8" width="10" height="29.7"/>
			<rect x="596.3" y="538.7" class="st8" width="10" height="29.7"/>
		</g>
		<g>
			<rect x="476.3" y="585.3" class="st8" width="10" height="29.7"/>
			<rect x="500.3" y="585.3" class="st8" width="10" height="29.7"/>
			<rect x="524.3" y="585.3" class="st8" width="10" height="29.7"/>
			<rect x="548.3" y="585.3" class="st8" width="10" height="29.7"/>
			<rect x="572.3" y="585.3" class="st8" width="10" height="29.7"/>
			<rect x="596.3" y="585.3" class="st8" width="10" height="29.7"/>
		</g>
		<g>
			<rect x="476.3" y="631.9" class="st8" width="10" height="29.7"/>
			<rect x="500.3" y="631.9" class="st8" width="10" height="29.7"/>
			<rect x="524.3" y="631.9" class="st8" width="10" height="29.7"/>
			<rect x="548.3" y="631.9" class="st8" width="10" height="29.7"/>
			<rect x="572.3" y="631.9" class="st8" width="10" height="29.7"/>
			<rect x="596.3" y="631.9" class="st8" width="10" height="29.7"/>
		</g>
		<g>
			<rect x="476.3" y="678" class="st8" width="10" height="29.7"/>
			<rect x="500.3" y="678" class="st8" width="10" height="29.7"/>
			<rect x="524.3" y="678" class="st8" width="10" height="29.7"/>
			<rect x="548.3" y="678" class="st8" width="10" height="29.7"/>
			<rect x="572.3" y="678" class="st8" width="10" height="29.7"/>
			<rect x="596.3" y="678" class="st8" width="10" height="29.7"/>
		</g>
	</g>
	<g class="st6">
		<rect x="287.5" y="391.8" class="st11" width="94" height="350"/>
		<g>
			<rect x="305.5" y="405.3" class="st8" width="10" height="10"/>
			<rect x="329.5" y="405.3" class="st8" width="10" height="10"/>
			<rect x="353.5" y="405.3" class="st8" width="10" height="10"/>
		</g>
		<g>
			<rect x="305.5" y="423.4" class="st8" width="10" height="10"/>
			<rect x="329.5" y="423.4" class="st8" width="10" height="10"/>
			<rect x="353.5" y="423.4" class="st8" width="10" height="10"/>
		</g>
		<g>
			<rect x="305.5" y="441.5" class="st8" width="10" height="10"/>
			<rect x="329.5" y="441.5" class="st8" width="10" height="10"/>
			<rect x="353.5" y="441.5" class="st8" width="10" height="10"/>
		</g>
		<g>
			<rect x="305.5" y="459.6" class="st8" width="10" height="10"/>
			<rect x="329.5" y="459.6" class="st8" width="10" height="10"/>
			<rect x="353.5" y="459.6" class="st8" width="10" height="10"/>
		</g>
		<g>
			<rect x="305.5" y="477.7" class="st8" width="10" height="10"/>
			<rect x="329.5" y="477.7" class="st8" width="10" height="10"/>
			<rect x="353.5" y="477.7" class="st8" width="10" height="10"/>
		</g>
		<g>
			<rect x="305.5" y="495.8" class="st8" width="10" height="10"/>
			<rect x="329.5" y="495.8" class="st8" width="10" height="10"/>
			<rect x="353.5" y="495.8" class="st8" width="10" height="10"/>
		</g>
		<g>
			<rect x="305.5" y="514.5" class="st8" width="10" height="10"/>
			<rect x="329.5" y="514.5" class="st8" width="10" height="10"/>
			<rect x="353.5" y="514.5" class="st8" width="10" height="10"/>
		</g>
		<g>
			<rect x="305.5" y="532.6" class="st8" width="10" height="10"/>
			<rect x="329.5" y="532.6" class="st8" width="10" height="10"/>
			<rect x="353.5" y="532.6" class="st8" width="10" height="10"/>
		</g>
		<g>
			<rect x="305.5" y="550.7" class="st8" width="10" height="10"/>
			<rect x="329.5" y="550.7" class="st8" width="10" height="10"/>
			<rect x="353.5" y="550.7" class="st8" width="10" height="10"/>
		</g>
		<g>
			<rect x="305.5" y="568.8" class="st8" width="10" height="10"/>
			<rect x="329.5" y="568.8" class="st8" width="10" height="10"/>
			<rect x="353.5" y="568.8" class="st8" width="10" height="10"/>
		</g>
		<g>
			<rect x="305.5" y="586.9" class="st8" width="10" height="10"/>
			<rect x="329.5" y="586.9" class="st8" width="10" height="10"/>
			<rect x="353.5" y="586.9" class="st8" width="10" height="10"/>
		</g>
		<g>
			<rect x="305.5" y="605" class="st8" width="10" height="10"/>
			<rect x="329.5" y="605" class="st8" width="10" height="10"/>
			<rect x="353.5" y="605" class="st8" width="10" height="10"/>
		</g>
		<g>
			<rect x="305.5" y="623.5" class="st8" width="10" height="10"/>
			<rect x="329.5" y="623.5" class="st8" width="10" height="10"/>
			<rect x="353.5" y="623.5" class="st8" width="10" height="10"/>
		</g>
		<g>
			<rect x="305.5" y="641.6" class="st8" width="10" height="10"/>
			<rect x="329.5" y="641.6" class="st8" width="10" height="10"/>
			<rect x="353.5" y="641.6" class="st8" width="10" height="10"/>
		</g>
		<g>
			<rect x="305.5" y="659.7" class="st8" width="10" height="10"/>
			<rect x="329.5" y="659.7" class="st8" width="10" height="10"/>
			<rect x="353.5" y="659.7" class="st8" width="10" height="10"/>
		</g>
		<g>
			<rect x="305.5" y="677.8" class="st8" width="10" height="10"/>
			<rect x="329.5" y="677.8" class="st8" width="10" height="10"/>
			<rect x="353.5" y="677.8" class="st8" width="10" height="10"/>
		</g>
		<g>
			<rect x="305.5" y="695.9" class="st8" width="10" height="10"/>
			<rect x="329.5" y="695.9" class="st8" width="10" height="10"/>
			<rect x="353.5" y="695.9" class="st8" width="10" height="10"/>
		</g>
		<g>
			<rect x="305.5" y="714" class="st8" width="10" height="10"/>
			<rect x="329.5" y="714" class="st8" width="10" height="10"/>
			<rect x="353.5" y="714" class="st8" width="10" height="10"/>
		</g>
		<rect x="297.2" y="383.3" class="st11" width="74.7" height="8.5"/>
	</g>
	<rect x="616.3" y="633.4" class="st12" width="157.5" height="108.4"/>
	<rect x="630.2" y="643.8" class="st13" width="130.5" height="5.3"/>
	<rect x="630.2" y="654.5" class="st13" width="130.5" height="5.3"/>
	<rect x="630.2" y="665.3" class="st13" width="130.5" height="5.3"/>
	<rect x="630.2" y="676" class="st13" width="130.5" height="5.3"/>
	<rect x="630.2" y="687.4" class="st13" width="130.5" height="5.3"/>
	<rect x="630.2" y="698.4" class="st13" width="130.5" height="5.3"/>
	<rect x="630.2" y="709.4" class="st13" width="130.5" height="5.3"/>
	<rect x="630.2" y="720.2" class="st13" width="130.5" height="5.3"/>
	<rect x="630.2" y="730.9" class="st13" width="130.5" height="5.3"/>
</g>
<g id="Main_buildings" class="st0">
	<g class="st6">
		<g>
			<g>
				<rect x="9" y="232.6" class="st14" width="150.6" height="457.3"/>
				<g>
					<rect x="19.3" y="265" class="st15" width="10" height="42.6"/>
					<rect x="43.3" y="265" class="st15" width="10" height="42.6"/>
					<rect x="67.3" y="265" class="st15" width="10" height="42.6"/>
					<rect x="91.3" y="265" class="st15" width="10" height="42.6"/>
					<rect x="115.3" y="265" class="st15" width="10" height="42.6"/>
					<rect x="139.3" y="265" class="st15" width="10" height="42.6"/>
				</g>
				<g>
					<rect x="19.3" y="331.8" class="st15" width="10" height="42.6"/>
					<rect x="43.3" y="331.8" class="st15" width="10" height="42.6"/>
					<rect x="67.3" y="331.8" class="st15" width="10" height="42.6"/>
					<rect x="91.3" y="331.8" class="st15" width="10" height="42.6"/>
					<rect x="115.3" y="331.8" class="st15" width="10" height="42.6"/>
					<rect x="139.3" y="331.8" class="st15" width="10" height="42.6"/>
				</g>
				<g>
					<rect x="19.3" y="398.7" class="st15" width="10" height="42.6"/>
					<rect x="43.3" y="398.7" class="st15" width="10" height="42.6"/>
					<rect x="67.3" y="398.7" class="st15" width="10" height="42.6"/>
					<rect x="91.3" y="398.7" class="st15" width="10" height="42.6"/>
					<rect x="115.3" y="398.7" class="st15" width="10" height="42.6"/>
					<rect x="139.3" y="398.7" class="st15" width="10" height="42.6"/>
				</g>
				<g>
					<rect x="19.3" y="465.5" class="st15" width="10" height="42.6"/>
					<rect x="43.3" y="465.5" class="st15" width="10" height="42.6"/>
					<rect x="67.3" y="465.5" class="st15" width="10" height="42.6"/>
					<rect x="91.3" y="465.5" class="st15" width="10" height="42.6"/>
					<rect x="115.3" y="465.5" class="st15" width="10" height="42.6"/>
					<rect x="139.3" y="465.5" class="st15" width="10" height="42.6"/>
				</g>
			</g>
			<polygon class="st16" points="212.1,659.9 158.3,689.9 158.3,232.6 212.1,265 			"/>
		</g>
		<rect x="105" y="195" class="st17" width="11.2" height="36.9"/>
		<polygon class="st18" points="147.5,231.9 116.2,231.9 116.2,195 147.5,209.6 		"/>
	</g>
	<g class="st6">
		<g>
			<polygon class="st19" points="166.3,472.7 166.3,421.4 90.3,377.8 90.3,316.1 86.3,316.1 86.3,375.5 76.3,369.4 76.3,495.1 
				64.3,498.1 64.3,732.1 196.3,732.1 196.3,465.2 			"/>
			<g>
				<rect x="77.8" y="515.8" class="st14" width="10" height="13.7"/>
				<rect x="101.8" y="515.8" class="st14" width="10" height="13.7"/>
				<rect x="125.8" y="515.8" class="st14" width="10" height="13.7"/>
				<rect x="149.8" y="515.8" class="st14" width="10" height="13.7"/>
				<rect x="173.8" y="515.8" class="st14" width="10" height="13.7"/>
			</g>
			<g>
				<rect x="77.8" y="543.8" class="st14" width="10" height="13.7"/>
				<rect x="101.8" y="543.8" class="st14" width="10" height="13.7"/>
				<rect x="125.8" y="543.8" class="st14" width="10" height="13.7"/>
				<rect x="149.8" y="543.8" class="st14" width="10" height="13.7"/>
				<rect x="173.8" y="543.8" class="st14" width="10" height="13.7"/>
			</g>
			<g>
				<rect x="77.8" y="571.8" class="st14" width="10" height="13.7"/>
				<rect x="101.8" y="571.8" class="st14" width="10" height="13.7"/>
				<rect x="125.8" y="571.8" class="st14" width="10" height="13.7"/>
				<rect x="149.8" y="571.8" class="st14" width="10" height="13.7"/>
				<rect x="173.8" y="571.8" class="st14" width="10" height="13.7"/>
			</g>
			<g>
				<rect x="77.8" y="599.8" class="st14" width="10" height="13.7"/>
				<rect x="101.8" y="599.8" class="st14" width="10" height="13.7"/>
				<rect x="125.8" y="599.8" class="st14" width="10" height="13.7"/>
				<rect x="149.8" y="599.8" class="st14" width="10" height="13.7"/>
				<rect x="173.8" y="599.8" class="st14" width="10" height="13.7"/>
			</g>
			<g>
				<rect x="77.8" y="627.8" class="st14" width="10" height="13.7"/>
				<rect x="101.8" y="627.8" class="st14" width="10" height="13.7"/>
				<rect x="125.8" y="627.8" class="st14" width="10" height="13.7"/>
				<rect x="149.8" y="627.8" class="st14" width="10" height="13.7"/>
				<rect x="173.8" y="627.8" class="st14" width="10" height="13.7"/>
			</g>
			<g>
				<rect x="77.8" y="655.8" class="st14" width="10" height="13.7"/>
				<rect x="101.8" y="655.8" class="st14" width="10" height="13.7"/>
				<rect x="125.8" y="655.8" class="st14" width="10" height="13.7"/>
				<rect x="149.8" y="655.8" class="st14" width="10" height="13.7"/>
				<rect x="173.8" y="655.8" class="st14" width="10" height="13.7"/>
			</g>
		</g>
		<polygon class="st20" points="247.4,722.5 196.3,732.1 196.3,465.2 247.4,490.5 		"/>
	</g>
	<g class="st6">
		<rect x="629" y="355.3" class="st21" width="155.2" height="376.5"/>
		<rect x="670.1" y="321.5" class="st21" width="65.7" height="410.9"/>
		<polygon class="st21" points="784.3,731.8 834.3,731.8 834.3,365.6 784.3,355.3 		"/>
		<rect x="633.2" y="371.4" class="st22" width="32.5" height="21"/>
		<rect x="633.2" y="398.8" class="st22" width="32.5" height="21"/>
		<rect x="633.2" y="427.8" class="st22" width="32.5" height="21"/>
		<rect x="633.2" y="456.4" class="st22" width="32.5" height="21"/>
		<rect x="748.1" y="371.4" class="st22" width="32.5" height="21"/>
		<rect x="748.1" y="398.8" class="st22" width="32.5" height="21"/>
		<rect x="748.1" y="427.8" class="st22" width="32.5" height="21"/>
		<rect x="748.1" y="456.4" class="st22" width="32.5" height="21"/>
		<g>
			<rect x="633.2" y="484.8" class="st22" width="32.5" height="21"/>
			<rect x="748.1" y="484.8" class="st22" width="32.5" height="21"/>
		</g>
		<g>
			<rect x="632.9" y="514.3" class="st22" width="32.5" height="21"/>
			<rect x="747.9" y="514.3" class="st22" width="32.5" height="21"/>
		</g>
		<g>
			<rect x="632.9" y="545.9" class="st22" width="32.5" height="21"/>
			<rect x="747.9" y="545.9" class="st22" width="32.5" height="21"/>
		</g>
		<g>
			<rect x="632.9" y="577.7" class="st22" width="32.5" height="21"/>
			<rect x="747.9" y="577.7" class="st22" width="32.5" height="21"/>
		</g>
		<g>
			<rect x="632.9" y="612.4" class="st22" width="32.5" height="21"/>
			<rect x="747.9" y="612.4" class="st22" width="32.5" height="21"/>
		</g>
		<g>
			<rect x="632.9" y="648.7" class="st22" width="32.5" height="21"/>
			<rect x="747.9" y="648.7" class="st22" width="32.5" height="21"/>
		</g>
		<polygon class="st21" points="756.3,324.6 756.3,355.1 744.3,355.1 744.3,732.1 736.3,732.1 736.3,321.1 		"/>
		<polygon class="st22" points="789.6,392.5 829.9,398.8 829.9,378.9 789.6,371.5 		"/>
		<polygon class="st22" points="789.6,419.8 829.9,426.1 829.9,406.2 789.6,398.8 		"/>
		<polygon class="st22" points="789.6,448.8 829.9,455.1 829.9,435.2 789.6,427.8 		"/>
		<polygon class="st22" points="789.6,477.5 829.9,483.8 829.9,463.9 789.6,456.5 		"/>
		<polygon class="st22" points="789.6,505.8 829.9,512.1 829.9,492.2 789.6,484.8 		"/>
		<polygon class="st22" points="789.6,535.3 829.9,541.6 829.9,521.7 789.6,514.3 		"/>
		<polygon class="st22" points="789.6,567 829.9,573.3 829.9,553.4 789.6,546 		"/>
		<polygon class="st22" points="789.6,598.7 829.9,605 829.9,585.1 789.6,577.7 		"/>
		<polygon class="st22" points="789.6,633.4 829.9,639.7 829.9,619.8 789.6,612.4 		"/>
		<polygon class="st22" points="789.6,669.6 829.9,676 829.9,656.1 789.6,648.6 		"/>
	</g>
	<g class="st6">
		<polygon class="st23" points="582.3,733.6 542.3,730.1 542.3,371.1 582.3,377.7 		"/>
		<polygon class="st24" points="521.3,371.1 521.3,357.1 498.3,357.1 498.3,315.1 496.3,315.1 496.3,357.1 491.3,357.1 491.3,328.1 
			488.3,328.1 488.3,357.1 479.5,357.1 479.5,371.6 455.1,371.7 455.3,730.1 542.3,730.1 542.3,371.1 		"/>
		<g>
			<rect x="460.7" y="395.8" class="st25" width="76" height="4.5"/>
			<rect x="460.7" y="410.3" class="st25" width="76" height="4.5"/>
			<rect x="460.7" y="424.8" class="st25" width="76" height="4.5"/>
			<rect x="460.7" y="439.3" class="st25" width="76" height="4.5"/>
		</g>
		<g>
			<rect x="460.7" y="453.8" class="st25" width="76" height="4.5"/>
			<rect x="460.7" y="468.3" class="st25" width="76" height="4.5"/>
			<rect x="460.7" y="482.8" class="st25" width="76" height="4.5"/>
			<rect x="460.7" y="497.4" class="st25" width="76" height="4.5"/>
		</g>
		<g>
			<rect x="460.7" y="511.9" class="st25" width="76" height="4.5"/>
			<rect x="460.7" y="526.4" class="st25" width="76" height="4.5"/>
			<rect x="460.7" y="540.9" class="st25" width="76" height="4.5"/>
			<rect x="460.7" y="555.4" class="st25" width="76" height="4.5"/>
		</g>
		<g>
			<rect x="460.7" y="569.9" class="st25" width="76" height="4.5"/>
			<rect x="460.7" y="584.4" class="st25" width="76" height="4.5"/>
			<rect x="460.7" y="598.9" class="st25" width="76" height="4.5"/>
			<rect x="460.7" y="613.4" class="st25" width="76" height="4.5"/>
		</g>
		<g>
			<rect x="460.7" y="627.9" class="st25" width="76" height="4.5"/>
			<rect x="460.7" y="642.4" class="st25" width="76" height="4.5"/>
			<rect x="460.7" y="656.9" class="st25" width="76" height="4.5"/>
			<rect x="460.7" y="671.5" class="st25" width="76" height="4.5"/>
		</g>
		<g>
			<rect x="460.7" y="686" class="st25" width="76" height="4.5"/>
			<rect x="460.7" y="700.5" class="st25" width="76" height="4.5"/>
			<rect x="460.7" y="715" class="st25" width="76" height="4.5"/>
		</g>
		<g>
			<g>
				<polygon class="st25" points="578.9,404.4 545.7,400.7 545.7,396.2 578.9,400.7 				"/>
			</g>
			<g>
				<polygon class="st25" points="578.9,418.7 545.7,414.9 545.7,410.4 578.9,414.9 				"/>
			</g>
			<g>
				<polygon class="st25" points="578.9,433 545.7,429.2 545.7,424.7 578.9,429.2 				"/>
			</g>
			<g>
				<polygon class="st25" points="578.9,447.2 545.7,443.5 545.7,439 578.9,443.5 				"/>
			</g>
		</g>
		<g>
			<g>
				<polygon class="st25" points="578.9,462.5 545.7,458.7 545.7,454.2 578.9,458.7 				"/>
			</g>
			<g>
				<polygon class="st25" points="578.9,476.7 545.7,473 545.7,468.5 578.9,473 				"/>
			</g>
			<g>
				<polygon class="st25" points="578.9,491 545.7,487.2 545.7,482.7 578.9,487.2 				"/>
			</g>
			<g>
				<polygon class="st25" points="578.9,505.2 545.7,501.5 545.7,497 578.9,501.5 				"/>
			</g>
		</g>
		<g>
			<g>
				<polygon class="st25" points="578.9,520.5 545.7,516.8 545.7,512.2 578.9,516.8 				"/>
			</g>
			<g>
				<polygon class="st25" points="578.9,534.8 545.7,531 545.7,526.5 578.9,531 				"/>
			</g>
			<g>
				<polygon class="st25" points="578.9,549 545.7,545.3 545.7,540.8 578.9,545.3 				"/>
			</g>
			<g>
				<polygon class="st25" points="578.9,563.3 545.7,559.5 545.7,555 578.9,559.5 				"/>
			</g>
		</g>
		<g>
			<g>
				<polygon class="st25" points="578.9,578.5 545.7,574.8 545.7,570.3 578.9,574.8 				"/>
			</g>
			<g>
				<polygon class="st25" points="578.9,592.8 545.7,589 545.7,584.5 578.9,589 				"/>
			</g>
			<g>
				<polygon class="st25" points="578.9,607 545.7,603.3 545.7,598.8 578.9,603.3 				"/>
			</g>
			<g>
				<polygon class="st25" points="578.9,621.3 545.7,617.6 545.7,613 578.9,617.6 				"/>
			</g>
		</g>
		<g>
			<g>
				<polygon class="st25" points="578.9,636.6 545.7,632.8 545.7,628.3 578.9,632.8 				"/>
			</g>
			<g>
				<polygon class="st25" points="578.9,650.8 545.7,647.1 545.7,642.6 578.9,647.1 				"/>
			</g>
			<g>
				<polygon class="st25" points="578.9,665.1 545.7,661.3 545.7,656.8 578.9,661.3 				"/>
			</g>
			<g>
				<polygon class="st25" points="578.9,679.3 545.7,675.6 545.7,671.1 578.9,675.6 				"/>
			</g>
		</g>
		<g>
			<g>
				<polygon class="st25" points="578.9,694.6 545.7,690.8 545.7,686.3 578.9,690.8 				"/>
			</g>
			<g>
				<polygon class="st25" points="578.9,708.9 545.7,705.1 545.7,700.6 578.9,705.1 				"/>
			</g>
			<g>
				<polygon class="st25" points="578.9,723.1 545.7,719.4 545.7,714.9 578.9,719.4 				"/>
			</g>
		</g>
	</g>
	<g class="st6">
		<polygon class="st19" points="233.3,732 365.2,732 365.2,363.2 233.3,355.7 		"/>
		<polygon class="st19" points="410.8,732 365.2,732 365.2,364.3 410.8,371 		"/>
		<polygon class="st26" points="243.8,406.7 354.1,411.7 354.1,376 243.8,369.7 		"/>
		<polygon class="st26" points="243.8,454.2 354.1,459.2 354.1,423.4 243.8,417.2 		"/>
		<polygon class="st26" points="244.3,503.4 354.6,508.4 354.6,472.7 244.3,466.4 		"/>
		<polygon class="st26" points="243.8,555.4 354.1,560.4 354.1,524.7 243.8,518.4 		"/>
		<polygon class="st26" points="243.8,608.3 354.1,613.3 354.1,577.6 243.8,571.3 		"/>
		<polygon class="st26" points="243.8,659.8 354.1,664.8 354.1,629.1 243.8,622.8 		"/>
		<polygon class="st26" points="406.7,414.4 370.6,411.9 370.6,376.2 406.7,380.2 		"/>
		<g>
			<polygon class="st26" points="385.1,458.7 370.6,458.2 370.6,422.4 385,423.5 			"/>
			<polygon class="st26" points="406.6,460.1 392.1,459.5 392.1,423.7 406.5,424.9 			"/>
		</g>
		<g>
			<polygon class="st26" points="385.1,508.3 370.6,507.7 370.6,472 385,473.1 			"/>
			<polygon class="st26" points="406.6,509.7 392.1,509.1 392.1,473.3 406.5,474.5 			"/>
		</g>
		<g>
			<polygon class="st26" points="385.1,560.2 370.6,559.7 370.6,523.9 385,525 			"/>
			<polygon class="st26" points="406.6,561.6 392.1,561 392.1,525.2 406.5,526.4 			"/>
		</g>
		<g>
			<polygon class="st26" points="384.5,613.2 370,612.6 370,576.8 384.4,578 			"/>
			<polygon class="st26" points="406,614.5 391.5,613.9 391.5,578.2 405.9,579.3 			"/>
		</g>
		<g>
			<polygon class="st26" points="384.5,665 370,664.4 370,628.7 384.4,629.8 			"/>
			<polygon class="st26" points="406,666.3 391.5,665.7 391.5,630 405.9,631.1 			"/>
		</g>
	</g>
	<g class="st6">
		<polygon class="st14" points="320.7,731.5 226.7,731.5 226.7,376.9 320.7,381.5 		"/>
		<g>
			<g>
				<rect x="244.7" y="395" class="st16" width="10" height="10"/>
				<rect x="268.7" y="395" class="st16" width="10" height="10"/>
				<rect x="292.7" y="395" class="st16" width="10" height="10"/>
			</g>
			<g>
				<rect x="244.7" y="413.1" class="st16" width="10" height="10"/>
				<rect x="268.7" y="413.1" class="st16" width="10" height="10"/>
				<rect x="292.7" y="413.1" class="st16" width="10" height="10"/>
			</g>
			<g>
				<rect x="244.7" y="431.2" class="st16" width="10" height="10"/>
				<rect x="268.7" y="431.2" class="st16" width="10" height="10"/>
				<rect x="292.7" y="431.2" class="st16" width="10" height="10"/>
			</g>
			<g>
				<rect x="244.7" y="449.3" class="st16" width="10" height="10"/>
				<rect x="268.7" y="449.3" class="st16" width="10" height="10"/>
				<rect x="292.7" y="449.3" class="st16" width="10" height="10"/>
			</g>
			<g>
				<rect x="244.7" y="467.4" class="st16" width="10" height="10"/>
				<rect x="268.7" y="467.4" class="st16" width="10" height="10"/>
				<rect x="292.7" y="467.4" class="st16" width="10" height="10"/>
			</g>
			<g>
				<rect x="244.7" y="485.5" class="st16" width="10" height="10"/>
				<rect x="268.7" y="485.5" class="st16" width="10" height="10"/>
				<rect x="292.7" y="485.5" class="st16" width="10" height="10"/>
			</g>
		</g>
		<g>
			<g>
				<rect x="244.7" y="504.2" class="st16" width="10" height="10"/>
				<rect x="268.7" y="504.2" class="st16" width="10" height="10"/>
				<rect x="292.7" y="504.2" class="st16" width="10" height="10"/>
			</g>
			<g>
				<rect x="244.7" y="522.3" class="st16" width="10" height="10"/>
				<rect x="268.7" y="522.3" class="st16" width="10" height="10"/>
				<rect x="292.7" y="522.3" class="st16" width="10" height="10"/>
			</g>
			<g>
				<rect x="244.7" y="540.4" class="st16" width="10" height="10"/>
				<rect x="268.7" y="540.4" class="st16" width="10" height="10"/>
				<rect x="292.7" y="540.4" class="st16" width="10" height="10"/>
			</g>
			<g>
				<rect x="244.7" y="558.5" class="st16" width="10" height="10"/>
				<rect x="268.7" y="558.5" class="st16" width="10" height="10"/>
				<rect x="292.7" y="558.5" class="st16" width="10" height="10"/>
			</g>
			<g>
				<rect x="244.7" y="576.6" class="st16" width="10" height="10"/>
				<rect x="268.7" y="576.6" class="st16" width="10" height="10"/>
				<rect x="292.7" y="576.6" class="st16" width="10" height="10"/>
			</g>
			<g>
				<rect x="244.7" y="594.7" class="st16" width="10" height="10"/>
				<rect x="268.7" y="594.7" class="st16" width="10" height="10"/>
				<rect x="292.7" y="594.7" class="st16" width="10" height="10"/>
			</g>
		</g>
		<g>
			<g>
				<rect x="244.7" y="612.4" class="st16" width="10" height="10"/>
				<rect x="268.7" y="612.4" class="st16" width="10" height="10"/>
				<rect x="292.7" y="612.4" class="st16" width="10" height="10"/>
			</g>
			<g>
				<rect x="244.7" y="630.5" class="st16" width="10" height="10"/>
				<rect x="268.7" y="630.5" class="st16" width="10" height="10"/>
				<rect x="292.7" y="630.5" class="st16" width="10" height="10"/>
			</g>
			<g>
				<rect x="244.7" y="648.6" class="st16" width="10" height="10"/>
				<rect x="268.7" y="648.6" class="st16" width="10" height="10"/>
				<rect x="292.7" y="648.6" class="st16" width="10" height="10"/>
			</g>
			<g>
				<rect x="244.7" y="666.7" class="st16" width="10" height="10"/>
				<rect x="268.7" y="666.7" class="st16" width="10" height="10"/>
				<rect x="292.7" y="666.7" class="st16" width="10" height="10"/>
			</g>
			<g>
				<rect x="244.7" y="684.8" class="st16" width="10" height="10"/>
				<rect x="268.7" y="684.8" class="st16" width="10" height="10"/>
				<rect x="292.7" y="684.8" class="st16" width="10" height="10"/>
			</g>
			<g>
				<rect x="244.7" y="702.9" class="st16" width="10" height="10"/>
				<rect x="268.7" y="702.9" class="st16" width="10" height="10"/>
				<rect x="292.7" y="702.9" class="st16" width="10" height="10"/>
			</g>
		</g>
	</g>
	<polygon class="st27" points="320.7,731.5 440.3,727.9 440.3,366.2 320.7,381.5 	"/>
	<g class="st6">
		<polygon class="st16" points="418.3,392.1 428.4,390.9 428.6,380.9 418.6,382.4 		"/>
		<polygon class="st16" points="396.8,395.5 406.9,394.3 407.1,384.3 397.1,385.8 		"/>
		<polygon class="st16" points="375.3,398.6 385.4,397.4 385.6,387.4 375.6,388.8 		"/>
		<polygon class="st16" points="353.8,401.9 363.8,400.7 364.1,390.7 354.1,392.1 		"/>
		<polygon class="st16" points="332.3,405.3 342.3,404.1 342.6,394.1 332.5,395.5 		"/>
	</g>
	<g class="st6">
		<polygon class="st16" points="418.3,409 428.3,407.7 428.5,397.7 418.5,399.2 		"/>
		<polygon class="st16" points="396.8,412.6 406.9,411.3 407,401.3 397,402.8 		"/>
		<polygon class="st16" points="375.4,415.8 385.4,414.5 385.6,404.5 375.5,406.1 		"/>
		<polygon class="st16" points="353.9,419.3 363.9,418 364.1,408 354.1,409.6 		"/>
		<polygon class="st16" points="332.4,422.9 342.4,421.6 342.6,411.6 332.6,413.2 		"/>
	</g>
	<g class="st6">
		<polygon class="st16" points="414.9,444.9 424.9,443.4 424.9,433.4 414.9,435.1 		"/>
		<polygon class="st16" points="393.5,448.8 403.5,447.4 403.5,437.4 393.5,439.1 		"/>
		<polygon class="st16" points="372,452.5 382,451 382,441 372,442.7 		"/>
		<polygon class="st16" points="350.6,456.3 360.6,454.9 360.6,444.9 350.6,446.6 		"/>
		<polygon class="st16" points="329.2,460.3 339.2,458.8 339.2,448.8 329.2,450.6 		"/>
	</g>
	<g class="st6">
		<polygon class="st16" points="414.9,462.6 424.9,461.1 424.9,451.1 414.9,452.9 		"/>
		<polygon class="st16" points="393.5,466.6 403.5,465.1 403.5,455.1 393.5,456.8 		"/>
		<polygon class="st16" points="372.1,470.2 382.1,468.7 382.1,458.7 372.1,460.5 		"/>
		<polygon class="st16" points="350.7,474.1 360.7,472.6 360.7,462.6 350.7,464.3 		"/>
		<polygon class="st16" points="329.2,478.1 339.2,476.6 339.2,466.6 329.2,468.3 		"/>
	</g>
	<g class="st6">
		<polygon class="st16" points="415,480 425,478.5 425,468.5 415,470.2 		"/>
		<polygon class="st16" points="393.6,484 403.6,482.5 403.6,472.5 393.6,474.2 		"/>
		<polygon class="st16" points="372.2,487.6 382.2,486.1 382.2,476.1 372.2,477.8 		"/>
		<polygon class="st16" points="350.7,491.5 360.7,490 360.7,480 350.7,481.7 		"/>
		<polygon class="st16" points="329.3,495.4 339.3,494 339.3,484 329.3,485.7 		"/>
	</g>
	<g class="st6">
		<polygon class="st16" points="415,497.9 425,496.5 425,486.5 415,488.2 		"/>
		<polygon class="st16" points="393.5,501.9 403.5,500.4 403.5,490.4 393.5,492.1 		"/>
		<polygon class="st16" points="372.1,505.5 382.1,504 382.1,494 372.1,495.8 		"/>
		<polygon class="st16" points="350.7,509.4 360.7,507.9 360.7,497.9 350.7,499.6 		"/>
		<polygon class="st16" points="329.3,513.4 339.3,511.9 339.3,501.9 329.3,503.6 		"/>
	</g>
	<g class="st6">
		<polygon class="st16" points="415,517.1 425,515.6 425,505.6 415,507.4 		"/>
		<polygon class="st16" points="393.6,521.1 403.6,519.6 403.6,509.6 393.6,511.3 		"/>
		<polygon class="st16" points="372.2,524.7 382.2,523.2 382.2,513.2 372.2,515 		"/>
		<polygon class="st16" points="350.8,528.6 360.8,527.1 360.8,517.1 350.8,518.8 		"/>
		<polygon class="st16" points="329.4,532.6 339.4,531.1 339.4,521.1 329.4,522.8 		"/>
	</g>
	<g class="st6">
		<polygon class="st16" points="414.6,534.8 424.6,533.4 424.6,523.4 414.6,525.1 		"/>
		<polygon class="st16" points="393.2,538.8 403.2,537.3 403.2,527.3 393.2,529.1 		"/>
		<polygon class="st16" points="371.7,542.4 381.7,541 381.7,531 371.7,532.7 		"/>
		<polygon class="st16" points="350.3,546.3 360.3,544.8 360.3,534.8 350.3,536.6 		"/>
		<polygon class="st16" points="328.9,550.3 338.9,548.8 338.9,538.8 328.9,540.5 		"/>
	</g>
	<g class="st6">
		<polygon class="st16" points="414.6,553.8 424.6,552.3 424.6,542.3 414.6,544.1 		"/>
		<polygon class="st16" points="393.2,557.8 403.2,556.3 403.2,546.3 393.2,548 		"/>
		<polygon class="st16" points="371.8,561.4 381.8,559.9 381.8,549.9 371.8,551.7 		"/>
		<polygon class="st16" points="350.4,565.3 360.4,563.8 360.4,553.8 350.4,555.5 		"/>
		<polygon class="st16" points="329,569.3 339,567.8 339,557.8 329,559.5 		"/>
	</g>
	<g class="st6">
		<polygon class="st16" points="414.7,571 424.7,569.6 424.7,559.6 414.7,561.3 		"/>
		<polygon class="st16" points="393.3,575 403.3,573.5 403.3,563.5 393.3,565.3 		"/>
		<polygon class="st16" points="371.8,578.6 381.8,577.2 381.8,567.2 371.8,568.9 		"/>
		<polygon class="st16" points="350.4,582.5 360.4,581 360.4,571 350.4,572.8 		"/>
		<polygon class="st16" points="329,586.5 339,585 339,575 329,576.7 		"/>
	</g>
	<g class="st6">
		<polygon class="st16" points="414.7,589.2 424.7,587.7 424.7,577.7 414.7,579.5 		"/>
		<polygon class="st16" points="393.3,593.2 403.3,591.7 403.3,581.7 393.3,583.4 		"/>
		<polygon class="st16" points="371.9,596.8 381.9,595.3 381.9,585.3 371.9,587.1 		"/>
		<polygon class="st16" points="350.5,600.7 360.5,599.2 360.5,589.2 350.5,590.9 		"/>
		<polygon class="st16" points="329,604.7 339,603.2 339,593.2 329,594.9 		"/>
	</g>
	<g class="st6">
		<polygon class="st16" points="414.8,608.1 424.8,606.6 424.8,596.6 414.8,598.4 		"/>
		<polygon class="st16" points="393.3,612.1 403.3,610.6 403.3,600.6 393.3,602.3 		"/>
		<polygon class="st16" points="371.9,615.7 381.9,614.2 381.9,604.2 371.9,606 		"/>
		<polygon class="st16" points="350.5,619.6 360.5,618.1 360.5,608.1 350.5,609.8 		"/>
		<polygon class="st16" points="329.1,623.6 339.1,622.1 339.1,612.1 329.1,613.8 		"/>
	</g>
	<g class="st6">
		<polygon class="st16" points="414.8,624.9 424.8,623.4 424.8,613.4 414.8,615.1 		"/>
		<polygon class="st16" points="393.4,628.9 403.4,627.4 403.4,617.4 393.4,619.1 		"/>
		<polygon class="st16" points="372,632.5 382,631 382,621 372,622.7 		"/>
		<polygon class="st16" points="350.5,636.4 360.5,634.9 360.5,624.9 350.5,626.6 		"/>
		<polygon class="st16" points="329.1,640.3 339.1,638.9 339.1,628.9 329.1,630.6 		"/>
	</g>
	<g class="st6">
		<polygon class="st16" points="414.8,642.7 424.8,641.2 424.8,631.2 414.8,633 		"/>
		<polygon class="st16" points="393.4,646.7 403.4,645.2 403.4,635.2 393.4,636.9 		"/>
		<polygon class="st16" points="372,650.3 382,648.8 382,638.8 372,640.6 		"/>
		<polygon class="st16" points="350.6,654.2 360.6,652.7 360.6,642.7 350.6,644.4 		"/>
		<polygon class="st16" points="329.2,658.1 339.2,656.7 339.2,646.7 329.2,648.4 		"/>
	</g>
	<g class="st6">
		<polygon class="st16" points="414.9,661.9 424.9,660.4 424.9,650.4 414.9,652.2 		"/>
		<polygon class="st16" points="393.5,665.9 403.5,664.4 403.5,654.4 393.5,656.1 		"/>
		<polygon class="st16" points="372,669.5 382,668 382,658 372,659.8 		"/>
		<polygon class="st16" points="350.6,673.4 360.6,671.9 360.6,661.9 350.6,663.6 		"/>
		<polygon class="st16" points="329.2,677.4 339.2,675.9 339.2,665.9 329.2,667.6 		"/>
	</g>
	<g class="st6">
		<polygon class="st16" points="414.9,679.4 424.9,677.9 424.9,667.9 414.9,669.6 		"/>
		<polygon class="st16" points="393.5,683.3 403.5,681.9 403.5,671.9 393.5,673.6 		"/>
		<polygon class="st16" points="372.1,687 382.1,685.5 382.1,675.5 372.1,677.2 		"/>
		<polygon class="st16" points="350.7,690.8 360.7,689.4 360.7,679.4 350.7,681.1 		"/>
		<polygon class="st16" points="329.3,694.8 339.3,693.3 339.3,683.3 329.3,685.1 		"/>
	</g>
	<g class="st6">
		<polygon class="st16" points="415,698.5 425,697 425,687 415,688.7 		"/>
		<polygon class="st16" points="393.6,702.5 403.6,701 403.6,691 393.6,692.7 		"/>
		<polygon class="st16" points="372.1,706.1 382.1,704.6 382.1,694.6 372.1,696.3 		"/>
		<polygon class="st16" points="350.7,710 360.7,708.5 360.7,698.5 350.7,700.2 		"/>
		<polygon class="st16" points="329.3,713.9 339.3,712.5 339.3,702.5 329.3,704.2 		"/>
	</g>
	<g class="st6">
		<polygon class="st16" points="414.5,716.4 424.5,715 424.5,705 414.5,706.7 		"/>
		<polygon class="st16" points="393.1,720.4 403.1,718.9 403.1,708.9 393.1,710.7 		"/>
		<polygon class="st16" points="371.7,724 381.7,722.6 381.7,712.6 371.7,714.3 		"/>
		<polygon class="st16" points="350.3,727.9 360.3,726.4 360.3,716.4 350.3,718.2 		"/>
		<polygon class="st16" points="328.9,731.9 338.9,730.4 338.9,720.4 328.9,722.1 		"/>
	</g>
</g>
<g id="Layer_11">
	<path class="st28" d="M733.3,374.6v-37.9l-61-0.3v36l-23,3v-75.3h-33v100.5l-11-0.7v-44.8c0,0-26-18-53-0.4V373h-16v-37h-14v-7h-12
		v-8h-29v8h-15v7.5l-22-0.1v-32.2l-19.7-8.9l-12.4,4.7h-28.8v37.2l-8-0.2v20.2h-4V355c0,0-24-17.6-51-0.9v-11l-17,11V336h-14v-7h-12
		v-8h-29v8h-15v8h-14v28h-8v-60.8l-19.9-8.7l-20.1,7.9v34.3l-29-0.7v20.2l-29,0.4v11.6l-27-0.4v-25.6l-17.6,11.9l-19.4-0.4V461
		h233.2h218.6h233.2L733.3,374.6z"/>
</g>
<path class="st3" d="M581.5,165.5c4.9-2.6,8.1-7.4,8.1-12.9c0-8.3-7.2-14.9-16.2-14.9c-0.9,0-1.7,0.1-2.6,0.2
	c-4.4-8.5-13.8-14.4-24.7-14.4c-10.2,0-19,5.1-23.8,12.7c-3-5-8.8-8.6-15.5-8.6c-8,0-14.7,4.9-16.9,11.5c-2.2-2.4-5.5-3.9-9.1-3.9
	c-2.9,0-5.5,1-7.6,2.5c-3.4-8.3-12.2-14.3-22.4-14.3c-13.2,0-23.9,9.9-23.9,22c0,0.3,0,0.7,0,1c-1.8-0.6-3.8-1-5.9-1
	c-8.7,0-15.8,6.5-15.8,14.5c0,2.6,1,5,2.3,7.2c-4.6,1-8,4.8-8,9.4v3.9c0,5.3,4.4,9.6,10.1,9.6h175.6c5.7,0,10.1-4.3,10.1-9.6v-3.9
	C595.3,165.4,581.9,165.9,581.5,165.5z"/>
<g id="Layer_10">
	<path class="st29" d="M70.3,357.5v-40.3l50-0.3v38.3l19,3.1V279h28v106.1l9-0.8v-47.6c0,0,22-19.2,45-0.4v19.6h13v-40h12v-7h9v-8
		h25v8h12v9h12v30h6v-65.3l16.9-9.2l17.1,8.4v36.4l24-0.8v21.5l24,0.4v12.3l23-0.4v-27l14.7,12.7l16.3-0.4v112.6h-377L70.3,357.5z"
		/>
	<path class="st29" d="M429.3,352.5v-40.3l50-0.3v38.3l19,3.1V274h28v106.1l9-0.8v-47.6c0,0,22-19.2,45-0.4v19.6h13v-40h12v-7h9v-8
		h25v8h12v9h12v30h6v-65.3l16.9-9.2l17.1,8.4v36.4l24-0.8v21.5l24,0.4v12.3l23-0.4v-27l14.7,12.7l16.3-0.4v112.6h-377L429.3,352.5z"
		/>
</g>
<g id="Layer_9">
	<polygon class="st30" points="357.3,377.1 311.3,373.8 311.3,266.2 357.3,276.9 	"/>
	<polygon class="st30" points="610.3,299.5 651.3,291.2 651.3,266.1 610.3,276.1 	"/>
	<polygon class="st31" points="381.3,612 494.3,670.9 494.3,170.9 381.3,229.9 	"/>
	<polygon class="st32" points="349.3,373.9 318.3,371.6 318.3,336.6 349.3,340.5 	"/>
	<polygon class="st31" points="311.3,575.4 381.3,612 381.3,359.7 311.3,371.4 	"/>
	<polygon class="st31" points="311.3,575.4 257.3,547.5 257.3,294.1 311.3,266.2 	"/>
	<polygon class="st30" points="642.3,276.3 660.3,272.3 660.3,258.3 642.3,262.6 	"/>
	<polygon class="st31" points="607.3,612 494.3,670.9 494.3,170.9 607.3,229.7 	"/>
	<polygon class="st31" points="651.3,589.1 607.3,611.8 607.3,268.1 651.3,286.3 	"/>
	<polygon class="st31" points="707.3,560.4 651.3,589.1 651.3,266.1 707.3,293.1 	"/>
	<polygon class="st30" points="244.3,433.9 177.3,435.1 177.3,336 244.3,343.1 	"/>
	<polygon class="st32" points="238.3,420.2 183.3,420.1 183.3,416.2 238.3,416.6 	"/>
	<polygon class="st32" points="238.3,406.2 183.3,405.1 183.3,400.5 238.3,401.9 	"/>
	<polygon class="st31" points="214.3,524.2 256.3,545.9 256.3,395.9 214.3,400.2 	"/>
	<polygon class="st31" points="177.3,505.6 215.3,524.7 215.3,431.2 177.3,429.3 	"/>
	<polygon class="st31" points="140.3,355.1 140.3,355.3 114.3,368.8 114.3,473 140.3,486.5 177.3,505.6 177.3,336 	"/>
	<polygon class="st30" points="114.3,473 65.3,447.5 65.3,396.4 114.3,397.7 	"/>
	<polygon class="st31" points="114.3,473 65.3,447.5 65.3,420.2 114.3,419.5 	"/>
	<polygon class="st31" points="46.3,405.7 65.3,396.4 65.3,447.5 46.3,437.4 	"/>
	<polygon class="st33" points="16.3,434.2 400.6,719.6 494.3,670.9 39.3,433.9 	"/>
	<polygon class="st33" points="494.3,789.2 400.6,719.6 840.3,490.3 838.8,571.9 	"/>
	<polygon class="st34" points="16.2,440.1 494.5,810.2 494.3,789.2 16.2,434.2 	"/>
	<polygon class="st34" points="494.2,810.2 838.3,577.6 838.3,571.9 493.9,789.2 	"/>
	<polygon class="st32" points="605.3,290.2 504.3,254.4 504.3,246.8 605.3,284.2 	"/>
	<polygon class="st32" points="605.3,313.3 504.3,283.8 504.3,275.2 605.3,306.5 	"/>
	<polygon class="st32" points="605.3,336 504.3,312.7 504.3,305.2 605.3,330.1 	"/>
	<polygon class="st32" points="605.3,359.4 504.3,342.5 504.3,336 605.3,354.2 	"/>
	<polygon class="st32" points="605.3,382.4 504.3,371.9 504.3,365.6 605.3,377.5 	"/>
	<polygon class="st32" points="605.3,405.5 504.3,401.3 504.3,390.6 605.3,397.1 	"/>
	<polygon class="st32" points="605.3,427.6 504.3,429.5 504.3,421.1 605.3,421.1 	"/>
	<polygon class="st32" points="605.3,451.6 504.3,460 504.3,451.2 605.3,444.7 	"/>
	<polygon class="st32" points="605.3,474.7 504.3,489.4 504.3,480.6 605.3,467.7 	"/>
	<polygon class="st32" points="605.3,497.8 504.3,518.8 504.3,509.2 605.3,490.2 	"/>
	<polygon class="st32" points="605.3,520.8 504.3,548.2 504.3,541.9 605.3,515.9 	"/>
	<polygon class="st32" points="605.3,543.9 504.3,577.5 504.3,566.6 605.3,535.3 	"/>
	<polygon class="st32" points="605.3,566.9 504.3,606.9 504.3,598.6 605.3,560.4 	"/>
	<polygon class="st32" points="605.3,589.1 504.3,635.2 504.3,627.2 605.3,582.9 	"/>
	<polygon class="st32" points="605.3,261.2 504.3,217.5 504.3,225 605.3,267.1 	"/>
	<polygon class="st32" points="605.3,242.3 504.3,193.5 504.3,186.6 605.3,236.9 	"/>
	<polygon class="st32" points="387.3,242.3 483.3,196.1 483.3,186.6 387.3,234.8 	"/>
	<polygon class="st32" points="483.3,225.5 387.3,265.5 387.3,257.2 483.3,215.1 	"/>
	<polygon class="st32" points="483.3,251.9 387.3,286.5 387.3,279.9 483.3,243.6 	"/>
	<polygon class="st32" points="483.3,282.8 387.3,311.1 387.3,305.2 483.3,275.5 	"/>
	<polygon class="st32" points="483.3,311.1 387.3,333.6 387.3,327.2 483.3,303.1 	"/>
	<polygon class="st32" points="483.3,342.7 387.3,358.7 387.3,352.6 483.3,335 	"/>
	<polygon class="st32" points="483.3,372 387.3,382 387.3,377.1 483.3,365.8 	"/>
	<polygon class="st32" points="483.3,401.3 387.3,405.3 387.3,398 483.3,392.2 	"/>
	<polygon class="st32" points="483.3,430.7 387.3,428.7 387.3,421.1 483.3,421.1 	"/>
	<polygon class="st32" points="483.3,460 387.3,452 387.3,444.7 483.3,450.8 	"/>
	<polygon class="st32" points="483.3,490.2 387.3,476 387.3,470.9 483.3,483.7 	"/>
	<polygon class="st32" points="483.3,518.6 387.3,498.6 387.3,490.2 483.3,508.1 	"/>
	<polygon class="st32" points="483.3,547.9 387.3,521.9 387.3,515.9 483.3,540.3 	"/>
	<polygon class="st32" points="483.3,577.2 387.3,545.2 387.3,539.2 483.3,569.7 	"/>
	<polygon class="st32" points="483.3,606.5 387.3,568.5 387.3,562.3 483.3,598.7 	"/>
	<polygon class="st32" points="483.3,635.2 387.3,591.3 387.3,582.9 483.3,624.6 	"/>
	<polygon class="st32" points="278.3,327.2 263.3,332.7 263.3,301.6 278.3,294.2 	"/>
	<polygon class="st32" points="303.3,318.3 284.3,325 284.3,291.5 303.3,282.6 	"/>
	<polygon class="st32" points="278.3,376.9 263.3,379.4 263.3,348.3 278.3,343.9 	"/>
	<polygon class="st32" points="303.3,372.7 284.3,375.9 284.3,342.1 303.3,336.6 	"/>
	<polygon class="st32" points="278.3,426.4 263.3,426.1 263.3,394.9 278.3,393.4 	"/>
	<polygon class="st32" points="303.3,426.9 284.3,426.5 284.3,393.4 303.3,391.5 	"/>
	<polygon class="st32" points="349.3,320.6 318.3,315.6 318.3,282.6 349.3,289.1 	"/>
	<polygon class="st32" points="278.3,475.9 263.3,472.8 263.3,441.6 278.3,442.9 	"/>
	<polygon class="st32" points="303.3,481 284.3,477.1 284.3,443.4 303.3,444.9 	"/>
	<polygon class="st32" points="278.3,525.4 263.3,519.4 263.3,488.3 278.3,492.4 	"/>
	<polygon class="st32" points="303.3,535.1 284.3,527.8 284.3,494 303.3,499.1 	"/>
	<polygon class="st32" points="337.3,447.8 319.3,446.3 319.3,389.7 337.3,387.9 	"/>
	<polygon class="st32" points="369.3,450.4 347.3,448.6 347.3,386.2 369.3,383.9 	"/>
	<polygon class="st32" points="337.3,528.5 319.3,522.5 319.3,465.3 337.3,468 	"/>
	<polygon class="st31" points="700.3,278.8 660.3,258.4 660.8,271.3 699.8,289.5 	"/>
	<polygon class="st32" points="369.3,539.1 347.3,531.8 347.3,469.4 369.3,472.6 	"/>
	<polygon class="st35" points="669.8,579.1 660.8,584 660.3,258.4 669.8,294.2 	"/>
	<polygon class="st35" points="685.8,571.3 677.8,575.4 677.8,267.3 685.8,271.4 	"/>
	<polygon class="st35" points="699.8,563.6 692.8,567.3 692.8,303.6 700.3,278.8 	"/>
	<path class="st35" d="M641.4,323.8c0,11.5-4.6,19.7-10.5,18.4c-6.1-1.4-11.2-12.5-11.2-24.7c0-12.2,5.1-20.4,11.2-18.2
		C636.8,301.3,641.4,312.3,641.4,323.8z"/>
	<path class="st35" d="M641.4,386.2c0,11.5-4.6,20.6-10.5,20.4c-6.1-0.3-11.2-10.4-11.2-22.6s5.1-21.3,11.2-20.3
		C636.8,364.6,641.4,374.7,641.4,386.2z"/>
	<path class="st35" d="M641.4,448.6c0,11.5-4.6,21.5-10.5,22.3c-6.1,0.9-11.2-8.3-11.2-20.5s5.1-22.3,11.2-22.4
		C636.8,427.9,641.4,437.1,641.4,448.6z"/>
	<polygon class="st30" points="710.3,416.2 734.3,416.1 734.3,320.6 710.3,324 	"/>
	<path class="st35" d="M641.4,511c0,11.5-4.6,22.3-10.5,24.3c-6.1,2-11.2-6.2-11.2-18.4c0-12.2,5.1-23.2,11.2-24.5
		C636.8,491.2,641.4,499.5,641.4,511z"/>
	<path class="st35" d="M641.4,572.6c0,11.5-4.6,23.2-10.5,26.3c-6.1,3.2-11.2-4.1-11.2-16.4s5.1-24.2,11.2-26.6
		C636.8,553.6,641.4,561.1,641.4,572.6z"/>
	<polygon class="st31" points="713.6,410.1 719.3,410 719.3,410.3 725.3,410.5 725.3,379.4 719.3,378.4 713.3,378.7 713.3,410.1 
		707.3,409.9 707.3,560.4 734.3,545.9 734.3,410.9 	"/>
	<polygon class="st35" points="730.8,441.2 713.8,442.6 713.8,426.3 730.8,425.9 	"/>
	<polygon class="st35" points="730.8,471 713.8,474.5 713.8,460 730.8,457.5 	"/>
	<polygon class="st35" points="730.8,502 713.8,507.9 713.8,491.5 730.8,486.8 	"/>
	<polygon class="st35" points="730.8,532.4 713.8,540.5 713.8,524.2 730.8,517.2 	"/>
	<polygon class="st32" points="172.3,358.7 118.3,379.8 118.3,373.9 172.3,349.8 	"/>
	<polygon class="st32" points="172.3,373.9 118.3,390 118.3,385.5 172.3,367.2 	"/>
	<polygon class="st32" points="172.3,390 118.3,400.5 118.3,395.9 172.3,382.9 	"/>
	<polygon class="st32" points="172.3,406.9 118.3,411.7 118.3,407.6 172.3,400.6 	"/>
	<polygon class="st32" points="172.3,421.9 118.3,421.6 118.3,417.8 172.3,416.2 	"/>
	<polygon class="st32" points="172.3,440 118.3,433.4 118.3,429.5 172.3,434 	"/>
	<polygon class="st32" points="172.3,458.8 118.3,445.8 118.3,441.6 172.3,452.4 	"/>
	<polygon class="st32" points="172.3,475.9 118.3,457.1 118.3,452.3 172.3,468.7 	"/>
	<polygon class="st32" points="172.3,494 118.3,469 118.3,464.1 172.3,486.6 	"/>
	<polygon class="st32" points="238.3,361.6 183.3,357.2 183.3,349.8 238.3,354.7 	"/>
	<polygon class="st32" points="238.3,375.9 183.3,372.5 183.3,365.8 238.3,369.6 	"/>
	<polygon class="st32" points="238.3,391.5 183.3,389.3 183.3,382.9 238.3,385.5 	"/>
	<polygon class="st32" points="225.3,414.4 218.3,414.6 218.3,407.6 225.3,407.1 	"/>
	<polygon class="st32" points="238.3,414.5 230.3,414.7 230.3,407.1 238.3,406.6 	"/>
	<polygon class="st32" points="252.3,414.6 244.3,414.8 244.3,406.6 252.3,406.1 	"/>
	<polygon class="st32" points="225.3,426.4 218.3,426.2 218.3,420.2 225.3,420.1 	"/>
	<polygon class="st32" points="238.3,426.7 230.3,426.5 230.3,420.2 238.3,420.2 	"/>
	<polygon class="st32" points="252.3,427.1 244.3,426.9 244.3,420.2 252.3,420.2 	"/>
	<polygon class="st32" points="225.3,439.6 218.3,438.9 218.3,432.6 225.3,433 	"/>
	<polygon class="st32" points="238.3,440.6 230.3,439.9 230.3,432.6 238.3,433 	"/>
	<polygon class="st32" points="252.3,441.8 244.3,441.1 244.3,432.6 252.3,433 	"/>
	<polygon class="st32" points="225.3,453.7 218.3,452.6 218.3,445.4 225.3,446.2 	"/>
	<polygon class="st32" points="238.3,456.1 230.3,454.8 230.3,446.9 238.3,447.9 	"/>
	<polygon class="st32" points="252.3,458.3 244.3,457 244.3,448.4 252.3,449.3 	"/>
	<polygon class="st32" points="225.3,466.7 218.3,465.2 218.3,458.3 225.3,459.5 	"/>
	<polygon class="st32" points="238.3,468.7 230.3,467 230.3,459.9 238.3,461.3 	"/>
	<polygon class="st32" points="252.3,470.9 244.3,469.2 244.3,462.2 252.3,463.6 	"/>
	<polygon class="st32" points="225.3,479.9 218.3,477.9 218.3,470.9 225.3,472.6 	"/>
	<polygon class="st32" points="238.3,483.5 230.3,481.3 230.3,473.7 238.3,475.7 	"/>
	<polygon class="st32" points="252.3,487.4 244.3,485.2 244.3,475.9 252.3,477.8 	"/>
	<polygon class="st32" points="225.3,494 218.3,491.6 218.3,485.1 225.3,487.3 	"/>
	<polygon class="st32" points="238.3,498.5 230.3,495.7 230.3,488.3 238.3,490.8 	"/>
	<polygon class="st32" points="252.3,503.4 244.3,500.6 244.3,491.9 252.3,494.4 	"/>
	<polygon class="st32" points="225.3,508.6 218.3,505.7 218.3,498.5 225.3,501.2 	"/>
	<polygon class="st32" points="238.3,513.9 230.3,510.3 230.3,503.6 238.3,506.9 	"/>
	<polygon class="st32" points="252.3,518.6 244.3,515.4 244.3,506.8 252.3,509.8 	"/>
	<polygon class="st32" points="191.3,445.4 181.3,444 181.3,433.9 191.3,434.7 	"/>
	<polygon class="st32" points="209.3,446.9 197.3,445.3 197.3,434.7 209.3,435.7 	"/>
	<polygon class="st32" points="191.3,462.2 181.3,459.9 181.3,450.2 191.3,451.9 	"/>
	<polygon class="st32" points="209.3,466.5 197.3,463.7 197.3,452.3 209.3,454.4 	"/>
	<polygon class="st32" points="191.3,479.9 181.3,476.6 181.3,466.7 191.3,469.5 	"/>
	<polygon class="st32" points="209.3,485.1 197.3,481.1 197.3,470.9 209.3,474.2 	"/>
	<polygon class="st32" points="191.3,498.5 181.3,494.1 181.3,485.1 191.3,488.9 	"/>
	<polygon class="st32" points="209.3,505.6 197.3,500.4 197.3,490.2 209.3,494.8 	"/>
	<polygon class="st32" points="52.3,416.2 48.3,416.8 48.3,407.2 52.3,405.5 	"/>
	<polygon class="st32" points="62.3,415.1 57.3,415.7 57.3,405.5 62.3,403.7 	"/>
	<polygon class="st32" points="52.3,432.2 48.3,431 48.3,421.1 52.3,421.1 	"/>
	<polygon class="st32" points="62.3,435.2 57.3,433.7 57.3,421.1 62.3,421.1 	"/>
	<polygon class="st32" points="83.3,415.7 71.3,415.6 71.3,403.7 83.3,403.9 	"/>
	<polygon class="st32" points="108.3,415.7 95.3,415.6 95.3,403.7 108.3,403.9 	"/>
	<polygon class="st32" points="70.3,428.1 110.3,433.4 110.3,423.9 70.3,422.6 	"/>
	<polygon class="st36" points="755.8,397.4 808.8,395.7 808.8,313.5 755.8,320.6 	"/>
	<polygon class="st32" points="90.3,460.5 83.3,456.8 83.3,434.7 90.3,436.2 	"/>
	<polygon class="st32" points="80.3,444.2 70.3,441 70.3,432.7 80.3,434.8 	"/>
	<polygon class="st32" points="109.3,452.6 93.3,447.8 93.3,438.7 109.3,441.9 	"/>
	<polygon class="st31" points="809.3,506.8 734.3,545.9 734.3,320.6 809.3,395.9 	"/>
	<polygon class="st31" points="840.3,490.3 809.3,507 809.3,314 840.3,332.9 	"/>
	<polygon class="st35" points="799.8,395.6 739.8,387 739.8,339.9 	"/>
	<polygon class="st35" points="759.8,421.4 739.8,421.4 739.8,395.6 759.8,397.7 	"/>
	<polygon class="st35" points="783.8,421.4 765.8,421.4 765.8,398 783.8,400 	"/>
	<polygon class="st35" points="803.8,421.2 789.8,421.2 789.8,401.2 803.8,402.8 	"/>
	<polygon class="st35" points="789.8,516.9 759.8,532.5 759.8,440.5 789.8,437.8 	"/>
	<g>
		<polygon class="st35" points="838.8,339.9 809.8,322.6 809.8,320.6 838.8,338.2 		"/>
		<polygon class="st35" points="838.8,347.7 809.8,332.1 809.8,328.6 838.8,344.8 		"/>
		<polygon class="st35" points="838.8,355.6 809.8,341.4 809.8,338.1 838.8,352.9 		"/>
		<polygon class="st35" points="838.8,362.2 809.8,349.5 809.8,346.8 838.8,360 		"/>
		<polygon class="st35" points="838.8,367.7 809.8,356.4 809.8,352.9 838.8,364.8 		"/>
		<polygon class="st35" points="838.8,374 809.8,363.9 809.8,360.3 838.8,371.1 		"/>
		<polygon class="st35" points="838.8,382.4 809.8,374.1 809.8,369.6 838.8,378.7 		"/>
		<polygon class="st35" points="838.8,389.2 809.8,382.5 809.8,378.4 838.8,385.9 		"/>
		<polygon class="st35" points="838.8,393.6 809.8,387.7 809.8,385.1 838.8,391.4 		"/>
		<polygon class="st35" points="838.8,401.2 809.8,397 809.8,393.6 838.8,398.4 		"/>
		<polygon class="st35" points="838.8,408.5 809.8,405.8 809.8,401.2 838.8,404.7 		"/>
		<polygon class="st35" points="838.8,413.6 809.8,412 809.8,408.9 838.8,411 		"/>
		<polygon class="st35" points="838.8,420.6 809.8,420.6 809.8,416.2 838.8,417.1 		"/>
		<polygon class="st35" points="838.8,428 809.8,429.6 809.8,425.3 838.8,424.5 		"/>
		<polygon class="st35" points="838.8,435.9 809.8,439.1 809.8,434.3 838.8,431.9 		"/>
		<polygon class="st35" points="838.8,442.6 809.8,447.3 809.8,444.7 838.8,440.5 		"/>
		<polygon class="st35" points="838.8,450.9 809.8,457.3 809.8,452.4 838.8,446.8 		"/>
		<polygon class="st35" points="838.8,460 809.8,468.5 809.8,463.2 838.8,455.7 		"/>
		<polygon class="st35" points="838.8,468.5 809.8,478.9 809.8,474.5 838.8,465 		"/>
		<polygon class="st35" points="838.8,474.5 809.8,486 809.8,483.2 838.8,472.2 		"/>
		<polygon class="st35" points="838.8,483.2 809.8,496.4 809.8,492.3 838.8,479.8 		"/>
	</g>
</g>
<g id="Trees" class="st0">
	<g class="st6">
		<g>
			<path class="st37" d="M663.7,526.9l8.9,1.2c0.2-1.4,0.3-2.6,0.5-3.7l-8.6-0.8C664.2,524.8,664,525.9,663.7,526.9z"/>
			<path class="st37" d="M662.1,534.6l9.6,1.4c0.2-2.2,0.4-4.3,0.7-6.2l-9.1-1.1C662.9,530.7,662.5,532.7,662.1,534.6z"/>
			<path class="st37" d="M657,567.8c-0.4,4.3-0.7,8.4-0.9,12.2c3.8,0.7,9.5,1.4,13.6,1.9c-0.1-4.2,0-8.3,0-12.2L657,567.8z"/>
			<path class="st37" d="M671.1,542.6c0.2-2,0.3-3.9,0.5-5.6l-9.7-1.4c-0.4,2.1-0.8,4.1-1.2,6.1L671.1,542.6z"/>
			<path class="st37" d="M669.7,583.6l-13.6-2.3c-0.1,2.6-0.1,5.1-0.1,7.4l13.9,2.1C669.8,588.4,669.8,586,669.7,583.6z"/>
			<path class="st37" d="M658.6,554.7c3.3,0.4,7.9,0.9,11.6,1.4c0.2-4.3,0.5-8.3,0.8-12.1l-10.6-0.8
				C659.7,547.2,659.1,551.1,658.6,554.7z"/>
			<path class="st37" d="M671.1,609.4l-13.4,0.8c1.1,6.2,2.6,10.8,3.9,13.8h11.1C672.1,619.1,671.6,614.2,671.1,609.4z"/>
			<path class="st37" d="M673.2,523.3c0.5-3.4,0.8-5.2,0.8-5.2h-8.2c-0.4,2-0.7,3-1.1,4.5L673.2,523.3z"/>
			<path class="st37" d="M669.8,568.2c0.1-3.6,0.2-7,0.4-10.3l-11.7-1.9c-0.5,3.6-0.9,7.1-1.3,10.4L669.8,568.2z"/>
			<path class="st37" d="M662.6,626.1c1.4,3,2.5,4,2.5,4h8.6c-0.2-1-0.4-3-0.6-4H662.6z"/>
			<path class="st37" d="M670.5,601.2l-14-0.8c0.3,3,0.6,5.8,1,8.3l13.5-1.2C670.8,605.4,670.6,603.3,670.5,601.2z"/>
			<path class="st37" d="M670.4,599.5c-0.1-2.4-0.3-4.8-0.4-7.2l-14-2.1c0,3.1,0.2,5.9,0.4,8.5L670.4,599.5z"/>
		</g>
		<path class="st38" d="M659.5,509.9c-5.9-1.5-12.3-2-16.3-2.1v-4.2l-1.8,4.2c-1.2,0-2.5,0-3.6,0.1l1.3-3.3l-3.4,3.4
			c-1.7,0.1-3.2,0.3-4.6,0.5l3.5-3.8l-5.1,4.1c-3.4,0.5-5.4,1.1-5.4,1.1c23.5-25.1,40.8-7.3,40.8-7.3c-4.1-15.5-22.3-17.9-22.3-17.9
			c23.2-8.5,33.2,12.9,33.2,12.9c14.4-29.2,43.3,1,43.3,1c-3.6-1.7-7.1-2.6-10.3-3l-1.5-3.9l-0.9,3.6c-1.6-0.1-3.1-0.1-4.6,0
			l-0.7-4.4l-1.7,4.6c-7.6,0.9-12.4,4-12.4,4c35-2.5,32.9,29.3,32.9,29.3c-19.4-24.3-38.2-17.2-38.2-17.2c3,1.7,5.6,3.6,7.9,5.5
			l-1.7,2.7l3.7-0.9c1.6,1.5,2.9,3,4.1,4.5l-2.5,2.7l3.5-1.4c1.7,2.3,2.9,4.5,3.8,6.6l-4.2,2.9h5.3c1.5,4.8,1.6,8.2,1.6,8.2
			c-2.9,0.2-5.9-0.2-7.9-1v-4.7l-2.1,4c-1.4-0.6-2.9-1.3-4.2-2.1l2.3-4.4l-4.2,3.2c-1.4-1-2.7-2.1-4-3.3l3.1-4.5l-4.5,3.1
			c-6.6-6.7-10.3-14.4-10.3-14.4c-20,3.8-34.9,25.4-34.9,25.4C636.9,509.7,659.5,509.9,659.5,509.9z"/>
	</g>
	<g class="st6">
		<g>
			<path class="st37" d="M295.9,536.7l7.1,1c0.1-1.1,0.3-2,0.4-2.9l-6.9-0.6C296.3,535,296.1,535.8,295.9,536.7z"/>
			<path class="st37" d="M294.6,542.7l7.7,1.1c0.2-1.7,0.4-3.4,0.5-4.8l-7.3-0.9C295.3,539.6,294.9,541.2,294.6,542.7z"/>
			<path class="st37" d="M290.5,568.5c-0.3,3.4-0.6,6.5-0.7,9.5c3.1,0.6,7.6,1.1,10.9,1.5c0-3.3,0-6.5,0-9.5L290.5,568.5z"/>
			<path class="st37" d="M301.8,548.9c0.1-1.5,0.3-3,0.4-4.4l-7.8-1.1c-0.3,1.6-0.6,3.2-0.9,4.7L301.8,548.9z"/>
			<path class="st37" d="M300.7,580.9l-10.9-1.8c-0.1,2-0.1,4-0.1,5.8l11.2,1.6C300.8,584.6,300.8,582.7,300.7,580.9z"/>
			<path class="st37" d="M291.8,558.3c2.6,0.3,6.4,0.7,9.3,1.1c0.2-3.4,0.4-6.5,0.6-9.4l-8.5-0.6
				C292.7,552.5,292.2,555.5,291.8,558.3z"/>
			<path class="st37" d="M301.8,600.8l-10.7,0.6c0.9,4.8,2.1,8.7,3.1,10.7h8.9C302.6,609.1,302.2,604.6,301.8,600.8z"/>
			<path class="st37" d="M303.5,533.5c0.4-2.6,0.6-4.4,0.6-4.4h-6.6c-0.3,2-0.6,2.5-0.8,3.7L303.5,533.5z"/>
			<path class="st37" d="M300.8,568.9c0.1-2.8,0.2-5.5,0.3-8l-9.4-1.5c-0.4,2.8-0.7,5.5-1,8.1L300.8,568.9z"/>
			<path class="st37" d="M295,614.1c1.1,2,2,3,2,3h6.9c-0.2-1-0.3-2-0.5-3H295z"/>
			<path class="st37" d="M301.3,594.6l-11.2-0.7c0.2,2.4,0.5,4.5,0.8,6.5l10.8-0.9C301.5,597.8,301.4,596.2,301.3,594.6z"/>
			<path class="st37" d="M301.2,593.2c-0.1-1.9-0.2-3.8-0.3-5.6l-11.2-1.7c0,2.4,0.1,4.6,0.3,6.7L301.2,593.2z"/>
		</g>
		<g>
			<path class="st38" d="M340.7,495.9c0.5,0.1,1,0.3,1.5,0.4C342.2,496.3,341.7,496.1,340.7,495.9z"/>
			<path class="st38" d="M321.1,518.7c8.9-12,34.6,2,34.6,2c-22-26.9-44.2-7.1-44.2-7.1c3.1-4.7,6.2-8.2,9.2-10.8l-2.6-4.1l3.4,3.4
				c0.8-0.7,1.6-1.2,2.3-1.8l-2.5-2.9l3.2,2.5c1.2-0.8,2.3-1.4,3.4-1.9l-2.8-2.6l4.9,1.7c4.8-1.8,8.7-1.5,10.7-1.1
				c-28.7-7.6-34,7-34.9,11.7c2.7-17.4,11.5-23.7,11.5-23.7c-19.2,3.9-19.1,19.2-19.1,19.2c-0.7-39.1-48-14.1-48-14.1
				c4.7-0.5,8.8-0.7,12.5-0.5l2.3-1.5l-1.9,1.5c2.3,0.1,4.4,0.3,6.3,0.5l2.2-0.9l-0.3,1.2c1.8,0.3,3.4,0.7,4.9,1.2l3-1.5l-2.2,1.8
				c12.6,4.1,14.8,12.3,14.8,12.3c-29.9-20.1-45.1,23.9-45.1,23.9c2.2-3,4.5-5.6,6.8-7.7l-0.5-1.5l0.8,1.3c1.2-1.1,2.4-2.1,3.6-2.9
				l-1.2-3.3l2.3,2.5c1.1-0.7,2.2-1.4,3.3-2l-1.1-3.7l2,3.2c14.9-7.3,28.6-1.4,28.6-1.4c-35.2,0.4-31,36.6-31,36.6
				c13.5-33.9,32.7-27.5,32.7-27.5c-21.8,4.7-15.5,35.2-15.5,35.2c0.7-3.5,1.6-6.5,2.7-9.1l-2.7-5.4l3.6,3.4
				c1.2-2.5,2.5-4.5,3.8-6.3l0,0l-2.9-6.1l4.2,4.6c1-1.1,2-2,3-2.8l-1.9-5.8l3.2,4.9c4.6-3.1,8.6-3.3,8.6-3.3
				c21.2-1.4,24.8,28.1,24.8,28.1c5.3-22.7-8.4-32.3-8.4-32.3c6.5-0.5,11.9,0.4,16.4,2.1l-1.3-3.5l2.4,3.9c0.9,0.4,1.8,0.8,2.7,1.2
				l-1.6-3.2l2.7,3.8c2,1.2,3.8,2.5,5.3,3.8l-1.7-5.4l3.1,6.8c4.1,4.1,5.8,7.9,5.8,7.9C343.5,514.7,321.1,518.7,321.1,518.7z"/>
		</g>
	</g>
</g>
</svg>
