<?xml version="1.0" encoding="utf-8"?>
<!-- Generator: Adobe Illustrator 19.2.0, SVG Export Plug-In . SVG Version: 6.00 Build 0)  -->
<svg version="1.1" xmlns="http://www.w3.org/2000/svg" xmlns:xlink="http://www.w3.org/1999/xlink" x="0px" y="0px"
	 viewBox="0 0 890.1 1271.7" style="enable-background:new 0 0 890.1 1271.7;" xml:space="preserve">
<style type="text/css">
	.st0{fill:none;}
	.st1{fill:#504F4F;}
	.st2{fill:#858585;}
	.st3{fill:#829D94;}
	.st4{fill:#98B2A7;}
	.st5{fill:#436151;}
	.st6{fill:#9AB2A8;}
	.st7{fill:#3A584E;}
	.st8{fill:#385A4C;}
	.st9{fill:#3A5C4E;}
	.st10{fill:#84A094;}
	.st11{fill:#97B2A7;}
	.st12{fill:#97B2A6;}
	.st13{fill:#97B4A7;}
	.st14{fill:#819C91;}
	.st15{opacity:0.53;fill:#404F4A;enable-background:new    ;}
	.st16{display:none;}
	.st17{display:inline;fill:#3A3A3A;}
	.st18{fill:url(#SVGID_1_);}
	.st19{fill:#686767;}
	.st20{fill:#6C6B6B;}
	.st21{fill:#595858;}
	.st22{fill:#919191;}
	.st23{fill:#9D9D9D;}
	.st24{fill:#E44C2E;}
	.st25{fill:#555454;}
	.st26{fill:#2B9C78;}
	.st27{fill:#259974;}
	.st28{fill:#F1593C;}
	.st29{fill:#38C296;}
	.st30{fill:#3CC69C;}
	.st31{fill:#289F7A;}
	.st32{fill:#CF452A;}
	.st33{enable-background:new    ;}
	.st34{stroke:#000000;stroke-width:2;stroke-miterlimit:10;}
	.st35{fill:#504F4F;stroke:url(#SVGID_2_);stroke-miterlimit:10;}
	.st36{fill:#858585;stroke:url(#SVGID_3_);stroke-miterlimit:10;}
	.st37{fill:#858585;stroke:url(#SVGID_4_);stroke-miterlimit:10;}
	.st38{fill:#858585;stroke:url(#SVGID_5_);stroke-miterlimit:10;}
	.st39{fill:#829D94;stroke:url(#SVGID_6_);stroke-miterlimit:10;}
	.st40{fill:#829D94;stroke:url(#SVGID_7_);stroke-miterlimit:10;}
	.st41{fill:#829D94;stroke:url(#SVGID_8_);stroke-miterlimit:10;}
	.st42{fill:#829D94;stroke:url(#SVGID_9_);stroke-miterlimit:10;}
	.st43{fill:#829D94;stroke:url(#SVGID_10_);stroke-miterlimit:10;}
	.st44{fill:#829D94;stroke:url(#SVGID_11_);stroke-miterlimit:10;}
	.st45{fill:#98B2A7;stroke:url(#SVGID_12_);stroke-miterlimit:10;}
	.st46{fill:#436151;stroke:url(#SVGID_13_);stroke-miterlimit:10;}
	.st47{fill:#436151;stroke:url(#SVGID_14_);stroke-miterlimit:10;}
	.st48{fill:#9AB2A8;stroke:url(#SVGID_15_);stroke-miterlimit:10;}
	.st49{fill:#3A584E;stroke:url(#SVGID_16_);stroke-miterlimit:10;}
	.st50{fill:#385A4C;stroke:url(#SVGID_17_);stroke-miterlimit:10;}
	.st51{fill:#3A5C4E;stroke:url(#SVGID_18_);stroke-miterlimit:10;}
	.st52{fill:#84A094;stroke:url(#SVGID_19_);stroke-miterlimit:10;}
	.st53{fill:#97B2A7;stroke:url(#SVGID_20_);stroke-miterlimit:10;}
	.st54{fill:#97B2A6;stroke:url(#SVGID_21_);stroke-miterlimit:10;}
	.st55{fill:#97B4A7;stroke:url(#SVGID_22_);stroke-miterlimit:10;}
	.st56{fill:#819C91;stroke:url(#SVGID_23_);stroke-miterlimit:10;}
	.st57{opacity:0.53;fill:#404F4A;stroke:url(#SVGID_24_);stroke-miterlimit:10;enable-background:new    ;}
	.st58{filter:url(#Adobe_OpacityMaskFilter);}
	.st59{fill:url(#SVGID_26_);}
	.st60{opacity:0.1;mask:url(#SVGID_25_);}
	.st61{fill:#504F4F;stroke:url(#SVGID_27_);stroke-miterlimit:10;}
	.st62{fill:#858585;stroke:url(#SVGID_28_);stroke-miterlimit:10;}
	.st63{fill:#858585;stroke:url(#SVGID_29_);stroke-miterlimit:10;}
	.st64{fill:#858585;stroke:url(#SVGID_30_);stroke-miterlimit:10;}
	.st65{fill:#829D94;stroke:url(#SVGID_31_);stroke-miterlimit:10;}
	.st66{fill:#829D94;stroke:url(#SVGID_32_);stroke-miterlimit:10;}
	.st67{fill:#829D94;stroke:url(#SVGID_33_);stroke-miterlimit:10;}
	.st68{fill:#829D94;stroke:url(#SVGID_34_);stroke-miterlimit:10;}
	.st69{fill:#829D94;stroke:url(#SVGID_35_);stroke-miterlimit:10;}
	.st70{fill:#829D94;stroke:url(#SVGID_36_);stroke-miterlimit:10;}
	.st71{fill:#98B2A7;stroke:url(#SVGID_37_);stroke-miterlimit:10;}
	.st72{fill:#436151;stroke:url(#SVGID_38_);stroke-miterlimit:10;}
	.st73{fill:#436151;stroke:url(#SVGID_39_);stroke-miterlimit:10;}
	.st74{fill:#9AB2A8;stroke:url(#SVGID_40_);stroke-miterlimit:10;}
	.st75{fill:#3A584E;stroke:url(#SVGID_41_);stroke-miterlimit:10;}
	.st76{fill:#385A4C;stroke:url(#SVGID_42_);stroke-miterlimit:10;}
	.st77{fill:#3A5C4E;stroke:url(#SVGID_43_);stroke-miterlimit:10;}
	.st78{fill:#84A094;stroke:url(#SVGID_44_);stroke-miterlimit:10;}
	.st79{fill:#97B2A7;stroke:url(#SVGID_45_);stroke-miterlimit:10;}
	.st80{fill:#97B2A6;stroke:url(#SVGID_46_);stroke-miterlimit:10;}
	.st81{fill:#97B4A7;stroke:url(#SVGID_47_);stroke-miterlimit:10;}
	.st82{fill:#819C91;stroke:url(#SVGID_48_);stroke-miterlimit:10;}
	.st83{opacity:0.53;fill:#404F4A;stroke:url(#SVGID_49_);stroke-miterlimit:10;enable-background:new    ;}
</style>
<pattern  x="285.1" y="1046.7" width="540.7" height="258.4" patternUnits="userSpaceOnUse" id="Unnamed_Pattern" viewBox="0 -258.4 540.7 258.4" style="overflow:visible;">
	<g>
		<rect x="0" y="-258.4" class="st0" width="540.7" height="258.4"/>
		<g>
			<polygon class="st0" points="0,-258.4 540.7,-258.4 540.7,0 0,0 			"/>
			<path class="st1" d="M344.7-113.3c-15.3-7.8-26.2-23.9-26.6-41.2c-0.7-14.7,5.9-29.3,17.1-38.8c12.4-10.9,30.8-14,46.3-8.8
				c7,2.8,13.7,6.7,19,12.2c5.9,5.9,9.8,13.6,12.3,21.5c1.8,7.8,1.9,16.2-0.1,24c-3.9,13.8-13.8,25.5-26.6,31.9
				C373.1-106.9,357.5-106.8,344.7-113.3 M386.6-150.9c0.8-5.7,0.9-11.9-2.2-17c-4-7.1-12.1-11.6-20.3-11.2
				c-6.9,0.1-13.4,3.7-17.4,9.2c-4.1,5.4-5.1,12.8-3.5,19.3c2,7.6,8.5,13.8,16.1,15.7C370.8-131.5,383.9-139.2,386.6-150.9z"/>
			<path class="st2" d="M386.1-112.6c12.8-6.4,22.7-18,26.6-31.8c17.5,11.8,34.5,24.3,51.5,36.9c13.1-2.4,26-6.1,38.9-9.2
				c11.5-3.2,23.3-5.6,34.7-9.3c1.9,15.6,2.6,31.2,3,46.9c-29.5,4.8-57.4,18.3-87.7,19.1c-23.9-14.8-45.7-32.5-68.4-49
				C383-110.4,384.7-112.1,386.1-112.6z"/>
			<path class="st2" d="M343.2-150.5c-1.7-6.5-0.6-13.8,3.5-19.3c4-5.5,10.5-9.1,17.4-9.2c8.1-0.4,16.3,4.1,20.3,11.2
				c3.1,5.1,3.1,11.3,2.2,17c-2.7,11.7-15.8,19.4-27.3,16.1C351.7-136.8,345.2-142.9,343.2-150.5z"/>
			<path class="st2" d="M381.5-202.1c20-17.6,37.7-37.4,56.5-56.2c11.8,0.6,23.4,2.8,35.1,3.3c5.1,1.8,10.6,1,15.9,1.4
				c13.1,0.6,26.2,1.6,39.2,2.9c1,15.4,2.8,30.7,3.6,46.1c-24.4-0.7-48.4-5.9-72.9-5.9c-3.3-0.2-5.3,2.8-7.5,4.6
				c-13.8,11.6-24.8,26-38.7,37.5c-2.5-7.9-6.4-15.5-12.3-21.5C395.2-195.5,388.5-199.3,381.5-202.1z"/>
			<path class="st3" d="M0.2-1.7C-0.1-19,0.1-36.3,0.1-53.7c8.8,5.5,17.6,11.1,26.4,16.5c-2.2,6.3-6.5,11.5-10,17.2
				C12-13.4,7.9-6.5,3.1,0l-1-0.6C1.6-0.9,0.7-1.4,0.2-1.7z"/>
			<path class="st3" d="M0.1-91.1c4.7-6,8.8-12.7,14.2-18.1c7.1-7.2,16.3-12.1,26.2-14.2c3.3,7.8,6.4,15.8,9.9,23.5
				c3.2,7.2,6.7,14.5,12.1,20.4c-6.2,2.9-12.3,6.4-16.8,11.7c-2.7,3-3.2,7.2-5.3,10.5c-2.2,3.5-5.1,6.6-6.6,10.5
				C22.6-53.5,11.5-60.4,0.3-67C-0.2-75,0.1-83.1,0.1-91.1z"/>
			<path class="st3" d="M49.9-128.8c15.3-5.6,30.7-11,46.8-14c7.5-1.3,15.1-3.4,22.8-3c2.3,16.3,4.8,32.6,7.7,48.8
				c-19.5,3.6-39,7.5-57.6,14.4C68-99.8,56.5-113.5,49.9-128.8z"/>
			<path class="st3" d="M127.9-151.6c0.9,1.2,1.6,3.2,3.5,2.4c12.2-2.5,24.4-4.6,36.7-6.5c10.4-1.9,20.9-2.7,31.4-4.5
				c0.4,17.8,2,35.6,2.9,53.4c-4.4,0.9-9.1,0.3-13.4,1.7c-4.8,1.3-9.9,0.9-14.8,1.6c-11.9,1.6-23.9,2.9-35.8,4.8
				C136.1-116.6,132.6-134.3,127.9-151.6z"/>
			<path class="st3" d="M209.3-161.1c17.2-1.2,34.5-1.2,51.7-1.4c6.2,0.2,12.6-0.6,18.7,0.8c-0.3,16.5-0.5,33.1-0.1,49.7
				c3.9-0.3,7.8-0.6,11.7-0.8c0.6-16-0.5-32-0.6-48c7.6-4.2,15-9.2,21.8-14.6c-5.7-4.9-11.6-9.4-17.5-14.1c-1.8-1.4-3-3.4-4.3-5.3
				c3.8,0,7.6-0.2,11.5-0.2c11,0.3,22,0.5,33,1.6c-11.2,9.5-17.9,24.1-17.1,38.8c0.4,17.3,11.3,33.4,26.6,41.2
				c-7.9,0.7-15.8,0.4-23.6,0.8c-24.4,0.5-48.7,1.7-73.1,3.1c-3.7,0.4-7.4-0.5-11,0.1c-7.4,1.2-14.8-0.4-22.2,0.7
				C213.2-126.2,211.2-143.6,209.3-161.1z"/>
			<path class="st3" d="M207.7-186.5c0-1.7,0.1-3.4,0.2-5.2c23.9-1.6,47.8-2.7,71.7-3.1c0.2,4.6,0.2,9.2,0.1,13.7
				c-2-2.3-2.9-6.6-6.6-6.3C251.2-187.9,229.5-186,207.7-186.5z"/>
			<path class="st4" d="M93.9-168.7c6.8-1.8,13.1-5,20-6.4c2.7,9.6,4.6,19.3,5.6,29.2c-7.7-0.4-15.3,1.7-22.8,3
				c-16.1,3-31.5,8.5-46.8,14c-4-8.3-8-16.7-11.4-25.3C57.3-157.6,75.6-163.2,93.9-168.7z"/>
			<path class="st5" d="M0.1-53.7c-0.1-4.4,0-8.9,0.2-13.3c11.3,6.6,22.3,13.5,33.5,20.1c-2,3.5-4.4,6.8-6.4,10.2
				c-0.2-0.1-0.7-0.4-0.9-0.6C17.6-42.6,8.9-48.2,0.1-53.7z"/>
			<path class="st5" d="M50.4-99.9c-3.5-7.8-6.6-15.7-9.9-23.5c-4.2-10.4-9.9-20.1-14.1-30.5c3.1-2,6.3-3.9,9.5-5.8
				c0.9,1.8,1.8,3.7,2.6,5.5c3.3,8.6,7.3,17,11.4,25.3c6.6,15.4,18.1,29,19.7,46.2c-2.4,1-4.8,2-7.1,3.1
				C57.1-85.4,53.6-92.7,50.4-99.9z"/>
			<path class="st6" d="M0.1-134.1c8.4-7.1,17.1-13.8,26.3-19.9c4.2,10.4,9.9,20.1,14.1,30.5c-9.9,2.1-19.1,7-26.2,14.2
				c-5.5,5.4-9.5,12.1-14.2,18.1C0-105.4,0-119.7,0.1-134.1z"/>
			<path class="st7" d="M119.5-145.9c-1-9.9-3-19.6-5.6-29.2c-1.2-2.6-2.6-5.2-3.9-7.7c4.6-1.1,9.4-1,14.1-1.8
				c-0.3,2.7-0.5,5.4-0.7,8.1c0.6,8.4,2.7,16.6,4.5,24.8c4.8,17.3,8.3,35,10.5,52.9c-3.7,0.5-7.4,1.2-11.1,1.7
				C124.3-113.3,121.8-129.5,119.5-145.9z"/>
			<path class="st8" d="M202.4-106.8c-0.9-17.8-2.6-35.6-2.9-53.4c-0.5-7.7-1.2-15.4-2.2-23.1c-0.4-2.4-0.7-4.8-1.1-7.2
				c-1.3-0.1-2.6-0.2-3.9-0.3c4-1.1,8.5-0.2,12.6-0.8c0.7,0,2.2-0.1,3-0.1c-0.1,1.8-0.1,3.5-0.2,5.2c0.3,8.5,0.6,17,1.6,25.4
				c1.9,17.5,3.9,34.9,5.4,52.5l0.1,0.7c-4.1,0.9-8.3,1.3-12.4,1.9L202.4-106.8z"/>
			<path class="st9" d="M279.6-181c0.1-4.6,0.1-9.2-0.1-13.7c3.6-0.2,7.3-0.2,10.9,0c-0.1,11.3-0.1,22.7,0.2,34
				c0.1,16,1.2,32,0.6,48c-3.9,0.2-7.8,0.5-11.7,0.8c-0.4-16.6-0.2-33.1,0.1-49.7C280.5-168.1,279.7-174.6,279.6-181z"/>
			<path class="st10" d="M35.9-159.7c14-8.2,29.1-14.4,45-18c4.7-1.2,9.4-2.9,14.3-2.6c0.8-0.5,1.7-1,2.6-1.5
				c4.1-0.2,8.2-0.1,12.2-1c1.3,2.6,2.8,5.1,3.9,7.7c-6.9,1.4-13.2,4.6-20,6.4c-18.3,5.5-36.6,11.1-55.4,14.5
				C37.7-156,36.8-157.8,35.9-159.7z"/>
			<path class="st11" d="M123.3-176.4c11.2-0.5,22.2-2.5,33.3-3.5c13.5-1.4,27-2.2,40.5-3.4c1,7.7,1.8,15.4,2.2,23.1
				c-10.4,1.9-21,2.6-31.4,4.5c-12.3,1.9-24.5,4.1-36.7,6.5c-1.8,0.7-2.6-1.3-3.5-2.4C126-159.8,123.9-168,123.3-176.4z"/>
			<path class="st12" d="M273-187.3c3.7-0.3,4.6,4,6.6,6.3c0,6.5,0.9,12.9,0.1,19.4c-6.1-1.5-12.5-0.7-18.7-0.8
				c-17.3,0.2-34.5,0.2-51.7,1.4c-1.1-8.4-1.3-16.9-1.6-25.4C229.5-186,251.2-187.9,273-187.3z"/>
			<path class="st13" d="M290.7-194.7c1.3,1.9,2.4,3.9,4.3,5.3c5.9,4.6,11.8,9.2,17.5,14.1c-6.8,5.5-14.2,10.4-21.8,14.6
				c-0.3-11.3-0.3-22.7-0.2-34L290.7-194.7z"/>
			<path class="st14" d="M124-184.6c22.7-2.2,45.5-4.4,68.3-6.2c1.3,0.1,2.6,0.2,3.9,0.3c0.3,2.4,0.7,4.8,1.1,7.2
				c-13.5,1.1-27,1.9-40.5,3.4c-11.1,1-22.2,3-33.4,3.5C123.5-179.1,123.7-181.8,124-184.6z"/>
			<g id="_x23_404f4a87_1_">
				<path class="st15" d="M263-195c13,0.2,26.1-0.7,39.1,0c-3.8,0-7.6,0.2-11.5,0.2l-0.3,0c-3.6-0.2-7.3-0.2-10.9,0
					c-23.9,0.4-47.8,1.5-71.7,3.1c-0.7,0-2.2,0.1-3,0.1C224.1-193.8,243.6-194,263-195z"/>
			</g>
		</g>
	</g>
</pattern>
<g id="Layer_2" class="st16">
	<rect y="43.9" class="st17" width="890.1" height="443.2"/>
</g>
<g id="Layer_1">
	<linearGradient id="SVGID_1_" gradientUnits="userSpaceOnUse" x1="445.0435" y1="581.769" x2="445.0435" y2="488.1762">
		<stop  offset="0" style="stop-color:#FFFFFF"/>
		<stop  offset="0.2234" style="stop-color:#F8F8F8"/>
		<stop  offset="0.5433" style="stop-color:#E5E5E5"/>
		<stop  offset="0.9197" style="stop-color:#C7C7C7"/>
		<stop  offset="1" style="stop-color:#BFBFBF"/>
	</linearGradient>
	<rect y="487.1" class="st18" width="890.1" height="93.6"/>
	<g id="_x23_686767ff">
		<path class="st19" d="M459.5,319.4c29.9,0,59.7,0,89.6,0c0,2.5,0,5.1,0,7.6c-29.9,0.1-59.7,0-89.6,0
			C459.5,324.5,459.5,321.9,459.5,319.4z"/>
	</g>
	<g id="_x23_6c6b6bff">
		<path class="st20" d="M368.8,319.4c30.2,0,60.5,0,90.7,0c0,2.5,0,5.1,0,7.6c-30.2,0-60.5,0-90.7,0
			C368.8,324.4,368.8,321.9,368.8,319.4z"/>
	</g>
	<path class="st1" d="M432.6,80.1c0.9-2.6,3.4-4.6,6.2-4.8c2.8-0.5,5.7,0.9,7.2,3.2c1,1.5,1.3,3.3,1.2,5.1c-0.3,2.8-2.3,5.4-5,6.2
		c-1.1,0.3-2.2,0.4-3.3,0.4c-2.9-0.3-5.6-2.4-6.4-5.2C432.1,83.4,432,81.6,432.6,80.1z"/>
	<path class="st1" d="M406.6,193.2c11.1-1.2,22.7,2.1,31.3,9.4c8.4,6.8,13.9,17,15.1,27.7c0.8,6.8-0.1,13.7-2.5,20.1
		c-2.5,6.5-6.7,12.3-12,16.9c-6.5,5.6-14.7,9-23.2,9.9c-0.3-2.8-0.6-5.5-0.8-8.3c11.8-1,22.7-9,27.4-19.8c2.6-5.8,3.6-12.3,2.7-18.6
		c-0.9-6.5-3.8-12.7-8.1-17.6c-7.1-8.2-18.3-12.7-29.1-11.3C407.2,198.7,407,195.9,406.6,193.2z"/>
	<path class="st1" d="M501.3,188.9c5.5-0.6,11,0.1,16.2,1.9c10,3.5,18.2,11.5,21.9,21.4c4.2,10.7,3,23.3-3.2,32.9
		c-5.9,9.4-16.3,15.7-27.3,16.7c-0.2-2.2-0.5-4.5-0.6-6.7c0.7-0.2,1.4-0.5,2.1-0.7c4-0.8,7.8-2.2,11.2-4.5c5-3.3,8.9-8.2,11.1-13.8
		c2.8-6.7,2.7-14.5,0.2-21.3c-2-4.8-5.1-9.2-9.2-12.5c-6-4.9-13.9-7.1-21.6-6.3C501.8,193.7,501.5,191.3,501.3,188.9z"/>
	<path class="st1" d="M521.5,335.5c3.5-0.5,7.3,1,9.5,3.8c2.7,3.5,2.7,8.7,0.1,12.3c-2.3,3.1-6.6,4.8-10.4,3.9
		c-2-0.4-3.8-1.5-5.3-2.9c-2.8-3-3.5-7.7-1.7-11.4C515,338.1,518.2,336,521.5,335.5 M521.9,338.4c-3.3,0.4-6.2,3.4-6.2,6.8
		c-0.2,2.4,1,4.8,2.9,6.2c3.3,2.7,8.8,1.5,10.8-2.3c1.5-2.7,1.1-6.3-1.1-8.4C526.6,338.9,524.2,338,521.9,338.4z"/>
	<path class="st1" d="M493.2,342.8c4.8-0.6,9.8,0.7,13.6,3.5c4.9,3.4,7.7,9.4,7.7,15.3c-0.1,3.8-1.2,7.7-3.4,10.8
		c-3.5,5.3-10,8.4-16.3,8.1c-3.5-0.2-6.9-1.2-9.8-3.2c-5.7-3.6-8.8-10.6-8.3-17.2c0.3-3.5,1.5-6.9,3.6-9.7
		C483.3,346.2,488.1,343.5,493.2,342.8 M492.8,345.8c-6.1,1-11.4,5.9-12.8,12c-1.3,5.2,0.2,11.1,4.1,15c3,3.2,7.5,5,11.9,4.9
		c4.1-0.1,8.1-1.8,10.9-4.7c3.3-3.2,5-7.9,4.7-12.5c-0.3-5.3-3.5-10.3-8.2-12.9C500.2,345.8,496.4,345.2,492.8,345.8z"/>
	<path class="st1" d="M523.3,360.3c2.6-0.4,5.4,0.4,7.2,2.4c2.2,2,2.9,5.2,2.3,8c-0.4,2.4-2.2,4.4-4.3,5.6c-2.4,1.2-5.3,1.2-7.7,0.1
		c-1.6-0.8-3-2.2-3.9-3.8c-1.1-2.4-1.2-5.3-0.1-7.7C518.1,362.5,520.5,360.5,523.3,360.3 M523,363.3c-2.5,0.6-4.3,3.1-4.1,5.6
		c-0.1,3,2.8,5.7,5.8,5.4c3.2,0.1,5.9-3,5.4-6.2C529.9,364.8,526.3,362.3,523,363.3z"/>
	<path class="st1" d="M674.6,379.4c4.6-2.4,10.3-2.3,15.1-0.3c4.7,2.3,8.3,6.6,9.7,11.6c0.7,2.8,0.7,5.9,0,8.7
		c-0.9,2.9-2.3,5.7-4.5,7.8c-1.9,2-4.4,3.4-6.9,4.5c-5.7,1.9-12.3,0.8-16.9-3.2c-4.1-3.5-6.5-8.8-6.2-14.1
		C665.1,388.1,669.1,382.2,674.6,379.4 M679.9,387.2c-2.8,0.7-5.1,3-5.9,5.7c-0.6,2.4-0.2,5,1.3,7c1.5,2,3.8,3.3,6.3,3.4
		c3,0.2,5.9-1.5,7.4-4.1c1.1-1.8,1.1-4.1,0.8-6.2C688.9,388.8,684.1,386,679.9,387.2z"/>
	<path class="st1" d="M394.3,510.6c8.9,0,17.7,0,26.6,0c0,4.9,0,9.7,0,14.6c-8.9,0-17.7,0-26.6,0
		C394.3,520.3,394.3,515.4,394.3,510.6z"/>
	<path class="st1" d="M492.7,510.6c8.9,0,17.7,0,26.6,0c0,4.8,0,9.7,0,14.5c-8.9,0-17.7,0-26.6,0
		C492.6,520.3,492.6,515.4,492.7,510.6z"/>
	<path class="st1" d="M394.3,534.3c8.9,0,17.7,0,26.6,0c0,4.7,0,9.4,0,14.2c-8.9,0.1-17.7,0-26.6,0
		C394.3,543.7,394.3,539,394.3,534.3z"/>
	<path class="st1" d="M492.6,534.2c8.9,0,17.7,0,26.6,0c0,4.7,0,9.4,0,14.2c-8.9,0-17.7,0-26.6,0C492.6,543.7,492.6,539,492.6,534.2
		z"/>
	<path class="st1" d="M394.3,557.6c8.9,0,17.7,0,26.6,0c0,5.2,0,10.4,0,15.6c-8.9,0-17.7,0.1-26.6,0
		C394.3,568,394.3,562.8,394.3,557.6z"/>
	<path class="st1" d="M492.6,557.6c8.9,0,17.7,0,26.6,0c0,5.2,0,10.4,0,15.6c-8.9,0-17.7,0.1-26.6,0
		C492.6,568,492.6,562.8,492.6,557.6z"/>
	<path class="st1" d="M394.3,582.3c8.9,0,17.7-0.1,26.6,0c0,5,0,9.9,0,14.9c-8.9,0.1-17.7,0-26.6,0
		C394.3,592.3,394.3,587.3,394.3,582.3z"/>
	<path class="st1" d="M492.6,582.3c8.9-0.1,17.7,0,26.6,0c0,5,0,9.9,0,14.9c-8.9,0-17.7,0-26.6,0
		C492.6,592.3,492.6,587.3,492.6,582.3z"/>
	<path class="st1" d="M394.3,606.4c8.9-0.1,17.7,0,26.6,0c0,5.2,0,10.5,0,15.7c-8.3-3.8-17.9-4.4-26.6-1.6
		C394.3,615.8,394.3,611.1,394.3,606.4z"/>
	<path class="st1" d="M492.6,606.4c8.9,0,17.7,0,26.6,0c0,4.9,0,9.9,0,14.8c-6.2-2.3-13.1-3.1-19.6-1.8c-2.4,0.4-4.7,1.2-7,2
		C492.6,616.3,492.6,611.3,492.6,606.4z"/>
	<g id="_x23_595858ff">
		<path class="st21" d="M439,90.2c1.1,0,2.2-0.2,3.3-0.4c0.2,2.3,0.6,4.5,0.5,6.8c-1.5,1.2-3.3,1.7-4.7,3c4.2,0.6,8.4,1,12.5,1.7
			c0.7,0.1,1.5,0.2,1.8,0.9c0.5,0.7,0.2,1.8-0.6,2.2c-3.8,2.2-8,3.6-11.8,5.7c4.4,1,9.1,1,13.5,2.4c0.3,0.5,0.4,1.2,0.5,1.8
			c-0.3,0.4-0.7,0.5-1.1,0.8c-4.4,2.5-9,4.3-13.4,6.8c2.2,1.2,4.7,1.9,6.9,3c1,4.8,1.3,9.7,2.1,14.5c2.1,0.2,4.1,1,5.6,2.5
			c-1.8,0.2-3.5,0.4-5.3,0.6c-2.6,0.3-5.1,0.6-7.7,0.7c1.2-1.4,2.8-2.3,4.1-3.4c-0.4-4.2-1-8.4-1.7-12.6c-2.2-1.1-4.6-1.9-6.9-2.9
			c-0.9-0.5-2.3-0.6-2.6-1.7c-0.3-0.6,0.1-1.2,0.2-1.8c4.2-2.1,8.5-4.1,12.7-6.2c-4.8-0.8-9.7-1.2-14.6-2.2c0.3-1.2,0.5-2.9,1.9-3.3
			c3.7-1.6,7.3-3.4,10.9-5c-4-1-8.2-1.3-12.3-1.8c-0.9-0.4-1.9-1-1.9-2.1c0.4-1,1.5-1.4,2.4-2c2-1.2,4-2.3,6.1-3.4
			C439.3,93.2,439.1,91.7,439,90.2z"/>
		<path class="st21" d="M432.1,291c1-0.7,2.4-0.7,3.6-0.8c9.4-1,18.9-1.9,28.3-3c8.8-0.9,17.5-1.7,26.3-2.7c1.1-0.1,2.4-0.3,3.2,0.6
			c0.9,1.1,0.8,2.7,1,4c0.3,2.1,0.3,4.2,0.9,6.2c-2.3,0.5-4.3,1.8-6.5,2.8c-1.2,0.7-2.5-0.2-3.8-0.2c-0.9,0.5-1.6,1.6-2.7,1.7
			c-1.1,0.1-2.3,0.5-3.4,0.2c-1.4-1.8-2.6-3.8-3.4-6c-0.4-0.9-0.8-1.9-1.4-2.6c-0.5-0.3-0.8,0.5-1.1,0.8c-1.5,2.7-2.5,5.7-4.5,8.1
			c-0.8,1-2,1.5-3.1,1.9c-0.7-0.7-1.3-1.7-2.3-2c-1.5,0.3-2,2.4-3.4,2.9c-1.3-0.8-2.2-1.9-3.5-2.8c-0.7,1.2-1.5,2.3-2.8,2.9
			c-0.6-1.2-0.9-2.8-2.2-3.3c-1.3,0.9-1.8,2.6-2.8,3.8c-0.8-0.5-0.8-1.7-1.1-2.6c-0.8-2.3-1.3-4.6-2.3-6.8c-0.2-0.6-0.8-0.5-1.3-0.6
			c-1.4,3.2-2.9,6.4-3.6,9.9c-0.1,0.7-0.1,2.2,0.9,2c1.8-2.3,1.8-5.4,3.2-7.9c0.8,2.5,1.7,5,2.7,7.5c0.4,0.9,1.1,1.8,2.1,1.9
			c0.9-1.2,1.4-2.6,2.2-3.9c0.8,1,1.4,2.1,2.1,3.1c1-0.9,1.9-2.1,3.1-2.7c1.3,0.5,1.9,1.9,3.1,2.4c1.1-0.2,1.6-1.3,2.1-2.1
			c1.1-0.3,2.2-0.1,3,0.7c0.1-0.1,0.3-0.3,0.4-0.3c0.2,1,0.7,1.9,1.6,2.4c0.5-0.1,0.7-0.6,1-1c1.9-3.1,3.6-6.2,5.2-9.4
			c0.3-0.6,0.7-1.1,1-1.6c1.2,2.7,2,5.6,3.9,7.9c1.9-0.2,3.9-0.3,5.8-0.5c1,0.1,1.6-0.8,2.4-1.2c1,0,2,0.5,3,0.1
			c2.3-0.8,4.3-2,6.5-2.9c-0.3,2.9,0.7,5.8,0.5,8.7c-0.1,1.4-1.4,2-2.7,2.1c-9,0.9-18,1.9-26.9,2.9c-9.9,1-19.8,2.1-29.8,3.1
			c-0.9,0.1-1.9,0.1-2.6-0.5c-0.8-0.6-0.8-1.6-1-2.5c-0.2-2.4-0.5-4.8-0.7-7.2c0.7,0,1.6-0.1,2.2,0.5c1.4,1.1,2.5,2.5,3.8,3.8
			c1.1-0.6,1.8-1.7,1.4-3c-0.9-0.5-1.8-0.7-2.7-1.1c-1.1-0.6-1.7-1.8-2.8-2.3c-0.7-0.3-1.5-0.1-2.2-0.1c-0.3-2.7-0.5-5.4-0.8-8.1
			C431.2,293,431.2,291.7,432.1,291z"/>
	</g>
	<path class="st22" d="M331.7,155.4c1.5-0.4,3-1.2,4.5-1.4c27.4-2.8,54.8-5.7,82.2-8.6c7.6-0.8,15.2-1.5,22.7-2.4
		c2.6-0.2,5.1-0.5,7.7-0.7c5,48.3,10.1,96.6,15.1,144.9c-9.4,1-18.9,2-28.3,3c-1.2,0.2-2.5,0.1-3.6,0.8c-0.9,0.7-0.9,1.9-0.8,3
		c0.3,2.7,0.5,5.4,0.8,8.1c0.7,0,1.5-0.2,2.2,0.1c1.1,0.6,1.8,1.7,2.8,2.3c0.9,0.5,1.8,0.7,2.7,1.1c0.4,1.2-0.3,2.4-1.4,3
		c-1.2-1.3-2.4-2.6-3.8-3.8c-0.6-0.5-1.5-0.4-2.2-0.5c0.2,2.4,0.5,4.8,0.7,7.2c0.1,0.9,0.2,1.9,1,2.5c0.7,0.6,1.7,0.6,2.6,0.5
		c9.9-1,19.8-2.1,29.8-3.1c0.4,4.4,0.9,8.9,1.4,13.3c-28.7,3-57.4,6-86.1,9c-8.9,0.9-17.7,1.8-26.6,2.8c-1.2,0.1-2.4-0.2-3.5-0.3
		c-1.1-0.2-2.3-0.2-3.3-0.6c-2.1-1-4.2-2.2-5.6-4.1c-2.1-1.9-2.5-4.8-3.4-7.3c-1.4-12.2-2.6-24.5-3.9-36.7
		c-3.1-29.4-6.1-58.7-9.2-88.1c-1-9.5-2-18.9-3-28.4c-0.4-2.3,0.3-4.6,0.5-6.9c0.5-1.8,1.6-3.5,2.7-5
		C328,157.7,329.5,156,331.7,155.4 M365.8,158.7c-1.1,0.4-2.1,1.3-2.5,2.4c-0.2,1.5,0,3.4,1.5,4.1c0.9,0.4,1.8,1.1,2.8,0.8
		c1.5-0.4,3-1.7,3-3.3c0-1.2-0.1-2.5-1.1-3.3C368.5,158.6,367,158.2,365.8,158.7 M351.3,164.1c-2.4,0.8-4.6,1.9-6.8,2.9
		c-6.1,3.4-11.4,9.3-12.5,16.4c0,2.1-0.5,4.5,0.8,6.3c0.6,0.6,1.3,1.5,2.3,1.4c3.3-1.3,4.9-4.8,6.4-7.7c1.5-2.6,3.1-5.3,5.5-7.3
		c2.5-2.6,5.8-4.3,9-6c1.5-1,3.4-2.2,3.3-4.2c-0.7-1.1-1.8-2.2-3.1-2.3C354.6,163.5,352.9,163.8,351.3,164.1 M380.4,206.3
		c-2.6,2.6-4.6,5.6-6.3,8.8c-3.1,5.6-4.6,12-5,18.3c-0.1,4,0.3,7.9,1.2,11.8c1.6,5.9,4.2,11.7,8.1,16.5c2.6,3.1,5.4,6,8.8,8.2
		c8.1,5.7,18.4,8.2,28.3,7.3c8.5-0.9,16.8-4.3,23.2-9.9c5.3-4.6,9.4-10.4,12-16.9c2.3-6.4,3.3-13.3,2.5-20.1
		c-1.3-10.7-6.7-20.9-15.1-27.7c-8.6-7.2-20.2-10.5-31.3-9.4C396.7,194.3,387.1,198.9,380.4,206.3z"/>
	<path class="st22" d="M443.7,293.4c0.5,0.2,1.1,0.1,1.3,0.6c1,2.2,1.5,4.6,2.3,6.8c0.4,0.8,0.3,2,1.1,2.6c1-1.2,1.4-2.9,2.8-3.8
		c1.3,0.6,1.6,2.1,2.2,3.3c1.2-0.6,2.1-1.7,2.8-2.9c1.2,0.8,2.2,2,3.5,2.8c1.4-0.5,1.9-2.6,3.4-2.9c1,0.3,1.6,1.4,2.3,2
		c1.1-0.4,2.3-0.9,3.1-1.9c2-2.4,2.9-5.4,4.5-8.1c0.3-0.3,0.5-1.1,1.1-0.8c0.7,0.8,1,1.7,1.4,2.6c0.8,2.1,2,4.2,3.4,6
		c1.1,0.3,2.2-0.1,3.4-0.2c1.1-0.1,1.8-1.2,2.7-1.7c1.3,0,2.6,0.9,3.8,0.2c2.1-1,4.1-2.3,6.5-2.8c0.3,0.8,0.4,1.7,0.2,2.5
		c-2.2,0.9-4.3,2.1-6.5,2.9c-1,0.4-2-0.1-3-0.1c-0.8,0.4-1.4,1.3-2.4,1.2c-1.9,0.1-3.9,0.3-5.8,0.5c-1.9-2.3-2.8-5.2-3.9-7.9
		c-0.4,0.5-0.7,1-1,1.6c-1.6,3.2-3.4,6.3-5.2,9.4c-0.3,0.4-0.5,0.9-1,1c-0.9-0.5-1.5-1.4-1.6-2.4c-0.1,0.1-0.3,0.3-0.4,0.3
		c-0.8-0.8-1.9-1-3-0.7c-0.5,0.8-1,1.9-2.1,2.1c-1.2-0.5-1.9-1.9-3.1-2.4c-1.2,0.7-2.1,1.8-3.1,2.7c-0.7-1-1.3-2.1-2.1-3.1
		c-0.8,1.3-1.4,2.7-2.2,3.9c-1.1,0-1.8-1-2.1-1.9c-1-2.4-2-4.9-2.7-7.5c-1.4,2.5-1.4,5.6-3.2,7.9c-1,0.1-1.1-1.3-0.9-2
		C440.9,299.8,442.4,296.6,443.7,293.4z"/>
	<path class="st22" d="M368.8,327c30.2,0.1,60.5,0,90.7,0c0,61.2,0,122.4,0,183.6c-12.9,0-25.8,0-38.6,0c-8.9,0-17.7,0-26.6,0
		c-8.5,0-17,0-25.5,0c0-42.9,0-85.7,0-128.6c0-2.2,0-4.4,0-6.5c0.1-7.2,0-14.3,0.1-21.5c0-3.3,0-6.6,0-9.9c0-1.7,0-3.5,0-5.2
		C368.9,335,368.8,331,368.8,327 M387.4,348.5c0,4.1,0,8.2,0,12.4c21.5,0,43,0,64.4,0c0-4.1,0-8.3,0-12.4
		C430.4,348.5,408.9,348.5,387.4,348.5 M387.4,366.7c0,4.1,0,8.2,0,12.4c21.5,0,43,0,64.5,0c0-4.1,0-8.3,0-12.4
		C430.4,366.7,408.9,366.7,387.4,366.7z"/>
	<path class="st2" d="M448.9,142.3c1.8-0.2,3.5-0.4,5.3-0.6c33.5-3.4,67-7,100.5-10.4c0.9-0.1,1.8,0.1,2.7,0.2
		c1.6,0.2,3.3,0.2,4.8,1.1c1.9,0.9,3.7,2.2,5,4c1.6,1.5,2,3.7,2.7,5.7c0.5,1.3,0.5,2.7,0.7,4.1c1,9.7,2,19.5,3,29.2
		c3,29.2,6.1,58.5,9.1,87.7c1.2,11.6,2.4,23.2,3.6,34.8c0.1,1.6-0.3,3.1-0.5,4.7c-0.1,1.7-1.1,3.1-1.9,4.5c-0.9,1.6-2.4,2.8-3.8,4
		c-1,0.9-2.3,1.1-3.5,1.6c-1.1,0.4-2.2,0.9-3.4,1c-6.8,0.7-13.6,1.4-20.4,2.1c-28.3,3-56.7,5.9-85,8.9c-0.4-4.4-1-8.9-1.4-13.3
		c9-1,18-1.9,26.9-2.9c1.2,0,2.6-0.7,2.7-2.1c0.1-2.9-0.8-5.8-0.5-8.7c0.2-0.8,0.1-1.7-0.2-2.5c-0.6-2-0.6-4.1-0.9-6.2
		c-0.2-1.4-0.1-2.9-1-4c-0.8-0.9-2.1-0.6-3.2-0.6c-8.8,1-17.5,1.8-26.3,2.7C458.9,238.9,453.9,190.6,448.9,142.3 M477.6,201.3
		c-7.8,8.8-10.7,21.5-7.9,32.8c0.9,3,1.8,5.9,3.3,8.6c2.9,5.6,7.4,10.3,12.7,13.6c6.8,4.4,15.1,6.2,23.1,5.4
		c11-1,21.4-7.3,27.3-16.7c6.2-9.6,7.4-22.2,3.2-32.9c-3.7-9.9-11.9-17.9-21.9-21.4c-5.2-1.7-10.8-2.5-16.2-1.9
		C492.2,189.9,483.5,194.4,477.6,201.3z"/>
	<path class="st2" d="M459.5,327c29.9,0,59.7,0,89.6,0c0,3.8,0,7.6,0,11.4c0.2,0,0.6,0,0.8,0c-0.2,0.1-0.5,0.3-0.7,0.4
		c-0.1,6.3,0,12.6,0,18.9c0,1.6,0,3.2,0.1,4.9c-0.2,2.9-0.1,5.9-0.1,8.8c-0.1,5.2,0,10.4,0,15.6c-0.1,41.2,0,82.4,0,123.6
		c-10,0-19.9,0-29.9,0c-8.9,0-17.7,0-26.6,0c-11,0-22.1,0-33.1,0C459.5,449.4,459.5,388.2,459.5,327 M521.5,335.5
		c-3.3,0.5-6.5,2.5-7.8,5.7c-1.8,3.7-1,8.4,1.7,11.4c1.5,1.4,3.3,2.5,5.3,2.9c3.8,0.9,8.1-0.7,10.4-3.9c2.6-3.6,2.5-8.8-0.1-12.3
		C528.7,336.5,525,335,521.5,335.5 M493.2,342.8c-5,0.7-9.9,3.3-12.8,7.5c-2.1,2.8-3.3,6.3-3.6,9.7c-0.5,6.6,2.7,13.6,8.3,17.2
		c2.9,2,6.3,3,9.8,3.2c6.3,0.2,12.8-2.8,16.3-8.1c2.2-3.1,3.3-7,3.4-10.8c0-5.9-2.8-11.8-7.7-15.3
		C502.9,343.5,497.9,342.2,493.2,342.8 M523.3,360.3c-2.8,0.2-5.2,2.2-6.5,4.7c-1,2.4-1,5.3,0.1,7.7c0.9,1.6,2.3,2.9,3.9,3.8
		c2.4,1,5.3,1,7.7-0.1c2.1-1.2,3.9-3.2,4.3-5.6c0.7-2.8-0.1-6-2.3-8C528.7,360.7,525.9,359.9,523.3,360.3z"/>
	<path class="st2" d="M689.2,377.9c8.3-6,16.2-12.5,24.9-17.9c11,0.3,21.2,5.2,31.9,6.9c-0.1,5.7-0.4,11.4-1.1,17.1
		c-4.2-1.3-8.4-2.2-12.6-3.4c-4.7-1.2-9.4-2.5-14.2-3.4c-6.2,4.6-12.4,9.1-18.7,13.4c-1.4-5-5-9.3-9.7-11.6
		C689.2,378.9,688.6,378.3,689.2,377.9z"/>
	<path class="st2" d="M679.9,387.2c4.2-1.2,9,1.6,9.9,5.9c0.3,2.1,0.3,4.3-0.8,6.2c-1.5,2.6-4.4,4.2-7.4,4.1c-2.5,0-4.9-1.4-6.3-3.4
		c-1.5-2-1.9-4.6-1.3-7C674.8,390.2,677.2,387.9,679.9,387.2z"/>
	<path class="st2" d="M694.9,407.3c2.2-2.2,3.6-4.9,4.5-7.8c5,4.2,9.1,9.5,14.1,13.7c0.8,0.7,1.5,1.8,2.7,1.7
		c8.9,0,17.7-1.9,26.5-2.2c-0.3,5.6-0.9,11.2-1.3,16.8c-4.8,0.5-9.5,0.8-14.3,1c-1.9,0.1-3.9-0.1-5.8,0.5c-4.3,0.2-8.5,0.9-12.8,1.2
		c-6.8-6.8-13.3-14.1-20.6-20.5C690.6,410.7,693,409.3,694.9,407.3z"/>
	<path class="st2" d="M394.3,525.1c8.9,0,17.7,0,26.6,0c0,3,0,6.1,0,9.1c-8.9,0-17.7,0-26.6,0C394.3,531.2,394.3,528.2,394.3,525.1z
		"/>
	<path class="st2" d="M492.6,525.1c8.9,0.1,17.7,0,26.6,0c0,3,0,6.1,0,9.1c-8.9,0-17.7,0-26.6,0
		C492.6,531.2,492.6,528.1,492.6,525.1z"/>
	<path class="st2" d="M394.3,548.4c8.9,0,17.7,0,26.6,0c0,3,0,6.1,0,9.2c-8.9,0-17.7,0-26.6,0C394.3,554.5,394.3,551.5,394.3,548.4z
		"/>
	<path class="st2" d="M492.6,548.4c8.9,0,17.7,0,26.6,0c0,3,0,6.1,0,9.1c-8.9,0-17.7,0-26.6,0C492.6,554.5,492.6,551.5,492.6,548.4z
		"/>
	<path class="st2" d="M394.3,573.2c8.9,0.1,17.7,0,26.6,0c0,3.1,0,6.1,0,9.2c-8.9-0.1-17.7,0-26.6,0
		C394.3,579.3,394.3,576.2,394.3,573.2z"/>
	<path class="st2" d="M492.6,573.2c8.9,0.1,17.7,0,26.6,0c0,3,0,6.1,0,9.2c-8.9,0-17.7-0.1-26.6,0
		C492.6,579.3,492.6,576.2,492.6,573.2z"/>
	<path class="st2" d="M394.3,597.2c8.9,0,17.7,0.1,26.6,0c0,3,0,6.1,0,9.2c-8.9,0-17.7,0-26.6,0
		C394.3,603.3,394.3,600.3,394.3,597.2z"/>
	<path class="st2" d="M492.6,597.2c8.9,0,17.7,0,26.6,0c0,3,0,6.1,0,9.1c-8.9,0-17.7,0-26.6,0C492.6,603.3,492.6,600.3,492.6,597.2z
		"/>
	<g id="_x23_9d9d9dff">
		<path class="st23" d="M365.8,158.7c1.2-0.6,2.7-0.1,3.7,0.7c1,0.8,1.1,2.1,1.1,3.3c0,1.7-1.5,3-3,3.3c-1,0.3-2-0.4-2.8-0.8
			c-1.5-0.7-1.7-2.7-1.5-4.1C363.7,160,364.7,159.2,365.8,158.7z"/>
		<path class="st23" d="M351.3,164.1c1.6-0.4,3.2-0.7,4.9-0.5c1.4,0.1,2.4,1.2,3.1,2.3c0,2-1.9,3.2-3.3,4.2c-3.2,1.7-6.5,3.4-9,6
			c-2.4,1.9-3.9,4.6-5.5,7.3c-1.6,3-3.1,6.4-6.4,7.7c-0.9,0.1-1.6-0.8-2.3-1.4c-1.3-1.8-0.8-4.2-0.8-6.3c1.1-7.2,6.3-13,12.5-16.4
			C346.8,166,349,164.9,351.3,164.1z"/>
	</g>
	<path class="st24" d="M309.1,209.2c4.9-4.5,10.9-7.8,17.2-9.7c3.1,29.4,6.1,58.7,9.2,88.1c-12.5-1-24.4-7.5-31.9-17.5
		c-7.8-10-10.8-23.4-8.5-35.9C296.8,224.6,301.9,215.7,309.1,209.2 M310.7,219.4c-4.2,1.3-7.5,5.3-7.8,9.8c0,1.6,0.4,3.4,1.8,4.3
		c1.2,1.2,3,1.2,4.5,0.9c3.3-0.9,6.1-3.5,7.4-6.6c0.9-2.1,1.2-4.5,0.1-6.6c-0.6-0.7-1.4-1.4-2.2-1.8
		C313.3,219,311.9,218.9,310.7,219.4z"/>
	<path class="st24" d="M573.6,175.6c10.8,1,21.1,6.2,28.5,14.2c4.2,4.5,7.4,9.8,9.4,15.6c3.5,10.1,3.5,21.5-0.5,31.5
		c-4.8,12.5-15.5,22.6-28.3,26.5C579.7,234.1,576.6,204.9,573.6,175.6 M587.4,189.5c-1.5,0.3-2.5,1.6-3.1,2.8
		c-0.6,2.4,0.3,4.9,1.8,6.8c2.1,2.6,5.3,4.4,8.7,4.5c1.5-0.1,3.1-0.5,4-1.8c1.2-1.3,1.3-3.2,0.8-4.8c-0.9-3-3.3-5.5-6.2-6.8
		C591.4,189.4,589.3,188.9,587.4,189.5z"/>
	<path class="st24" d="M521.9,338.4c2.3-0.3,4.8,0.5,6.3,2.2c2.1,2.2,2.5,5.8,1.1,8.4c-1.9,3.8-7.4,5-10.8,2.3
		c-1.9-1.4-3.1-3.8-2.9-6.2C515.7,341.8,518.5,338.8,521.9,338.4z"/>
	<path class="st24" d="M492.8,345.8c3.6-0.6,7.4,0,10.6,1.8c4.7,2.5,7.9,7.6,8.2,12.9c0.3,4.6-1.4,9.2-4.7,12.5
		c-2.9,2.9-6.9,4.6-10.9,4.7c-4.4,0.1-8.8-1.7-11.9-4.9c-3.8-3.8-5.4-9.7-4.1-15C481.4,351.7,486.7,346.8,492.8,345.8 M493.1,350.1
		c-1.5,0.5-3,1-4.3,1.9c-3.3,2.3-5.3,6.3-5,10.3c0.4,5.5,5.3,10.4,10.9,10.6c3.9,0.3,7.8-1.8,10-5c1.8-2.6,2.6-5.9,1.8-9
		c-0.8-2.5-2-4.9-4.1-6.4C499.9,350.4,496.4,349.4,493.1,350.1z"/>
	<path class="st24" d="M523,363.3c3.2-1,6.9,1.5,7.1,4.9c0.4,3.1-2.3,6.2-5.4,6.2c-3,0.2-5.8-2.4-5.8-5.4
		C518.7,366.3,520.6,363.9,523,363.3z"/>
	<path class="st24" d="M394.3,620.5c8.7-2.8,18.3-2.2,26.6,1.6c12.3,5.6,20.7,18.8,20.4,32.3c-23.8,0-47.6,0-71.4,0
		c-0.2-6.9,2-13.7,5.7-19.5C379.9,628.2,386.6,623,394.3,620.5 M414.5,624.7c-2.2,0.3-4.1,2.4-4,4.6c0,4.9,4,9.2,8.6,10.5
		c2,0.7,4.5,0.4,5.9-1.3c1.3-1.1,1.4-2.9,1.3-4.5c-0.6-3.5-3-6.7-6.2-8.3C418.3,625,416.4,624.3,414.5,624.7z"/>
	<path class="st24" d="M499.6,619.3c6.6-1.2,13.4-0.5,19.6,1.8c6.9,2.6,12.9,7.6,16.9,13.8c3.7,5.8,5.8,12.6,5.7,19.5
		c-23.8,0-47.6,0-71.4,0c-0.3-14.2,9-28,22.2-33.1C494.9,620.5,497.2,619.7,499.6,619.3 M514.3,624.7c-1.6,0.1-2.7,1.3-3.6,2.6
		c-0.9,2.2-0.3,4.6,0.7,6.6c1.6,2.9,4.3,5.2,7.4,6c2,0.6,4.6,0.4,5.9-1.3c1.4-1.2,1.5-3.3,1.2-5c-0.8-3.3-3.1-6.2-6.1-7.8
		C518.1,624.9,516.2,624.2,514.3,624.7z"/>
	<g id="_x23_555454ff">
		<path class="st25" d="M380.4,206.3c6.8-7.4,16.4-12,26.3-13.1c0.3,2.8,0.6,5.5,0.9,8.3c-7.5,0.7-14.6,4.2-20,9.4
			c-8.2,8-12.1,20.3-9.4,31.5c2.4,12.1,12.3,22.3,24.2,25.5c4,1.1,8.1,1.4,12.2,1c0.3,2.8,0.6,5.5,0.8,8.3c-9.9,1-20.1-1.6-28.3-7.3
			c-3.4-2.2-6.3-5.1-8.8-8.2c-3.9-4.8-6.5-10.5-8.1-16.5c-0.9-3.9-1.3-7.8-1.2-11.8c0.4-6.4,1.9-12.7,5-18.3
			C375.8,211.9,377.8,208.9,380.4,206.3z"/>
		<path class="st25" d="M477.6,201.3c5.9-7,14.6-11.4,23.7-12.4c0.2,2.4,0.5,4.8,0.7,7.2c-3.8,0.5-7.6,1.5-10.9,3.5
			c-4.3,2.4-8.1,5.8-10.6,10c-4.1,6.5-5.6,14.6-3.8,22.1c1.4,6.4,5.1,12.2,10.1,16.4c6,4.8,13.8,7.3,21.4,6.4
			c0.7-0.1,1.5-0.1,2.2-0.2c-0.7,0.2-1.4,0.4-2.1,0.7c0.2,2.2,0.4,4.5,0.6,6.7c-8,0.7-16.3-1.1-23.1-5.4c-5.3-3.4-9.8-8-12.7-13.6
			c-1.6-2.7-2.5-5.7-3.3-8.6C466.8,222.8,469.8,210.1,477.6,201.3z"/>
	</g>
	<g id="_x23_2b9c78ff">
		<path class="st26" d="M387.6,210.9c5.4-5.3,12.5-8.7,20-9.4c1.2,11.2,2.3,22.4,3.5,33.5c-11,1.2-22.1,2.2-33.1,3.5
			c0.2,1.3,0.2,2.6,0.3,3.9C375.5,231.2,379.3,218.9,387.6,210.9z"/>
		<path class="st26" d="M491,199.6c3.3-2,7.1-3,10.9-3.5c1,9.7,2.1,19.4,3,29.1c-2.4,0.3-4.9,0.5-7.3,0.8c-1.9-0.5-3.9-0.2-5.7,0.6
			c-5.2,0.6-10.4,1-15.6,1.7c0.1,1.2,0.2,2.4,0.2,3.5c-1.8-7.5-0.2-15.6,3.8-22.1C483,205.5,486.8,202,491,199.6z"/>
	</g>
	<path class="st27" d="M407.5,201.5c10.8-1.3,22,3.2,29.1,11.3c4.3,4.9,7.2,11.1,8.1,17.6c0.9,6.3-0.1,12.8-2.7,18.6
		c-4.7,10.8-15.6,18.8-27.4,19.8c-1.2-11.3-2.4-22.6-3.5-33.8C409.9,223.8,408.7,212.6,407.5,201.5 M421.4,233.3
		c-2.3,0.8-4,2.9-4.4,5.2c-0.1,2,0.2,4.2,1.7,5.6c1.8,1.9,4.7,3,7.1,1.9c1.5-0.8,3-1.7,3.8-3.3c1.4-2.7,0.8-6.5-1.8-8.4
		C426.1,232.9,423.6,232.7,421.4,233.3z"/>
	<path class="st27" d="M502,196.1c7.7-0.9,15.6,1.4,21.6,6.3c4.1,3.2,7.2,7.6,9.2,12.5c2.5,6.8,2.6,14.6-0.2,21.3
		c-2.2,5.6-6.1,10.5-11.1,13.8c-3.3,2.3-7.2,3.7-11.2,4.5c-0.7,0.1-1.5,0.1-2.2,0.2c-1-9.8-2-19.6-3.1-29.4
		C504,215.5,503,205.8,502,196.1z"/>
	<path class="st27" d="M387.4,366.7c21.5,0,43,0,64.5,0c0,4.1,0,8.2,0,12.4c-21.5,0-43,0-64.5,0
		C387.4,374.9,387.4,370.8,387.4,366.7z"/>
	<path class="st28" d="M587.4,189.5c2-0.6,4,0,5.9,0.7c2.9,1.3,5.2,3.8,6.2,6.8c0.5,1.6,0.4,3.6-0.8,4.8c-0.9,1.3-2.5,1.7-4,1.8
		c-3.4-0.1-6.6-1.9-8.7-4.5c-1.5-1.9-2.4-4.4-1.8-6.8C584.9,191,585.9,189.8,587.4,189.5z"/>
	<path class="st28" d="M310.7,219.4c1.2-0.5,2.6-0.4,3.9,0c0.9,0.4,1.6,1.1,2.2,1.8c1.1,2.1,0.8,4.5-0.1,6.6
		c-1.4,3.1-4.1,5.7-7.4,6.6c-1.5,0.3-3.3,0.3-4.5-0.9c-1.4-0.9-1.9-2.7-1.8-4.3C303.2,224.7,306.5,220.7,310.7,219.4z"/>
	<path class="st28" d="M414.5,624.7c1.9-0.4,3.9,0.3,5.6,1.1c3.2,1.6,5.6,4.7,6.2,8.3c0.1,1.6,0,3.4-1.3,4.5c-1.4,1.7-3.9,2-5.9,1.3
		c-4.6-1.3-8.6-5.6-8.6-10.5C410.4,627.1,412.2,625,414.5,624.7z"/>
	<path class="st28" d="M514.3,624.7c1.9-0.5,3.8,0.2,5.6,1.1c3,1.5,5.3,4.5,6.1,7.8c0.3,1.7,0.2,3.8-1.2,5c-1.4,1.8-3.9,2-5.9,1.3
		c-3.2-0.8-5.9-3.1-7.4-6c-1-2-1.6-4.5-0.7-6.6C511.5,626,512.7,624.8,514.3,624.7z"/>
	<path class="st29" d="M421.4,233.3c2.2-0.7,4.7-0.5,6.4,1.1c2.5,1.8,3.2,5.6,1.8,8.4c-0.7,1.6-2.3,2.5-3.8,3.3
		c-2.5,1-5.4-0.1-7.1-1.9c-1.5-1.4-1.7-3.6-1.7-5.6C417.5,236.2,419.2,234.1,421.4,233.3z"/>
	<path class="st29" d="M387.4,348.5c21.5,0,43,0,64.5,0c0,4.1,0,8.3,0,12.4c-21.5,0-43,0-64.4,0
		C387.4,356.7,387.4,352.6,387.4,348.5z"/>
	<g id="_x23_3cc69cff">
		<path class="st30" d="M492,226.5c1.8-0.8,3.8-1.1,5.7-0.6c1.8,1,3.4,2.7,3.4,4.9c0.6,3-1.7,5.8-4.6,6.4c-3.2,0.6-6.7-1.9-6.9-5.2
			C489.3,229.9,490.5,228,492,226.5z"/>
	</g>
	<g id="_x23_289f7aff">
		<path class="st31" d="M377.9,238.5c11-1.2,22.1-2.3,33.1-3.5c1.2,11.3,2.3,22.6,3.5,33.8c-4.1,0.4-8.3,0.1-12.2-1
			c-11.9-3.1-21.7-13.4-24.2-25.5C378.1,241.1,378,239.8,377.9,238.5z"/>
		<path class="st31" d="M476.4,228.2c5.2-0.7,10.4-1.1,15.6-1.7c-1.5,1.4-2.7,3.4-2.3,5.5c0.2,3.3,3.7,5.8,6.9,5.2
			c2.8-0.6,5.1-3.5,4.6-6.4c0-2.2-1.6-3.8-3.4-4.9c2.4-0.2,4.9-0.5,7.3-0.8c1.1,9.8,2.1,19.6,3.1,29.4c-7.6,0.8-15.4-1.7-21.4-6.4
			c-5-4.2-8.8-10-10.1-16.4C476.5,230.6,476.5,229.4,476.4,228.2z"/>
	</g>
	<path class="st3" d="M549.9,338.3l0.4-0.2c1.7,2.3,3.2,4.9,4.9,7.3c1.3,2,2.8,4,3.6,6.3c-3.2,2-6.4,4-9.6,6c0-6.3-0.1-12.6,0-18.9
		C549.3,338.6,549.7,338.4,549.9,338.3z"/>
	<path class="st3" d="M549.2,362.5c4.1-2.4,8.1-4.9,12.2-7.3c0.6,1.4,1.6,2.5,2.4,3.8c0.8,1.2,1,2.7,1.9,3.8
		c1.6,1.9,3.9,3.2,6.1,4.3c-2,2.1-3.2,4.8-4.4,7.4c-1.3,2.8-2.4,5.7-3.6,8.6c-3.6-0.8-7-2.5-9.5-5.2c-2-2-3.5-4.4-5.2-6.6
		C549.1,368.4,549,365.4,549.2,362.5z"/>
	<path class="st3" d="M574.5,368.2c6.8,2.5,13.9,4,21,5.3c-1.1,5.9-2,11.8-2.8,17.8c-2.8,0.2-5.6-0.6-8.3-1.1
		c-5.8-1.1-11.5-3.1-17-5.1C569.7,379.4,573.9,374.4,574.5,368.2z"/>
	<path class="st3" d="M599.5,374.1c4.3,0.7,8.7,1.2,13,1.7c1.8,0.2,3.6,0.1,5.4,0.6c1.6,0.5,3.3,0.3,4.9,0.6
		c-0.3,6.5-0.9,13-1.1,19.5c-3.8-0.7-7.6-0.9-11.4-1.6c-4.5-0.7-8.9-1.5-13.4-2.4c-0.7-0.3-0.9,0.5-1.3,0.9
		C597.4,387,598.7,380.6,599.5,374.1z"/>
	<path class="st3" d="M627.3,377.7c2.7,0.4,5.4-0.2,8.1,0.3c1.3,0.2,2.7-0.1,4,0c8.9,0.5,17.7,1,26.6,1.1c2.9,0.1,5.7,0,8.6,0.3
		c-5.6,2.8-9.5,8.7-9.7,15c-0.3,5.4,2.2,10.7,6.2,14.1c-4,0.4-8,0.5-12,0.6c-1.4,0-2.8-0.1-4.2-0.1c0.5-0.7,0.9-1.4,1.6-1.9
		c2.1-1.7,4.3-3.3,6.4-5.1c-2.5-2-5.2-3.8-8-5.3c0-5.8,0.4-11.7,0.2-17.5c-1.4-0.1-2.8-0.2-4.3-0.3c-0.1,6-0.1,12.1,0.1,18.1
		c-2.2,0.5-4.5,0.2-6.8,0.3c-6.3-0.1-12.6-0.1-18.8-0.5C626,390.4,626.7,384.1,627.3,377.7z"/>
	<path class="st3" d="M648.5,406.3c1.3,0.1,1.7-1.5,2.4-2.3c0,1.7,0.1,3.3,0,5c-8.7-0.1-17.4-0.5-26.1-1.1c0-0.6-0.1-1.3-0.1-1.9
		C632.7,405.9,640.6,406.5,648.5,406.3z"/>
	<path class="st4" d="M563.1,394.3c1.2-3.1,2.7-6.2,4.1-9.2c5.6,2,11.2,4,17,5.1c2.7,0.5,5.5,1.3,8.3,1.1c-0.4,3.6-1.1,7.2-2,10.6
		c-2.5-0.5-4.8-1.7-7.3-2.3C576.6,397.6,570,395.5,563.1,394.3z"/>
	<path class="st5" d="M558.7,351.7c0.1-0.1,0.3-0.2,0.3-0.2c0.8,1.3,1.6,2.4,2.3,3.7c-4.1,2.4-8.1,4.9-12.2,7.3
		c-0.1-1.6-0.1-3.2-0.1-4.9C552.3,355.7,555.5,353.6,558.7,351.7z"/>
	<path class="st5" d="M571.9,367.1c0.9,0.4,1.7,0.8,2.6,1.1c-0.6,6.3-4.8,11.2-7.2,16.8c-1.5,3-2.9,6.1-4.1,9.2
		c-0.3,0.7-0.6,1.4-0.9,2c-1.2-0.7-2.3-1.4-3.5-2.1c1.5-3.8,3.6-7.3,5.1-11.1c1.2-2.9,2.3-5.7,3.6-8.6
		C568.6,371.9,569.9,369.2,571.9,367.1z"/>
	<g id="_x23_cf452aff">
		<path class="st32" d="M493.1,350.1c3.3-0.7,6.8,0.3,9.4,2.4c2.1,1.6,3.4,4,4.1,6.4c0.7,3.1,0,6.4-1.8,9c-2.2,3.2-6.1,5.2-10,5
			c-5.6-0.2-10.5-5-10.9-10.6c-0.4-4,1.7-8,5-10.3C490.1,351.1,491.7,350.6,493.1,350.1z"/>
	</g>
	<path class="st6" d="M549.1,371.3c1.7,2.2,3.2,4.6,5.2,6.6c2.6,2.6,5.9,4.4,9.5,5.2c-1.5,3.8-3.6,7.3-5.1,11.1
		c-3.4-2.2-6.5-4.6-9.6-7.2C549.1,381.7,549.1,376.5,549.1,371.3z"/>
	<path class="st7" d="M595.4,373.5c1.3,0.2,2.7,0.4,4,0.6c-0.8,6.5-2.1,12.9-3.8,19.2c-0.7,3-1.4,6-1.6,9c0,1,0.1,2,0.2,3
		c-1.7-0.3-3.4-0.2-5.1-0.6c0.5-0.9,1-1.9,1.4-2.8c1-3.5,1.7-7,2-10.6C593.4,385.3,594.4,379.4,595.4,373.5z"/>
	<path class="st8" d="M622.8,376.7c1.5,0.2,3,0.4,4.5,0.7l0,0.3c-0.6,6.4-1.3,12.7-2,19.1c-0.4,3.1-0.5,6.2-0.6,9.2
		c0,0.6,0,1.3,0.1,1.9c-0.3,0-0.8,0-1.1-0.1c-1.5-0.2-3.1,0.1-4.6-0.3c0.5,0,0.9-0.1,1.4-0.1c0.1-0.9,0.3-1.7,0.4-2.6
		c0.4-2.8,0.6-5.6,0.8-8.4c0.1-6.5,0.7-13,1.1-19.5L622.8,376.7z"/>
	<path class="st9" d="M651,397c-0.1-6-0.2-12.1-0.1-18.1c1.4,0.1,2.8,0.2,4.3,0.3c0.2,5.8-0.2,11.7-0.2,17.5
		c-0.1,4.1-0.1,8.2-0.1,12.4c-1.3,0.1-2.6,0.1-4,0c0.1-1.7,0.1-3.3,0-5C650.9,401.7,651.2,399.3,651,397z"/>
	<path class="st10" d="M563.1,394.3c6.8,1.3,13.5,3.3,20.2,5.3c2.5,0.7,4.8,1.8,7.3,2.3c-0.4,1-1,1.9-1.4,2.8
		c-1.4-0.3-3-0.3-4.4-0.4c-0.3-0.2-0.6-0.4-0.9-0.5c-1.8,0.1-3.5-0.5-5.2-1c-5.8-1.3-11.3-3.6-16.4-6.6
		C562.5,395.6,562.8,394.9,563.1,394.3z"/>
	<path class="st11" d="M595.7,393.3c0.3-0.4,0.6-1.2,1.3-0.9c4.4,0.9,8.9,1.7,13.4,2.4c3.8,0.7,7.6,1,11.4,1.6
		c-0.2,2.8-0.4,5.6-0.8,8.4c-4.9-0.4-9.8-0.7-14.8-1.2c-4.1-0.4-8.1-1.1-12.1-1.3C594.2,399.3,595,396.3,595.7,393.3z"/>
	<path class="st12" d="M624.7,406c0.1-3.1,0.2-6.2,0.6-9.2c6.3,0.4,12.6,0.4,18.8,0.5c2.3-0.1,4.6,0.2,6.8-0.3c0.3,2.4,0,4.7,0,7.1
		c-0.7,0.8-1.1,2.4-2.4,2.3C640.6,406.5,632.7,405.9,624.7,406z"/>
	<path class="st13" d="M654.9,409c0-4.1,0-8.3,0.1-12.4c2.8,1.5,5.5,3.3,8,5.3c-2.1,1.8-4.2,3.4-6.4,5.1
		C655.8,407.6,655.4,408.4,654.9,409L654.9,409z"/>
	<path class="st14" d="M594,402.4c4.1,0.2,8.1,0.9,12.1,1.3c4.9,0.5,9.8,0.8,14.8,1.2c-0.1,0.9-0.3,1.7-0.4,2.6
		c-0.5,0-0.9,0.1-1.4,0.1c-8.3-0.6-16.6-1.5-24.9-2.3C594.2,404.3,594.1,403.4,594,402.4z"/>
	<g id="_x23_404f4a87">
		<path class="st15" d="M623.7,407.9c0.3,0,0.8,0,1.1,0.1c8.7,0.6,17.4,1,26.1,1.1c1.3,0.1,2.6,0.1,4,0l0.1,0c1.4,0,2.8,0.1,4.2,0.1
			c-4.7,0.3-9.5-0.1-14.3,0C637.8,408.8,630.7,408.7,623.7,407.9z"/>
	</g>
	<g class="st33">
		<path class="st34" d="M699.8,191.2c0-1.5,0.2-2.7,0.7-3.6s1.2-1.7,2.2-2.3c0.5-0.3,1-0.6,1.5-0.9c0.6-0.3,1.1-0.6,1.6-1.1
			c0.5-0.4,0.9-0.9,1.2-1.5c0.3-0.6,0.5-1.3,0.5-2.2c0-0.8-0.1-1.4-0.4-2c-0.3-0.6-0.6-1-1.1-1.4c-0.4-0.4-0.9-0.7-1.5-0.9
			c-0.6-0.2-1.2-0.3-1.8-0.3c-1.2,0-2.4,0.3-3.3,1c-1,0.7-1.7,1.5-2.2,2.5l-1.6-1c0.3-0.7,0.7-1.4,1.2-1.9s1.1-1,1.7-1.4
			c0.6-0.4,1.3-0.7,2-0.9c0.7-0.2,1.5-0.3,2.2-0.3c0.9,0,1.7,0.1,2.5,0.4c0.8,0.3,1.5,0.7,2.2,1.2c0.6,0.6,1.1,1.2,1.5,2.1
			c0.4,0.8,0.6,1.8,0.6,2.9c0,0.9-0.1,1.7-0.4,2.3c-0.3,0.6-0.6,1.2-1.1,1.6c-0.4,0.5-0.9,0.9-1.5,1.2c-0.6,0.3-1.1,0.7-1.7,1
			c-0.4,0.2-0.8,0.5-1.2,0.7c-0.4,0.2-0.7,0.6-1,0.9c-0.3,0.4-0.5,0.9-0.7,1.4s-0.3,1.2-0.3,2.1H699.8z M699.9,198.2v-3.7h2v3.7
			H699.9z"/>
	</g>
	<pattern  id="SVGID_2_" xlink:href="#Unnamed_Pattern" patternTransform="matrix(1 0 0 -1 410.283 -18499.2383)">
	</pattern>
	<path class="st35" d="M243.3,379.3c5.6,2.8,9.5,8.7,9.7,15c0.3,5.4-2.2,10.7-6.2,14.1c-4.5,4-11.2,5.1-16.9,3.2
		c-2.6-1-5-2.4-6.9-4.5c-2.2-2.2-3.6-4.9-4.5-7.8c-0.6-2.9-0.7-5.9,0-8.7c1.4-5,5-9.3,9.7-11.6C232.9,376.9,238.6,376.9,243.3,379.3
		 M228,392.9c-0.3,2.1-0.3,4.3,0.8,6.2c1.5,2.6,4.4,4.2,7.4,4.1c2.5,0,4.9-1.4,6.3-3.4c1.5-2,1.9-4.6,1.3-7c-0.7-2.8-3.1-5-5.9-5.7
		C233.8,385.9,229,388.7,228,392.9z"/>
	<pattern  id="SVGID_3_" xlink:href="#Unnamed_Pattern" patternTransform="matrix(1 0 0 -1 410.283 -18499.2383)">
	</pattern>
	<path class="st36" d="M228.2,379c-4.7,2.3-8.3,6.6-9.7,11.6c-6.4-4.3-12.6-8.8-18.7-13.4c-4.8,0.9-9.5,2.2-14.2,3.4
		c-4.2,1.2-8.5,2.1-12.6,3.4c-0.7-5.7-1-11.4-1.1-17.1c10.8-1.8,20.9-6.7,31.9-6.9c8.7,5.4,16.7,11.8,24.9,17.9
		C229.3,378.2,228.7,378.8,228.2,379z"/>
	<pattern  id="SVGID_4_" xlink:href="#Unnamed_Pattern" patternTransform="matrix(1 0 0 -1 410.283 -18499.2383)">
	</pattern>
	<path class="st37" d="M243.8,392.8c0.6,2.4,0.2,5-1.3,7c-1.5,2-3.8,3.3-6.3,3.4c-3,0.2-5.9-1.5-7.4-4.1c-1.1-1.8-1.1-4.1-0.8-6.2
		c1-4.3,5.7-7.1,9.9-5.9C240.7,387.8,243.1,390,243.8,392.8z"/>
	<pattern  id="SVGID_5_" xlink:href="#Unnamed_Pattern" patternTransform="matrix(1 0 0 -1 410.283 -18499.2383)">
	</pattern>
	<path class="st38" d="M229.9,411.6c-7.3,6.4-13.7,13.6-20.6,20.5c-4.3-0.2-8.5-1-12.8-1.2c-1.9-0.6-3.8-0.4-5.8-0.5
		c-4.8-0.2-9.5-0.6-14.3-1c-0.4-5.6-1-11.2-1.3-16.8c8.9,0.2,17.6,2.2,26.5,2.2c1.2,0.1,1.9-1,2.7-1.7c5-4.2,9-9.5,14.1-13.7
		c0.9,2.9,2.3,5.7,4.5,7.8C224.9,409.2,227.3,410.6,229.9,411.6z"/>
	<pattern  id="SVGID_6_" xlink:href="#Unnamed_Pattern" patternTransform="matrix(1 0 0 -1 410.283 -18499.2383)">
	</pattern>
	<path class="st39" d="M368.7,338.6c0.1,6.3,0,12.6,0,18.9c-3.2-2-6.4-4-9.6-6c0.8-2.3,2.4-4.2,3.6-6.3c1.6-2.4,3.1-4.9,4.9-7.3
		l0.4,0.2C368.2,338.3,368.6,338.5,368.7,338.6z"/>
	<pattern  id="SVGID_7_" xlink:href="#Unnamed_Pattern" patternTransform="matrix(1 0 0 -1 410.283 -18499.2383)">
	</pattern>
	<path class="st40" d="M368.8,371.2c-1.7,2.2-3.2,4.6-5.2,6.6c-2.6,2.6-5.9,4.4-9.5,5.2c-1.2-2.9-2.3-5.7-3.6-8.6
		c-1.2-2.6-2.4-5.3-4.4-7.4c2.2-1.1,4.5-2.3,6.1-4.3c1-1.1,1.2-2.6,1.9-3.8c0.8-1.3,1.8-2.4,2.4-3.8c4.1,2.4,8.1,4.9,12.2,7.3
		C368.9,365.3,368.8,368.2,368.8,371.2z"/>
	<pattern  id="SVGID_8_" xlink:href="#Unnamed_Pattern" patternTransform="matrix(1 0 0 -1 410.283 -18499.2383)">
	</pattern>
	<path class="st41" d="M350.6,384.9c-5.6,2-11.2,4-17,5.1c-2.7,0.5-5.5,1.3-8.3,1.1c-0.8-5.9-1.8-11.9-2.8-17.8
		c7.1-1.3,14.2-2.7,21-5.3C344.1,374.3,348.2,379.3,350.6,384.9z"/>
	<pattern  id="SVGID_9_" xlink:href="#Unnamed_Pattern" patternTransform="matrix(1 0 0 -1 410.283 -18499.2383)">
	</pattern>
	<path class="st42" d="M322.2,393.2c-0.3-0.4-0.6-1.2-1.3-0.9c-4.4,0.9-8.9,1.7-13.4,2.4c-3.8,0.7-7.6,1-11.4,1.6
		c-0.1-6.5-0.7-13-1.1-19.5c1.6-0.3,3.3-0.1,4.9-0.6c1.8-0.5,3.6-0.3,5.4-0.6c4.3-0.6,8.7-1,13-1.7
		C319.2,380.4,320.5,386.9,322.2,393.2z"/>
	<pattern  id="SVGID_10_" xlink:href="#Unnamed_Pattern" patternTransform="matrix(1 0 0 -1 410.283 -18499.2383)">
	</pattern>
	<path class="st43" d="M292.6,396.6c-6.3,0.4-12.6,0.4-18.8,0.5c-2.3-0.1-4.6,0.2-6.8-0.3c0.1-6,0.2-12.1,0.1-18.1
		c-1.4,0.1-2.8,0.2-4.3,0.3c-0.2,5.8,0.2,11.7,0.2,17.5c-2.8,1.5-5.5,3.3-8,5.3c2.1,1.8,4.2,3.4,6.4,5.1c0.7,0.5,1.1,1.2,1.6,1.9
		c-1.4,0-2.8,0.1-4.2,0.1c-4-0.1-8-0.2-12-0.6c4.1-3.5,6.5-8.8,6.2-14.1c-0.2-6.3-4.1-12.2-9.7-15c2.9-0.3,5.7-0.1,8.6-0.3
		c8.9-0.2,17.8-0.6,26.6-1.1c1.3-0.1,2.7,0.2,4,0c2.7-0.4,5.4,0.1,8.1-0.3C291.2,383.9,291.9,390.3,292.6,396.6z"/>
	<pattern  id="SVGID_11_" xlink:href="#Unnamed_Pattern" patternTransform="matrix(1 0 0 -1 410.283 -18499.2383)">
	</pattern>
	<path class="st44" d="M293.2,405.9c0,0.6,0,1.3-0.1,1.9c-8.7,0.6-17.4,1-26.1,1.1c-0.1-1.7-0.1-3.3,0-5c0.7,0.8,1.1,2.4,2.4,2.3
		C277.3,406.4,285.2,405.7,293.2,405.9z"/>
	<pattern  id="SVGID_12_" xlink:href="#Unnamed_Pattern" patternTransform="matrix(1 0 0 -1 410.283 -18499.2383)">
	</pattern>
	<path class="st45" d="M334.6,399.4c-2.5,0.7-4.8,1.8-7.3,2.3c-1-3.5-1.7-7-2-10.6c2.8,0.2,5.6-0.6,8.3-1.1c5.8-1.1,11.5-3.1,17-5.1
		c1.5,3,2.9,6.1,4.1,9.2C347.9,395.4,341.3,397.4,334.6,399.4z"/>
	<pattern  id="SVGID_13_" xlink:href="#Unnamed_Pattern" patternTransform="matrix(1 0 0 -1 410.283 -18499.2383)">
	</pattern>
	<path class="st46" d="M368.8,357.5c0,1.6,0,3.2-0.1,4.9c-4.1-2.4-8.1-4.9-12.2-7.3c0.7-1.3,1.6-2.5,2.3-3.7
		c0.1,0.1,0.3,0.2,0.3,0.2C362.4,353.5,365.6,355.5,368.8,357.5z"/>
	<pattern  id="SVGID_14_" xlink:href="#Unnamed_Pattern" patternTransform="matrix(1 0 0 -1 410.283 -18499.2383)">
	</pattern>
	<path class="st47" d="M350.4,374.4c1.3,2.8,2.4,5.7,3.6,8.6c1.5,3.8,3.6,7.3,5.1,11.1c-1.1,0.7-2.3,1.4-3.5,2.1
		c-0.3-0.7-0.7-1.3-0.9-2c-1.2-3.1-2.7-6.2-4.1-9.2c-2.4-5.6-6.6-10.6-7.2-16.8c0.9-0.4,1.7-0.7,2.6-1.1
		C348,369.1,349.3,371.7,350.4,374.4z"/>
	<pattern  id="SVGID_15_" xlink:href="#Unnamed_Pattern" patternTransform="matrix(1 0 0 -1 410.283 -18499.2383)">
	</pattern>
	<path class="st48" d="M368.8,386.8c-3.1,2.6-6.2,5-9.6,7.2c-1.5-3.8-3.6-7.3-5.1-11.1c3.6-0.8,7-2.5,9.5-5.2c2-2,3.5-4.4,5.2-6.6
		C368.8,376.4,368.8,381.6,368.8,386.8z"/>
	<pattern  id="SVGID_16_" xlink:href="#Unnamed_Pattern" patternTransform="matrix(1 0 0 -1 410.283 -18499.2383)">
	</pattern>
	<path class="st49" d="M325.3,391.1c0.4,3.6,1.1,7.2,2,10.6c0.4,1,1,1.9,1.4,2.8c-1.7,0.4-3.4,0.4-5.1,0.6c0.1-1,0.2-2,0.2-3
		c-0.2-3.1-1-6.1-1.6-9c-1.7-6.3-3-12.8-3.8-19.2c1.4-0.2,2.7-0.4,4-0.6C323.5,379.2,324.5,385.2,325.3,391.1z"/>
	<pattern  id="SVGID_17_" xlink:href="#Unnamed_Pattern" patternTransform="matrix(1 0 0 -1 410.283 -18499.2383)">
	</pattern>
	<path class="st50" d="M295.1,376.9c0.3,6.5,0.9,13,1.1,19.5c0.2,2.8,0.4,5.6,0.8,8.4c0.1,0.9,0.3,1.7,0.4,2.6
		c0.5,0,0.9,0.1,1.4,0.1c-1.5,0.4-3.1,0.1-4.6,0.3c-0.3,0-0.8,0-1.1,0.1c0-0.6,0.1-1.3,0.1-1.9c-0.1-3.1-0.2-6.2-0.6-9.2
		c-0.7-6.4-1.4-12.7-2-19.1l0-0.3c1.5-0.3,3-0.5,4.5-0.7L295.1,376.9z"/>
	<pattern  id="SVGID_18_" xlink:href="#Unnamed_Pattern" patternTransform="matrix(1 0 0 -1 410.283 -18499.2383)">
	</pattern>
	<path class="st51" d="M267,403.9c0,1.7-0.1,3.3,0,5c-1.3,0.1-2.6,0.1-4,0c0-4.1,0-8.3-0.1-12.4c0-5.8-0.4-11.7-0.2-17.5
		c1.4-0.1,2.8-0.2,4.3-0.3c0.1,6,0.1,12.1-0.1,18.1C266.7,399.2,267,401.6,267,403.9z"/>
	<pattern  id="SVGID_19_" xlink:href="#Unnamed_Pattern" patternTransform="matrix(1 0 0 -1 410.283 -18499.2383)">
	</pattern>
	<path class="st52" d="M355.7,396.1c-5.1,3-10.6,5.3-16.4,6.6c-1.7,0.4-3.4,1-5.2,1c-0.3,0.2-0.6,0.3-0.9,0.5c-1.5,0.1-3,0-4.4,0.4
		c-0.5-0.9-1-1.9-1.4-2.8c2.5-0.5,4.8-1.7,7.3-2.3c6.7-2,13.3-4,20.2-5.3C355.1,394.8,355.4,395.5,355.7,396.1z"/>
	<pattern  id="SVGID_20_" xlink:href="#Unnamed_Pattern" patternTransform="matrix(1 0 0 -1 410.283 -18499.2383)">
	</pattern>
	<path class="st53" d="M323.9,402.2c-4.1,0.2-8.1,0.9-12.1,1.3c-4.9,0.5-9.8,0.8-14.8,1.2c-0.4-2.8-0.6-5.6-0.8-8.4
		c3.8-0.7,7.6-0.9,11.4-1.6c4.5-0.7,8.9-1.5,13.4-2.4c0.7-0.3,0.9,0.5,1.3,0.9C322.9,396.2,323.7,399.2,323.9,402.2z"/>
	<pattern  id="SVGID_21_" xlink:href="#Unnamed_Pattern" patternTransform="matrix(1 0 0 -1 410.283 -18499.2383)">
	</pattern>
	<path class="st54" d="M269.4,406.2c-1.3,0.1-1.7-1.5-2.4-2.3c0-2.4-0.3-4.7,0-7.1c2.2,0.5,4.5,0.2,6.8,0.3
		c6.3-0.1,12.6-0.1,18.8-0.5c0.4,3.1,0.5,6.2,0.6,9.2C285.2,405.7,277.3,406.4,269.4,406.2z"/>
	<pattern  id="SVGID_22_" xlink:href="#Unnamed_Pattern" patternTransform="matrix(1 0 0 -1 410.283 -18499.2383)">
	</pattern>
	<path class="st55" d="M262.9,408.9c-0.5-0.7-0.9-1.4-1.6-1.9c-2.1-1.7-4.3-3.3-6.4-5.1c2.5-2,5.2-3.8,8-5.3
		C263.1,400.6,263.1,404.8,262.9,408.9L262.9,408.9z"/>
	<pattern  id="SVGID_23_" xlink:href="#Unnamed_Pattern" patternTransform="matrix(1 0 0 -1 410.283 -18499.2383)">
	</pattern>
	<path class="st56" d="M323.7,405.2c-8.3,0.8-16.6,1.6-24.9,2.3c-0.5,0-0.9-0.1-1.4-0.1c-0.1-0.9-0.3-1.7-0.4-2.6
		c4.9-0.4,9.8-0.7,14.8-1.2c4.1-0.4,8.1-1.1,12.1-1.3C323.8,403.2,323.7,404.2,323.7,405.2z"/>
	<g id="_x23_404f4a87_2_">
		<pattern  id="SVGID_24_" xlink:href="#Unnamed_Pattern" patternTransform="matrix(1 0 0 -1 410.283 -18499.2383)">
		</pattern>
		<path class="st57" d="M273,409c-4.8-0.1-9.5,0.3-14.3,0c1.4,0,2.8-0.1,4.2-0.1l0.1,0c1.3,0.1,2.6,0.1,4,0
			c8.7-0.1,17.4-0.5,26.1-1.1c0.3,0,0.8,0,1.1-0.1C287.2,408.5,280.1,408.6,273,409z"/>
	</g>
	<g class="st33">
		<path class="st34" d="M621.4,93.9c0-2,0.3-3.5,0.9-4.7c0.6-1.2,1.6-2.1,2.9-2.9c0.6-0.4,1.2-0.7,2-1.1c0.7-0.4,1.4-0.8,2-1.4
			c0.6-0.5,1.1-1.2,1.6-1.9c0.4-0.7,0.6-1.7,0.6-2.7c0-1-0.2-1.8-0.5-2.5c-0.3-0.7-0.8-1.3-1.4-1.8s-1.2-0.8-1.9-1.1
			c-0.7-0.2-1.5-0.4-2.2-0.4c-1.6,0-3,0.4-4.3,1.3c-1.3,0.9-2.2,1.9-2.9,3.2l-2.1-1.3c0.4-0.9,0.9-1.7,1.6-2.4
			c0.6-0.7,1.4-1.3,2.2-1.8c0.8-0.5,1.7-0.9,2.6-1.1c0.9-0.3,1.9-0.4,2.9-0.4c1.1,0,2.2,0.2,3.2,0.5c1,0.3,2,0.9,2.8,1.6
			c0.8,0.7,1.5,1.6,2,2.7c0.5,1.1,0.7,2.3,0.7,3.7c0,1.2-0.2,2.2-0.5,3c-0.3,0.8-0.8,1.5-1.4,2.1c-0.6,0.6-1.2,1.1-1.9,1.5
			c-0.7,0.4-1.5,0.9-2.2,1.3c-0.5,0.3-1,0.6-1.5,0.9c-0.5,0.3-0.9,0.7-1.3,1.2c-0.4,0.5-0.7,1.1-0.9,1.8c-0.2,0.7-0.3,1.6-0.3,2.7
			H621.4z M621.5,102.8v-4.7h2.6v4.7H621.5z"/>
	</g>
	<g class="st33">
		<path class="st34" d="M188.8,198.1c0-1.6,0.2-2.8,0.7-3.7c0.5-0.9,1.2-1.7,2.3-2.3c0.5-0.3,1-0.6,1.6-0.9c0.6-0.3,1.1-0.7,1.6-1.1
			s0.9-0.9,1.3-1.5c0.3-0.6,0.5-1.3,0.5-2.2c0-0.8-0.1-1.5-0.4-2c-0.3-0.6-0.6-1-1.1-1.4c-0.4-0.4-1-0.7-1.5-0.9
			c-0.6-0.2-1.2-0.3-1.8-0.3c-1.3,0-2.4,0.3-3.4,1c-1,0.7-1.8,1.6-2.3,2.6l-1.7-1.1c0.3-0.7,0.8-1.4,1.3-1.9c0.5-0.6,1.1-1,1.8-1.4
			c0.6-0.4,1.3-0.7,2.1-0.9c0.7-0.2,1.5-0.3,2.3-0.3c0.9,0,1.7,0.1,2.6,0.4c0.8,0.3,1.6,0.7,2.2,1.3c0.6,0.6,1.2,1.3,1.6,2.1
			c0.4,0.9,0.6,1.8,0.6,3c0,0.9-0.1,1.7-0.4,2.4c-0.3,0.7-0.6,1.2-1.1,1.7c-0.4,0.5-1,0.9-1.5,1.2c-0.6,0.3-1.2,0.7-1.8,1
			c-0.4,0.2-0.8,0.5-1.2,0.7c-0.4,0.2-0.7,0.6-1,1c-0.3,0.4-0.5,0.9-0.7,1.4c-0.2,0.6-0.3,1.3-0.3,2.1H188.8z M188.9,205.3v-3.8h2.1
			v3.8H188.9z"/>
	</g>
	<g class="st33">
		<path class="st34" d="M264.6,109.2c0-1.4,0.2-2.6,0.7-3.4c0.4-0.9,1.2-1.6,2.1-2.1c0.4-0.3,0.9-0.5,1.4-0.8s1-0.6,1.5-1
			c0.5-0.4,0.8-0.9,1.2-1.4c0.3-0.5,0.5-1.2,0.5-2c0-0.7-0.1-1.3-0.4-1.9c-0.3-0.5-0.6-1-1-1.3c-0.4-0.4-0.9-0.6-1.4-0.8
			c-0.5-0.2-1.1-0.3-1.7-0.3c-1.2,0-2.2,0.3-3.2,1c-0.9,0.6-1.6,1.4-2.1,2.4l-1.5-1c0.3-0.7,0.7-1.3,1.2-1.8c0.5-0.5,1-1,1.6-1.3
			c0.6-0.4,1.2-0.6,1.9-0.8c0.7-0.2,1.4-0.3,2.1-0.3c0.8,0,1.6,0.1,2.4,0.4c0.8,0.3,1.4,0.6,2,1.2s1.1,1.2,1.4,2
			c0.4,0.8,0.5,1.7,0.5,2.8c0,0.9-0.1,1.6-0.4,2.2c-0.3,0.6-0.6,1.1-1,1.6c-0.4,0.4-0.9,0.8-1.4,1.1c-0.5,0.3-1.1,0.6-1.6,0.9
			c-0.4,0.2-0.8,0.4-1.1,0.7c-0.3,0.2-0.7,0.5-0.9,0.9c-0.3,0.4-0.5,0.8-0.7,1.3c-0.2,0.5-0.2,1.2-0.2,2H264.6z M264.6,115.8v-3.5
			h1.9v3.5H264.6z"/>
	</g>
	<g class="st33">
		<path class="st34" d="M672.3,304.7c0-2.1,0.3-3.8,1-5.1c0.7-1.3,1.7-2.3,3.1-3.1c0.6-0.4,1.3-0.8,2.1-1.2c0.8-0.4,1.5-0.9,2.2-1.5
			c0.7-0.6,1.2-1.3,1.7-2.1c0.5-0.8,0.7-1.8,0.7-3c0-1.1-0.2-2-0.6-2.7c-0.4-0.8-0.9-1.4-1.5-1.9c-0.6-0.5-1.3-0.9-2.1-1.2
			c-0.8-0.3-1.6-0.4-2.4-0.4c-1.7,0-3.3,0.5-4.6,1.4c-1.4,0.9-2.4,2.1-3.1,3.5l-2.3-1.4c0.4-1,1-1.9,1.7-2.6
			c0.7-0.8,1.5-1.4,2.4-1.9c0.9-0.5,1.8-0.9,2.8-1.2s2-0.4,3.1-0.4c1.2,0,2.3,0.2,3.5,0.6c1.1,0.4,2.1,0.9,3,1.7
			c0.9,0.8,1.6,1.7,2.1,2.9c0.5,1.2,0.8,2.5,0.8,4c0,1.3-0.2,2.4-0.6,3.2c-0.4,0.9-0.9,1.6-1.5,2.3c-0.6,0.6-1.3,1.2-2.1,1.7
			c-0.8,0.5-1.6,0.9-2.4,1.4c-0.6,0.3-1.1,0.6-1.6,1c-0.5,0.3-1,0.8-1.4,1.3c-0.4,0.5-0.7,1.2-1,1.9c-0.2,0.8-0.4,1.7-0.4,2.9H672.3
			z M672.4,314.5v-5.1h2.8v5.1H672.4z"/>
	</g>
	<g class="st33">
		<path class="st34" d="M243,292.7c0-2.3,0.4-4.1,1.1-5.4c0.7-1.3,1.8-2.4,3.3-3.3c0.7-0.4,1.4-0.8,2.3-1.3c0.8-0.4,1.6-1,2.3-1.6
			c0.7-0.6,1.3-1.4,1.8-2.2c0.5-0.9,0.7-1.9,0.7-3.2c0-1.1-0.2-2.1-0.6-2.9c-0.4-0.8-0.9-1.5-1.6-2.1c-0.7-0.6-1.4-1-2.2-1.3
			c-0.8-0.3-1.7-0.4-2.6-0.4c-1.8,0-3.5,0.5-5,1.5c-1.5,1-2.6,2.3-3.3,3.7l-2.4-1.5c0.5-1.1,1.1-2,1.8-2.8c0.8-0.8,1.6-1.5,2.5-2.1
			c0.9-0.6,2-1,3-1.3c1.1-0.3,2.2-0.4,3.3-0.4c1.3,0,2.5,0.2,3.7,0.6c1.2,0.4,2.3,1,3.2,1.8c0.9,0.8,1.7,1.8,2.3,3.1
			c0.6,1.2,0.8,2.7,0.8,4.3c0,1.4-0.2,2.5-0.6,3.5c-0.4,0.9-0.9,1.8-1.6,2.4c-0.7,0.7-1.4,1.3-2.2,1.8c-0.8,0.5-1.7,1-2.5,1.5
			c-0.6,0.3-1.2,0.7-1.7,1.1c-0.5,0.4-1,0.8-1.5,1.4c-0.4,0.6-0.8,1.3-1.1,2.1s-0.4,1.8-0.4,3.1H243z M243,303.1v-5.5h3v5.5H243z"/>
	</g>
	<defs>
		<filter id="Adobe_OpacityMaskFilter" filterUnits="userSpaceOnUse" x="171.9" y="656.4" width="574.7" height="593.9">
			<feColorMatrix  type="matrix" values="1 0 0 0 0  0 1 0 0 0  0 0 1 0 0  0 0 0 1 0"/>
		</filter>
	</defs>
	<mask maskUnits="userSpaceOnUse" x="171.9" y="656.4" width="574.7" height="593.9" id="SVGID_25_">
		<g class="st58">
			<linearGradient id="SVGID_26_" gradientUnits="userSpaceOnUse" x1="438.0435" y1="649.1742" x2="438.0435" y2="1268.8898">
				<stop  offset="0" style="stop-color:#FFFFFF"/>
				<stop  offset="6.880522e-003" style="stop-color:#F6F6F6"/>
				<stop  offset="4.762381e-002" style="stop-color:#C8C8C8"/>
				<stop  offset="9.341520e-002" style="stop-color:#9D9D9D"/>
				<stop  offset="0.1426" style="stop-color:#777777"/>
				<stop  offset="0.1962" style="stop-color:#575757"/>
				<stop  offset="0.2553" style="stop-color:#3C3C3C"/>
				<stop  offset="0.322" style="stop-color:#262626"/>
				<stop  offset="0.3999" style="stop-color:#151515"/>
				<stop  offset="0.4959" style="stop-color:#090909"/>
				<stop  offset="0.6304" style="stop-color:#020202"/>
				<stop  offset="1" style="stop-color:#000000"/>
			</linearGradient>
			<rect x="68.5" y="656.4" class="st59" width="739.1" height="619.7"/>
		</g>
	</mask>
	<g class="st60">
		<g id="_x23_686767ff_1_">
			<path class="st19" d="M460.1,983.8c29.9,0,59.7,0,89.6,0c0,2.5,0,5.1,0,7.6c-29.9,0-59.7,0-89.6,0
				C460.1,988.9,460.1,986.3,460.1,983.8z"/>
		</g>
		<g id="_x23_6c6b6bff_1_">
			<path class="st20" d="M369.4,983.8c30.2-0.1,60.5,0,90.7,0c0,2.5,0,5.1,0,7.6c-30.2,0-60.5,0-90.7,0
				C369.4,988.9,369.4,986.4,369.4,983.8z"/>
		</g>
		<path class="st1" d="M433.3,1239.9c0.9-2.9,3.7-5.1,6.7-5.4c1.2,0,2.3,0.2,3.4,0.5c2.8,0.9,4.9,3.6,5.2,6.5
			c0.1,1.8-0.2,3.8-1.3,5.3c-1.6,2.5-4.7,3.9-7.6,3.4c-2.9-0.2-5.5-2.3-6.5-5.1C432.8,1243.4,432.9,1241.6,433.3,1239.9z"/>
		<path class="st1" d="M407.1,1117.8c11.3,1.4,23-3.3,30.5-11.9c4.5-5.2,7.6-11.6,8.5-18.5c1-6.6-0.1-13.5-2.8-19.5
			c-5-11.4-16.4-19.7-28.8-20.8c0.3-2.9,0.6-5.8,0.9-8.7c8.9,1,17.6,4.5,24.4,10.4c5.5,4.8,9.9,10.9,12.5,17.7
			c2.4,6.7,3.5,14,2.6,21c-1.3,11.2-7,21.9-15.8,29c-9,7.6-21.2,11-32.8,9.8C406.5,1123.6,406.8,1120.7,407.1,1117.8z"/>
		<path class="st1" d="M506.1,1123.5c8,0.9,16.3-1.5,22.6-6.6c4.3-3.4,7.6-8,9.6-13.1c2.6-7.1,2.8-15.3-0.2-22.3
			c-2.3-5.9-6.4-11-11.6-14.4c-3.5-2.4-7.6-3.9-11.7-4.7c-0.7-0.2-1.5-0.5-2.2-0.7c0.2-2.4,0.5-4.7,0.7-7.1
			c11.5,1.1,22.5,7.7,28.6,17.5c6.5,10.1,7.8,23.3,3.4,34.5c-3.8,10.4-12.5,18.8-23,22.4c-5.4,1.8-11.3,2.6-17,1.9
			C505.6,1128.5,505.9,1126,506.1,1123.5z"/>
		<path class="st1" d="M522,975.3c-3.3-0.5-6.5-2.5-7.8-5.7c-1.8-3.7-1-8.4,1.7-11.4c1.5-1.4,3.3-2.5,5.3-2.9
			c3.8-0.9,8.1,0.7,10.4,3.9c2.6,3.6,2.5,8.8-0.1,12.3C529.3,974.3,525.6,975.8,522,975.3 M528.8,970.2c2.1-2.2,2.5-5.8,1.1-8.4
			c-1.9-3.8-7.4-5-10.8-2.3c-1.9,1.4-3.1,3.8-2.9,6.2c0.1,3.4,2.9,6.4,6.2,6.8C524.7,972.7,527.2,971.9,528.8,970.2z"/>
		<path class="st1" d="M493.7,968c-5-0.7-9.9-3.3-12.8-7.5c-2.1-2.8-3.3-6.3-3.6-9.7c-0.5-6.6,2.7-13.6,8.3-17.2
			c2.9-2,6.3-3,9.8-3.2c6.3-0.2,12.8,2.8,16.3,8.1c2.2,3.1,3.3,7,3.4,10.8c0,5.9-2.8,11.8-7.7,15.3
			C503.5,967.3,498.5,968.6,493.7,968 M503.9,963.2c4.7-2.5,7.9-7.6,8.2-12.9c0.3-4.6-1.4-9.2-4.7-12.5c-2.9-2.9-6.9-4.6-10.9-4.7
			c-4.4-0.1-8.8,1.7-11.9,4.9c-3.8,3.8-5.4,9.7-4.1,15c1.4,6.1,6.7,11,12.8,12C496.9,965.6,500.7,965,503.9,963.2z"/>
		<path class="st1" d="M523.9,950.5c-2.8-0.2-5.2-2.2-6.5-4.7c-1-2.4-1-5.3,0.1-7.7c0.9-1.6,2.3-2.9,3.9-3.8c2.4-1,5.3-1,7.7,0.1
			c2.1,1.2,3.9,3.2,4.3,5.6c0.7,2.8-0.1,6-2.3,8C529.3,950.1,526.5,950.9,523.9,950.5 M530.7,942.6c0.4-3.1-2.3-6.2-5.4-6.2
			c-3-0.2-5.8,2.4-5.8,5.4c-0.2,2.5,1.7,5,4.1,5.6C526.8,948.5,530.5,946,530.7,942.6z"/>
		<path class="st1" d="M675.2,931.4c-5.6-2.8-9.5-8.7-9.7-15c-0.3-5.4,2.2-10.7,6.2-14.1c4.5-4,11.2-5.1,16.9-3.2
			c2.6,1,5,2.4,6.9,4.5c2.2,2.2,3.6,4.9,4.5,7.8c0.6,2.9,0.7,5.9,0,8.7c-1.4,5-5,9.3-9.7,11.6C685.5,933.7,679.8,933.8,675.2,931.4
			 M690.4,917.7c0.3-2.1,0.3-4.3-0.8-6.2c-1.5-2.6-4.4-4.2-7.4-4.1c-2.5,0-4.9,1.4-6.3,3.4c-1.5,2-1.9,4.6-1.3,7
			c0.7,2.8,3.1,5,5.9,5.7C684.7,924.8,689.5,922,690.4,917.7z"/>
		<path class="st1" d="M394.9,785.7c8.9,0,17.7,0,26.6,0c0,4.9,0,9.7,0,14.6c-8.9,0-17.7,0-26.6,0
			C394.9,795.4,394.9,790.5,394.9,785.7z"/>
		<path class="st1" d="M493.2,785.7c8.9-0.1,17.7,0,26.6,0c0,4.9,0,9.7,0,14.5c-8.9,0-17.7,0-26.6,0
			C493.2,795.4,493.2,790.5,493.2,785.7z"/>
		<path class="st1" d="M394.9,762.4c8.9,0,17.7,0,26.6,0c0,4.7,0,9.4,0,14.2c-8.9,0-17.7,0-26.6,0
			C394.9,771.8,394.9,767.1,394.9,762.4z"/>
		<path class="st1" d="M493.2,762.4c8.9,0,17.7,0,26.6,0c0,4.7,0,9.4,0,14.2c-8.9,0-17.7,0-26.6,0
			C493.2,771.8,493.2,767.1,493.2,762.4z"/>
		<path class="st1" d="M394.9,737.6c8.9-0.1,17.7,0,26.6,0c0,5.2,0,10.4,0,15.6c-8.9,0-17.7,0-26.6,0
			C394.9,748,394.9,742.8,394.9,737.6z"/>
		<path class="st1" d="M493.2,737.6c8.9-0.1,17.7,0,26.6,0c0,5.2,0,10.4,0,15.6c-8.9,0-17.7,0-26.6,0
			C493.2,748,493.2,742.8,493.2,737.6z"/>
		<path class="st1" d="M394.9,713.6c8.9,0,17.7-0.1,26.6,0c0,5,0,9.9,0,14.9c-8.9,0.1-17.7,0-26.6,0
			C394.9,723.5,394.9,718.5,394.9,713.6z"/>
		<path class="st1" d="M493.2,713.6c8.9,0,17.7,0,26.6,0c0,5,0,9.9,0,14.9c-8.9,0-17.7,0.1-26.6,0
			C493.2,723.5,493.2,718.5,493.2,713.6z"/>
		<path class="st1" d="M394.9,690.3c8.7,2.8,18.3,2.2,26.6-1.6c0,5.2,0,10.5,0,15.7c-8.9,0-17.7,0-26.6,0
			C394.9,699.7,394.9,695,394.9,690.3z"/>
		<path class="st1" d="M493.2,689.5c2.3,0.8,4.6,1.6,7,2c6.6,1.2,13.4,0.5,19.6-1.8c0,4.9,0,9.9,0,14.8c-8.9,0-17.7,0-26.6,0
			C493.2,699.4,493.2,694.5,493.2,689.5z"/>
		<g id="_x23_595858ff_1_">
			<path class="st21" d="M440.6,1229.7c-2.1-1.2-4.3-2.3-6.3-3.6c-0.9-0.5-2.1-1-2.5-2.1c0-1.1,1.1-1.8,2-2.2
				c4.3-0.5,8.7-0.8,12.9-1.8c-3.8-1.7-7.6-3.6-11.5-5.3c-1.5-0.4-1.7-2.2-2-3.4c5.1-1,10.2-1.5,15.3-2.3c-4.4-2.2-8.9-4.2-13.3-6.5
				c-0.1-0.6-0.6-1.3-0.3-1.9c0.4-1.2,1.8-1.3,2.8-1.8c2.4-1,4.9-1.8,7.3-3c0.8-4.4,1.3-8.8,1.8-13.2c-1.4-1.2-3.1-2.2-4.3-3.6
				c2.7,0.2,5.4,0.5,8.1,0.8c1.8,0.2,3.7,0.4,5.5,0.6c-1.5,1.6-3.7,2.5-5.8,2.6c-0.9,5.1-1.2,10.2-2.2,15.2
				c-2.4,1.1-4.9,1.9-7.3,3.1c4.6,2.5,9.5,4.5,14.1,7.1c0.4,0.2,0.8,0.4,1.1,0.8c-0.1,0.6-0.1,1.3-0.5,1.9
				c-4.6,1.5-9.5,1.4-14.1,2.5c4,2.3,8.3,3.8,12.3,6c0.8,0.4,1.1,1.6,0.6,2.3c-0.3,0.7-1.2,0.8-1.9,0.9c-4.4,0.7-8.8,1.1-13.1,1.7
				c1.4,1.3,3.4,1.9,4.9,3.1c0,2.4-0.3,4.8-0.5,7.1c-1.1-0.3-2.3-0.4-3.4-0.5C440.2,1232.9,440.4,1231.3,440.6,1229.7z"/>
			<path class="st21" d="M432,1020.9c0.3-2.8,0.5-5.7,0.8-8.5c0.8,0,1.6,0.2,2.3-0.1c1.2-0.6,1.9-1.8,3-2.5c0.9-0.5,1.9-0.7,2.8-1.2
				c0.5-1.3-0.3-2.6-1.5-3.1c-1.3,1.3-2.5,2.8-4,3.9c-0.6,0.6-1.5,0.4-2.3,0.5c0.2-2.5,0.5-5,0.7-7.5c0.1-0.9,0.2-2,1-2.6
				c0.8-0.6,1.8-0.6,2.8-0.5c10.4,1.1,20.8,2.2,31.2,3.3c9.4,1,18.8,2,28.2,3c1.3,0.1,2.7,0.8,2.8,2.2c0.1,3.1-0.9,6.1-0.6,9.1
				c-2.3-0.9-4.5-2.2-6.9-3c-1-0.4-2.1,0.1-3.1,0.1c-0.8-0.4-1.5-1.3-2.5-1.3c-2-0.1-4-0.3-6.1-0.5c-2,2.4-2.9,5.5-4.1,8.3
				c-0.4-0.5-0.8-1.1-1.1-1.6c-1.7-3.4-3.5-6.6-5.5-9.9c-0.3-0.4-0.5-0.9-1-1c-1,0.5-1.5,1.5-1.7,2.5c-0.1-0.1-0.3-0.3-0.4-0.4
				c-0.9,0.9-2,1.1-3.2,0.8c-0.5-0.9-1-2-2.2-2.2c-1.3,0.6-2,2-3.3,2.5c-1.3-0.7-2.2-1.9-3.2-2.9c-0.7,1.1-1.4,2.2-2.2,3.3
				c-0.9-1.3-1.4-2.8-2.3-4.1c-1.1,0-1.9,1-2.2,2c-1.1,2.6-2.1,5.2-2.9,7.8c-1.5-2.6-1.5-5.8-3.4-8.2c-1-0.1-1.1,1.4-1,2.1
				c0.7,3.6,2.3,7,3.8,10.4c0.5-0.2,1.2-0.1,1.4-0.7c1.1-2.3,1.6-4.8,2.4-7.2c0.4-0.9,0.3-2.1,1.2-2.7c1.1,1.3,1.5,3,2.9,4
				c1.4-0.6,1.7-2.3,2.3-3.5c1.3,0.7,2.2,1.8,2.9,3c1.3-0.9,2.3-2.1,3.6-2.9c1.5,0.5,2,2.7,3.6,3.1c1.1-0.3,1.7-1.4,2.5-2.1
				c1.2,0.4,2.5,0.9,3.3,2c2,2.5,3.1,5.7,4.7,8.5c0.3,0.3,0.6,1.1,1.1,0.8c0.7-0.8,1.1-1.8,1.5-2.8c0.9-2.2,2.1-4.4,3.6-6.2
				c1.1-0.3,2.4,0.1,3.5,0.2c1.2,0.1,1.9,1.2,2.8,1.8c1.3,0,2.7-0.9,4-0.2c2.2,1.1,4.3,2.4,6.8,2.9c-0.6,2.1-0.6,4.3-0.9,6.5
				c-0.2,1.4-0.1,3.1-1.1,4.2c-0.8,0.9-2.2,0.7-3.3,0.6c-9.2-1-18.4-1.9-27.5-2.8c-9.9-1.1-19.8-2.1-29.7-3.1
				c-1.3-0.2-2.7-0.1-3.7-0.9C431.9,1023.2,431.9,1021.9,432,1020.9z"/>
		</g>
		<path class="st22" d="M327.6,1166.1c-2.2-0.6-3.8-2.4-5.4-3.9c-1.2-1.6-2.3-3.3-2.8-5.3c-0.3-2.4-0.9-4.8-0.5-7.2
			c1-9.9,2.1-19.8,3.1-29.7c3.2-30.8,6.4-61.5,9.6-92.3c1.4-12.8,2.6-25.7,4-38.5c1-2.6,1.4-5.7,3.6-7.7c1.5-2,3.7-3.2,5.9-4.2
			c1.1-0.5,2.3-0.5,3.5-0.6c1.2-0.1,2.5-0.4,3.7-0.3c9.3,1,18.6,1.9,27.9,2.9c30.1,3.1,60.1,6.3,90.2,9.4c-0.4,4.6-1,9.3-1.4,13.9
			c-10.4-1.1-20.8-2.2-31.2-3.3c-0.9-0.1-2-0.1-2.8,0.5c-0.8,0.6-0.9,1.7-1,2.6c-0.3,2.5-0.5,5-0.7,7.5c0.8,0,1.7,0.1,2.3-0.5
			c1.4-1.2,2.6-2.6,4-3.9c1.2,0.6,1.9,1.8,1.5,3.1c-0.9,0.5-1.9,0.7-2.8,1.2c-1.1,0.7-1.8,1.9-3,2.5c-0.7,0.3-1.6,0.1-2.3,0.1
			c-0.4,2.8-0.5,5.7-0.8,8.5c-0.1,1.1-0.1,2.4,0.9,3.1c1.1,0.8,2.5,0.7,3.7,0.9c9.9,1,19.8,2,29.7,3.1
			c-5.3,50.6-10.6,101.3-15.8,151.9c-2.7-0.3-5.4-0.6-8.1-0.8c-7.9-0.9-15.9-1.7-23.8-2.5c-28.7-3-57.5-6-86.2-9
			C330.7,1167.3,329.2,1166.5,327.6,1166.1 M363.4,1162.6c1.3,0.6,2.8,0.1,3.9-0.7c1-0.8,1.2-2.2,1.2-3.5c0-1.7-1.6-3.1-3.2-3.5
			c-1.1-0.3-2.1,0.4-3,0.8c-1.6,0.8-1.8,2.8-1.6,4.3C361.2,1161.3,362.3,1162.2,363.4,1162.6 M348.2,1157c1.7,0.4,3.4,0.7,5.1,0.5
			c1.4-0.2,2.6-1.2,3.3-2.4c0-2.1-2-3.3-3.5-4.4c-3.3-1.8-6.8-3.5-9.4-6.3c-2.5-2-4.1-4.9-5.7-7.6c-1.6-3.1-3.3-6.7-6.7-8.1
			c-1-0.1-1.7,0.8-2.4,1.4c-1.4,1.9-0.9,4.4-0.9,6.6c1.1,7.5,6.6,13.6,13.1,17.2C343.4,1155,345.8,1156.2,348.2,1157 M406.2,1126.5
			c11.7,1.2,23.8-2.2,32.8-9.8c8.8-7.1,14.5-17.8,15.8-29c0.9-7.1-0.2-14.4-2.6-21c-2.6-6.8-7-12.9-12.5-17.7
			c-6.8-5.9-15.5-9.4-24.4-10.4c-10.3-1-21.1,1.6-29.6,7.6c-3.5,2.3-6.6,5.4-9.3,8.6c-4.1,5-6.8,11-8.5,17.3
			c-0.9,4-1.3,8.2-1.2,12.4c0.4,6.7,2,13.3,5.3,19.2c1.8,3.3,3.9,6.5,6.6,9.2C385.8,1120.5,395.8,1125.3,406.2,1126.5z"/>
		<path class="st22" d="M441.3,1011.1c-0.2-0.7-0.1-2.3,1-2.1c1.9,2.4,1.9,5.7,3.4,8.2c0.8-2.7,1.8-5.3,2.9-7.8c0.4-1,1.1-1.9,2.2-2
			c0.9,1.3,1.5,2.8,2.3,4.1c0.8-1,1.4-2.2,2.2-3.3c1,1,2,2.2,3.2,2.9c1.3-0.5,2-1.9,3.3-2.5c1.1,0.2,1.6,1.3,2.2,2.2
			c1.2,0.3,2.3,0.1,3.2-0.8c0.1,0.1,0.3,0.3,0.4,0.4c0.2-1.1,0.7-2,1.7-2.5c0.5,0.1,0.7,0.6,1,1c1.9,3.2,3.8,6.5,5.5,9.9
			c0.3,0.6,0.7,1.1,1.1,1.6c1.2-2.8,2.1-5.9,4.1-8.3c2,0.2,4,0.4,6.1,0.5c1-0.1,1.7,0.8,2.5,1.3c1,0,2.1-0.5,3.1-0.1
			c2.4,0.8,4.5,2.1,6.9,3c0.2,0.9,0.1,1.8-0.2,2.6c-2.4-0.5-4.5-1.9-6.8-2.9c-1.3-0.7-2.7,0.2-4,0.2c-1-0.6-1.6-1.7-2.8-1.8
			c-1.2-0.1-2.4-0.5-3.5-0.2c-1.5,1.9-2.7,4-3.6,6.2c-0.4,1-0.8,2-1.5,2.8c-0.6,0.3-0.8-0.5-1.1-0.8c-1.6-2.8-2.7-5.9-4.7-8.5
			c-0.8-1-2.1-1.5-3.3-2c-0.8,0.7-1.4,1.8-2.5,2.1c-1.6-0.4-2.1-2.6-3.6-3.1c-1.3,0.8-2.3,2-3.6,2.9c-0.7-1.2-1.6-2.4-2.9-3
			c-0.6,1.3-0.9,2.9-2.3,3.5c-1.4-1-1.8-2.7-2.9-4c-0.9,0.6-0.8,1.8-1.2,2.7c-0.9,2.4-1.4,4.9-2.4,7.2c-0.2,0.6-0.9,0.5-1.4,0.7
			C443.7,1018.1,442.1,1014.8,441.3,1011.1z"/>
		<path class="st22" d="M369.4,983.8c0-4,0-8,0-12c0-1.7,0.1-3.4,0-5.2c0-3.3,0-6.6,0-9.9c-0.1-7.2,0.1-14.3-0.1-21.5
			c0.1-2.2,0-4.4,0-6.5c0-42.9,0-85.7,0-128.6c8.5,0,17,0,25.5,0c8.9,0,17.7,0,26.6,0c12.9,0,25.7,0,38.6,0
			c-0.1,61.2,0,122.4,0,183.6C429.8,983.8,399.6,983.8,369.4,983.8 M387.9,962.3c21.5,0,43,0,64.4,0c0-4.1,0-8.3,0-12.4
			c-21.5,0-43,0-64.4,0C387.9,954.1,387.9,958.2,387.9,962.3 M452.4,944.1c0-4.1,0-8.2,0-12.4c-21.5,0-43,0-64.5,0
			c0,4.1,0,8.2,0,12.4C409.4,944.1,430.9,944.1,452.4,944.1z"/>
		<path class="st2" d="M450.5,1179.8c5.3-50.6,10.5-101.3,15.8-151.9c9.2,0.9,18.4,1.8,27.5,2.8c1.1,0.1,2.5,0.3,3.3-0.6
			c1-1.2,0.9-2.8,1.1-4.2c0.3-2.2,0.3-4.4,0.9-6.5c0.3-0.8,0.4-1.7,0.2-2.6c-0.3-3.1,0.7-6.1,0.6-9.1c-0.1-1.4-1.5-2.1-2.8-2.2
			c-9.4-1-18.8-2-28.2-3c0.4-4.6,1-9.3,1.4-13.9c29.7,3.1,59.4,6.2,89.1,9.3c7.1,0.7,14.2,1.5,21.4,2.2c1.2,0.1,2.4,0.6,3.5,1
			c1.3,0.5,2.7,0.8,3.7,1.7c1.4,1.2,3,2.4,4,4.1c0.8,1.5,1.9,3,2,4.8c0.1,1.6,0.6,3.2,0.5,4.9c-1.3,12.1-2.5,24.3-3.8,36.4
			c-3.2,30.7-6.4,61.3-9.6,92c-1.1,10.2-2.1,20.4-3.2,30.6c-0.2,1.4-0.2,2.9-0.7,4.3c-0.8,2.1-1.2,4.4-2.9,6
			c-1.4,1.8-3.2,3.2-5.3,4.1c-1.5,1-3.3,0.9-5,1.2c-0.9,0.1-1.9,0.3-2.8,0.2c-35.1-3.6-70.2-7.4-105.3-10.9
			C454.2,1180.3,452.3,1180,450.5,1179.8 M505.4,1131c5.7,0.6,11.6-0.1,17-1.9c10.4-3.6,19.1-12,23-22.4c4.4-11.2,3.1-24.4-3.4-34.5
			c-6.1-9.9-17.1-16.4-28.6-17.5c-8.4-0.8-17.1,1.1-24.2,5.7c-5.6,3.5-10.3,8.4-13.3,14.3c-1.6,2.8-2.6,5.9-3.5,9
			c-3,11.9,0.1,25.2,8.3,34.4C486.8,1125.3,495.9,1129.9,505.4,1131z"/>
		<path class="st2" d="M460.1,983.8c0-61.2,0-122.4,0-183.6c11,0,22.1,0,33.1,0c8.9,0,17.7,0,26.6,0c10,0,19.9,0,29.9,0
			c0,41.2,0,82.4,0,123.6c-0.1,5.2-0.1,10.4,0,15.6c0,2.9-0.1,5.9,0.1,8.8c-0.1,1.6-0.1,3.2-0.1,4.9c0,6.3-0.1,12.6,0,18.9
			c0.2,0.1,0.5,0.3,0.7,0.4c-0.2,0-0.6,0-0.8,0c0,3.8,0,7.6,0,11.4C519.8,983.8,489.9,983.8,460.1,983.8 M522,975.3
			c3.5,0.5,7.3-1,9.5-3.8c2.7-3.5,2.7-8.7,0.1-12.3c-2.3-3.1-6.6-4.8-10.4-3.9c-2,0.4-3.8,1.5-5.3,2.9c-2.8,3-3.5,7.7-1.7,11.4
			C515.6,972.7,518.7,974.8,522,975.3 M493.7,968c4.8,0.6,9.8-0.7,13.6-3.5c4.9-3.4,7.7-9.4,7.7-15.3c-0.1-3.8-1.2-7.7-3.4-10.8
			c-3.5-5.3-10-8.4-16.3-8.1c-3.5,0.2-6.9,1.2-9.8,3.2c-5.7,3.6-8.8,10.6-8.3,17.2c0.3,3.5,1.5,6.9,3.6,9.7
			C483.8,964.6,488.7,967.3,493.7,968 M531.1,948.1c2.2-2,2.9-5.2,2.3-8c-0.4-2.4-2.2-4.4-4.3-5.6c-2.4-1.2-5.3-1.2-7.7-0.1
			c-1.6,0.8-3,2.2-3.9,3.8c-1.1,2.4-1.2,5.3-0.1,7.7c1.3,2.4,3.7,4.4,6.5,4.7C526.5,950.9,529.3,950.1,531.1,948.1z"/>
		<path class="st2" d="M690.3,931.7c4.7-2.3,8.3-6.6,9.7-11.6c6.4,4.3,12.6,8.8,18.7,13.4c4.8-0.9,9.5-2.2,14.2-3.4
			c4.2-1.2,8.5-2.1,12.6-3.4c0.7,5.7,1,11.4,1.1,17.1c-10.8,1.8-20.9,6.7-31.9,6.9c-8.7-5.4-16.7-11.8-24.9-17.9
			C689.1,932.5,689.7,931.9,690.3,931.7z"/>
		<path class="st2" d="M674.6,917.9c-0.6-2.4-0.2-5,1.3-7c1.5-2,3.8-3.3,6.3-3.4c3-0.2,5.9,1.5,7.4,4.1c1.1,1.8,1.1,4.1,0.8,6.2
			c-1,4.3-5.7,7.1-9.9,5.9C677.7,922.9,675.4,920.6,674.6,917.9z"/>
		<path class="st2" d="M688.6,899.1c7.3-6.4,13.7-13.6,20.6-20.5c4.3,0.2,8.5,1,12.8,1.2c1.9,0.6,3.8,0.4,5.8,0.5
			c4.8,0.2,9.5,0.6,14.3,1c0.4,5.6,1,11.2,1.3,16.8c-8.9-0.2-17.6-2.2-26.5-2.2c-1.2-0.1-1.9,1-2.7,1.7c-5,4.2-9,9.5-14.1,13.7
			c-0.9-2.9-2.3-5.7-4.5-7.8C693.6,901.5,691.1,900.1,688.6,899.1z"/>
		<path class="st2" d="M394.9,776.5c8.9,0,17.7,0,26.6,0c0,3,0,6.1,0,9.1c-8.9,0-17.7,0-26.6,0C394.9,782.6,394.9,779.6,394.9,776.5
			z"/>
		<path class="st2" d="M493.2,776.5c8.9,0,17.7,0,26.6,0c0,3.1,0,6.1,0,9.1c-8.9,0-17.7,0-26.6,0
			C493.2,782.6,493.2,779.6,493.2,776.5z"/>
		<path class="st2" d="M394.9,753.2c8.9,0,17.7,0,26.6,0c0,3.1,0,6.1,0,9.2c-8.9-0.1-17.7,0-26.6,0
			C394.9,759.3,394.9,756.3,394.9,753.2z"/>
		<path class="st2" d="M493.2,753.2c8.9,0,17.7,0,26.6,0c0,3,0,6.1,0,9.1c-8.9,0-17.7,0-26.6,0C493.2,759.3,493.2,756.3,493.2,753.2
			z"/>
		<path class="st2" d="M394.9,728.5c8.9,0,17.7,0.1,26.6,0c0,3.1,0,6.1,0,9.2c-8.9,0-17.7-0.1-26.6,0
			C394.9,734.6,394.9,731.5,394.9,728.5z"/>
		<path class="st2" d="M493.2,728.5c8.9,0.1,17.7,0,26.6,0c0,3.1,0,6.1,0,9.2c-8.9,0-17.7-0.1-26.6,0
			C493.2,734.6,493.2,731.5,493.2,728.5z"/>
		<path class="st2" d="M394.9,704.4c8.9,0.1,17.7,0,26.6,0c0,3.1,0,6.1,0,9.2c-8.9-0.1-17.7,0-26.6,0
			C394.9,710.5,394.9,707.5,394.9,704.4z"/>
		<path class="st2" d="M493.2,704.4c8.9,0,17.7,0,26.6,0c0,3.1,0,6.1,0,9.1c-8.9,0-17.7,0-26.6,0
			C493.2,710.5,493.2,707.5,493.2,704.4z"/>
		<g id="_x23_9d9d9dff_1_">
			<path class="st23" d="M360.8,1160.1c-0.2-1.5,0-3.6,1.6-4.3c0.9-0.4,1.9-1.1,3-0.8c1.6,0.4,3.2,1.7,3.2,3.5
				c0,1.2-0.2,2.6-1.2,3.5c-1.1,0.8-2.6,1.3-3.9,0.7C362.3,1162.2,361.2,1161.3,360.8,1160.1z"/>
			<path class="st23" d="M341.1,1153.9c-6.4-3.6-12-9.7-13.1-17.2c0-2.2-0.5-4.7,0.9-6.6c0.7-0.6,1.4-1.5,2.4-1.4
				c3.5,1.4,5.1,5,6.7,8.1c1.6,2.7,3.2,5.6,5.7,7.6c2.7,2.8,6.1,4.5,9.4,6.3c1.5,1,3.5,2.3,3.5,4.4c-0.7,1.2-1.8,2.3-3.3,2.4
				c-1.7,0.2-3.5-0.1-5.1-0.5C345.8,1156.2,343.4,1155,341.1,1153.9z"/>
		</g>
		<path class="st24" d="M303.9,1109.7c-7.5-6.8-12.8-16.1-14.7-26.1c-2.5-13,0.7-27.1,8.9-37.6c7.9-10.5,20.4-17.3,33.5-18.4
			c-3.2,30.8-6.4,61.5-9.6,92.3C315.3,1117.9,309.1,1114.4,303.9,1109.7 M309.7,1099.1c0.9-0.4,1.7-1.1,2.4-1.9
			c1.1-2.2,0.8-4.7-0.1-6.9c-1.4-3.3-4.3-5.9-7.8-6.9c-1.6-0.3-3.5-0.3-4.7,0.9c-1.5,1-2,2.8-1.9,4.5c0.3,4.6,3.7,8.8,8.2,10.2
			C306.9,1099.5,308.4,1099.4,309.7,1099.1z"/>
		<path class="st24" d="M581.2,1144.9c3.2-30.7,6.4-61.3,9.6-92c13.4,4.2,24.6,14.7,29.6,27.8c4.1,10.5,4.2,22.4,0.5,33
			c-2.1,6-5.5,11.6-9.9,16.3C603.3,1138.4,592.5,1143.8,581.2,1144.9 M601.8,1129.7c3-1.3,5.5-4,6.5-7.1c0.5-1.7,0.4-3.7-0.9-5.1
			c-0.9-1.4-2.6-1.8-4.1-1.9c-3.5,0.1-6.9,2-9.1,4.7c-1.5,2-2.5,4.6-1.8,7.1c0.7,1.3,1.7,2.6,3.3,2.9
			C597.7,1131,599.9,1130.5,601.8,1129.7z"/>
		<path class="st24" d="M516.2,965.6c-0.2-2.4,1-4.8,2.9-6.2c3.3-2.7,8.8-1.5,10.8,2.3c1.5,2.7,1.1,6.3-1.1,8.4
			c-1.6,1.7-4,2.6-6.3,2.2C519.1,972,516.2,969,516.2,965.6z"/>
		<path class="st24" d="M493.4,965c-6.1-1-11.4-5.9-12.8-12c-1.3-5.2,0.2-11.1,4.1-15c3-3.2,7.5-5,11.9-4.9
			c4.1,0.1,8.1,1.8,10.9,4.7c3.3,3.2,5,7.9,4.7,12.5c-0.3,5.3-3.5,10.3-8.2,12.9C500.7,965,496.9,965.6,493.4,965 M503.1,958.3
			c2.1-1.6,3.4-4,4.1-6.4c0.7-3.1,0-6.4-1.8-9c-2.2-3.2-6.1-5.2-10-5c-5.6,0.2-10.5,5-10.9,10.6c-0.4,4,1.7,8,5,10.3
			c1.3,0.9,2.8,1.4,4.3,1.9C497,961.4,500.5,960.4,503.1,958.3z"/>
		<path class="st24" d="M519.5,941.9c-0.1-3,2.8-5.7,5.8-5.4c3.2-0.1,5.9,3,5.4,6.2c-0.2,3.4-3.9,5.9-7.1,4.9
			C521.1,946.9,519.3,944.5,519.5,941.9z"/>
		<path class="st24" d="M394.9,690.3c-7.7-2.4-14.4-7.7-18.7-14.4c-3.7-5.8-5.8-12.6-5.7-19.5c23.8,0,47.6,0,71.4,0
			c0.3,13.5-8.1,26.7-20.4,32.3C413.2,692.5,403.5,693.1,394.9,690.3 M420.6,685c3.2-1.6,5.6-4.7,6.2-8.3c0.1-1.6,0-3.4-1.3-4.5
			c-1.4-1.7-3.9-2-5.9-1.3c-4.6,1.3-8.6,5.6-8.6,10.5c-0.1,2.3,1.8,4.3,4,4.6C416.9,686.5,418.9,685.8,420.6,685z"/>
		<path class="st24" d="M500.2,691.5c-2.4-0.4-4.7-1.2-7-2c-13.2-5.1-22.6-18.9-22.2-33.1c23.8,0,47.6,0,71.4,0
			c0.1,6.9-2,13.7-5.7,19.5c-4,6.2-10,11.2-16.9,13.8C513.6,692,506.7,692.7,500.2,691.5 M520.4,685c3-1.5,5.3-4.5,6.1-7.8
			c0.3-1.7,0.2-3.8-1.2-5c-1.4-1.8-3.9-2-5.9-1.3c-3.2,0.8-5.9,3.1-7.4,6c-1,2-1.6,4.5-0.7,6.6c0.8,1.2,2,2.5,3.6,2.6
			C516.7,686.6,518.7,685.8,520.4,685z"/>
		<g id="_x23_555454ff_1_">
			<path class="st25" d="M372,1103.6c-3.3-5.9-4.8-12.5-5.3-19.2c-0.1-4.1,0.3-8.3,1.2-12.4c1.7-6.2,4.4-12.3,8.5-17.3
				c2.7-3.2,5.7-6.3,9.3-8.6c8.5-6,19.3-8.6,29.6-7.6c-0.3,2.9-0.6,5.8-0.9,8.7c-4.3-0.5-8.7-0.1-12.8,1.1
				c-12.5,3.3-22.8,14-25.4,26.7c-2.8,11.7,1.2,24.6,9.9,33c5.6,5.5,13.1,9.1,20.9,9.9c-0.3,2.9-0.6,5.8-0.9,8.7
				c-10.4-1.2-20.4-6-27.5-13.8C376,1110.1,373.9,1106.9,372,1103.6z"/>
			<path class="st25" d="M472.3,1083.6c0.9-3.1,1.9-6.2,3.5-9c3.1-5.8,7.8-10.8,13.3-14.3c7.1-4.6,15.8-6.5,24.2-5.7
				c-0.2,2.4-0.5,4.7-0.7,7.1c0.7,0.2,1.4,0.5,2.2,0.7c-0.8-0.1-1.5-0.2-2.3-0.2c-8-0.9-16.2,1.8-22.4,6.7
				c-5.3,4.4-9.2,10.5-10.6,17.2c-1.9,7.8-0.3,16.4,4,23.2c2.7,4.4,6.7,8,11.2,10.5c3.5,2.1,7.5,3.1,11.5,3.7
				c-0.2,2.5-0.5,5-0.7,7.5c-9.5-1.1-18.6-5.7-24.8-13C472.4,1108.8,469.3,1095.5,472.3,1083.6z"/>
		</g>
		<g id="_x23_2b9c78ff_1_">
			<path class="st26" d="M376.3,1075c0,1.4-0.1,2.7-0.3,4.1c11.6,1.3,23.1,2.4,34.7,3.6c-1.2,11.7-2.4,23.4-3.7,35.1
				c-7.8-0.7-15.3-4.4-20.9-9.9C377.6,1099.6,373.5,1086.7,376.3,1075z"/>
			<path class="st26" d="M483.5,1109.2c-4.3-6.8-5.9-15.3-4-23.2c0,1.2-0.1,2.5-0.2,3.7c5.4,0.7,10.9,1.1,16.3,1.8
				c1.9,0.9,4,1.1,6,0.6c2.6,0.3,5.1,0.5,7.7,0.8c-1,10.2-2.1,20.3-3.2,30.5c-4-0.6-8-1.6-11.5-3.7
				C490.2,1117.2,486.2,1113.7,483.5,1109.2z"/>
		</g>
		<path class="st27" d="M407.1,1117.8c1.2-11.7,2.5-23.4,3.7-35.1c1.2-11.8,2.5-23.7,3.7-35.5c12.4,1.1,23.8,9.4,28.8,20.8
			c2.8,6.1,3.8,12.9,2.8,19.5c-0.9,6.8-4,13.3-8.5,18.5C430.2,1114.5,418.4,1119.2,407.1,1117.8 M428.5,1083.3
			c2.7-1.9,3.3-5.9,1.9-8.8c-0.8-1.6-2.4-2.7-3.9-3.5c-2.6-1.1-5.6,0.1-7.5,2c-1.6,1.5-1.8,3.8-1.7,5.9c0.4,2.5,2.2,4.7,4.6,5.5
			C424,1085.1,426.6,1084.9,428.5,1083.3z"/>
		<path class="st27" d="M509.3,1093c1.1-10.3,2.2-20.6,3.2-30.9c0.8,0.1,1.5,0.1,2.3,0.2c4.1,0.9,8.2,2.3,11.7,4.7
			c5.2,3.5,9.4,8.6,11.6,14.4c2.9,7.1,2.8,15.2,0.2,22.3c-2,5.1-5.3,9.7-9.6,13.1c-6.3,5.1-14.6,7.5-22.6,6.6
			C507.2,1113.3,508.3,1103.1,509.3,1093z"/>
		<path class="st27" d="M387.9,931.7c21.5,0,43,0,64.5,0c0,4.1,0,8.3,0,12.4c-21.5,0-43,0-64.5,0C387.9,940,388,935.9,387.9,931.7z"
			/>
		<path class="st28" d="M592.3,1127.5c-0.7-2.5,0.3-5.2,1.8-7.1c2.2-2.7,5.5-4.6,9.1-4.7c1.5,0.1,3.2,0.5,4.1,1.9
			c1.3,1.3,1.4,3.4,0.9,5.1c-1,3.2-3.5,5.8-6.5,7.1c-1.9,0.8-4.1,1.4-6.2,0.7C594.1,1130.1,593.1,1128.8,592.3,1127.5z"/>
		<path class="st28" d="M297.5,1088.8c0-1.7,0.5-3.5,1.9-4.5c1.2-1.2,3.1-1.3,4.7-0.9c3.5,1,6.4,3.6,7.8,6.9
			c0.9,2.2,1.3,4.7,0.1,6.9c-0.7,0.8-1.4,1.5-2.4,1.9c-1.3,0.3-2.8,0.5-4.1,0C301.2,1097.6,297.8,1093.5,297.5,1088.8z"/>
		<path class="st28" d="M411,681.5c0-4.9,4-9.2,8.6-10.5c2-0.7,4.5-0.4,5.9,1.3c1.3,1.1,1.4,2.9,1.3,4.5c-0.6,3.5-3,6.7-6.2,8.3
			c-1.7,0.8-3.7,1.5-5.6,1.1C412.8,685.8,410.9,683.7,411,681.5z"/>
		<path class="st28" d="M511.2,683.5c-0.9-2.2-0.3-4.6,0.7-6.6c1.6-2.9,4.3-5.2,7.4-6c2-0.6,4.6-0.4,5.9,1.3c1.4,1.2,1.5,3.3,1.2,5
			c-0.8,3.3-3.1,6.2-6.1,7.8c-1.7,0.8-3.6,1.5-5.6,1.1C513.2,686,512.1,684.8,511.2,683.5z"/>
		<path class="st29" d="M417.2,1079c-0.1-2.1,0.2-4.4,1.7-5.9c1.8-1.9,4.9-3.1,7.5-2c1.6,0.8,3.2,1.8,3.9,3.5
			c1.5,2.9,0.8,6.8-1.9,8.8c-1.8,1.7-4.5,1.9-6.7,1.2C419.3,1083.6,417.6,1081.4,417.2,1079z"/>
		<path class="st29" d="M388,949.9c21.5,0,43,0,64.4,0c0,4.1,0,8.3,0,12.4c-21.5,0-43,0-64.5,0C387.9,958.2,387.9,954.1,388,949.9z"
			/>
		<g id="_x23_3cc69cff_1_">
			<path class="st30" d="M493.2,1085.8c0.2-3.5,3.9-6.1,7.2-5.5c3,0.7,5.4,3.7,4.8,6.8c0,2.3-1.7,4-3.6,5.1c-2,0.5-4.1,0.3-6-0.6
				C494.1,1090.1,492.8,1088,493.2,1085.8z"/>
		</g>
		<g id="_x23_289f7aff_1_">
			<path class="st31" d="M376.3,1075c2.6-12.7,12.8-23.4,25.4-26.7c4.1-1.2,8.5-1.5,12.8-1.1c-1.3,11.8-2.5,23.7-3.7,35.5
				c-11.6-1.2-23.2-2.3-34.7-3.6C376.2,1077.7,376.3,1076.3,376.3,1075z"/>
			<path class="st31" d="M479.5,1086.1c1.4-6.7,5.4-12.8,10.6-17.2c6.3-5,14.4-7.6,22.4-6.7c-1.1,10.3-2.1,20.6-3.2,30.9
				c-2.6-0.3-5.1-0.5-7.7-0.8c1.9-1.1,3.5-2.8,3.6-5.1c0.6-3.1-1.8-6.1-4.8-6.8c-3.3-0.6-7,2-7.2,5.5c-0.4,2.2,0.9,4.3,2.4,5.8
				c-5.4-0.6-10.9-1.1-16.3-1.8C479.4,1088.6,479.5,1087.3,479.5,1086.1z"/>
		</g>
		<path class="st3" d="M549.7,972.1c-0.1-6.3,0-12.6,0-18.9c3.2,2,6.4,4,9.6,6c-0.8,2.3-2.4,4.2-3.6,6.3c-1.6,2.4-3.1,4.9-4.9,7.3
			l-0.4-0.2C550.2,972.4,549.9,972.2,549.7,972.1z"/>
		<path class="st3" d="M549.7,939.5c1.7-2.2,3.2-4.6,5.2-6.6c2.6-2.6,5.9-4.4,9.5-5.2c1.2,2.9,2.3,5.7,3.6,8.6
			c1.2,2.6,2.4,5.3,4.4,7.4c-2.2,1.1-4.5,2.3-6.1,4.3c-1,1.1-1.2,2.6-1.9,3.8c-0.8,1.3-1.8,2.4-2.4,3.8c-4.1-2.4-8.1-4.9-12.2-7.3
			C549.6,945.4,549.7,942.4,549.7,939.5z"/>
		<path class="st3" d="M567.8,925.8c5.6-2,11.2-4,17-5.1c2.7-0.5,5.5-1.3,8.3-1.1c0.8,5.9,1.8,11.9,2.8,17.8
			c-7.1,1.3-14.2,2.7-21,5.3C574.4,936.3,570.2,931.4,567.8,925.8z"/>
		<path class="st3" d="M596.2,917.5c0.3,0.4,0.6,1.2,1.3,0.9c4.4-0.9,8.9-1.7,13.4-2.4c3.8-0.7,7.6-1,11.4-1.6
			c0.1,6.5,0.7,13,1.1,19.5c-1.6,0.3-3.3,0.1-4.9,0.6c-1.8,0.5-3.6,0.3-5.4,0.6c-4.3,0.6-8.7,1-13,1.7
			C599.2,930.2,597.9,923.8,596.2,917.5z"/>
		<path class="st3" d="M625.9,914c6.3-0.4,12.6-0.4,18.8-0.5c2.3,0.1,4.6-0.2,6.8,0.3c-0.1,6-0.2,12.1-0.1,18.1
			c1.4-0.1,2.8-0.2,4.3-0.3c0.2-5.8-0.2-11.7-0.2-17.5c2.8-1.5,5.5-3.3,8-5.3c-2.1-1.8-4.2-3.4-6.4-5.1c-0.7-0.5-1.1-1.2-1.6-1.9
			c1.4,0,2.8-0.1,4.2-0.1c4,0.1,8,0.2,12,0.6c-4.1,3.5-6.5,8.8-6.2,14.1c0.2,6.3,4.1,12.2,9.7,15c-2.9,0.3-5.7,0.1-8.6,0.3
			c-8.9,0.2-17.8,0.6-26.6,1.1c-1.3,0.1-2.7-0.2-4,0c-2.7,0.4-5.4-0.1-8.1,0.3C627.3,926.7,626.5,920.4,625.9,914z"/>
		<path class="st3" d="M625.3,904.8c0-0.6,0-1.3,0.1-1.9c8.7-0.6,17.4-1,26.1-1.1c0.1,1.7,0.1,3.3,0,5c-0.7-0.8-1.1-2.4-2.4-2.3
			C641.1,904.3,633.2,904.9,625.3,904.8z"/>
		<path class="st4" d="M583.8,911.2c2.5-0.7,4.8-1.8,7.3-2.3c1,3.5,1.7,7,2,10.6c-2.8-0.2-5.6,0.6-8.3,1.1c-5.8,1.1-11.5,3.1-17,5.1
			c-1.5-3-2.9-6.1-4.1-9.2C570.5,915.3,577.2,913.2,583.8,911.2z"/>
		<path class="st5" d="M549.7,953.1c0-1.6,0-3.2,0.1-4.9c4.1,2.4,8.1,4.9,12.2,7.3c-0.7,1.3-1.6,2.5-2.3,3.7
			c-0.1-0.1-0.3-0.2-0.3-0.2C556.1,957.2,552.9,955.1,549.7,953.1z"/>
		<path class="st5" d="M568,936.3c-1.3-2.8-2.4-5.7-3.6-8.6c-1.5-3.8-3.6-7.3-5.1-11.1c1.1-0.7,2.3-1.4,3.5-2.1
			c0.3,0.7,0.7,1.3,0.9,2c1.2,3.1,2.7,6.2,4.1,9.2c2.4,5.6,6.6,10.6,7.2,16.8c-0.9,0.4-1.7,0.7-2.6,1.1
			C570.4,941.6,569.2,938.9,568,936.3z"/>
		<g id="_x23_cf452aff_1_">
			<path class="st32" d="M489.4,958.8c-3.3-2.3-5.3-6.3-5-10.3c0.4-5.5,5.3-10.4,10.9-10.6c3.9-0.3,7.8,1.8,10,5
				c1.8,2.6,2.6,5.9,1.8,9c-0.8,2.5-2,4.9-4.1,6.4c-2.6,2.1-6.1,3-9.4,2.4C492.2,960.2,490.7,959.7,489.4,958.8z"/>
		</g>
		<path class="st6" d="M549.7,923.9c3.1-2.6,6.2-5,9.6-7.2c1.5,3.8,3.6,7.3,5.1,11.1c-3.6,0.8-7,2.5-9.5,5.2c-2,2-3.5,4.4-5.2,6.6
			C549.6,934.3,549.6,929.1,549.7,923.9z"/>
		<path class="st7" d="M593.2,919.6c-0.4-3.6-1.1-7.2-2-10.6c-0.4-1-1-1.9-1.4-2.8c1.7-0.4,3.4-0.4,5.1-0.6c-0.1,1-0.2,2-0.2,3
			c0.2,3.1,1,6.1,1.6,9c1.7,6.3,3,12.8,3.8,19.2c-1.4,0.2-2.7,0.4-4,0.6C594.9,931.4,594,925.5,593.2,919.6z"/>
		<path class="st8" d="M623.3,933.8c-0.3-6.5-0.9-13-1.1-19.5c-0.2-2.8-0.4-5.6-0.8-8.4c-0.1-0.9-0.3-1.7-0.4-2.6
			c-0.5,0-0.9-0.1-1.4-0.1c1.5-0.4,3.1-0.1,4.6-0.3c0.3,0,0.8,0,1.1-0.1c0,0.6-0.1,1.3-0.1,1.9c0.1,3.1,0.2,6.2,0.6,9.2
			c0.7,6.4,1.4,12.7,2,19.1l0,0.3c-1.5,0.3-3,0.5-4.5,0.7L623.3,933.8z"/>
		<path class="st9" d="M651.5,906.8c0-1.7,0.1-3.3,0-5c1.3-0.1,2.6-0.1,4,0c0,4.1,0,8.3,0.1,12.4c0,5.8,0.4,11.7,0.2,17.5
			c-1.4,0.1-2.8,0.2-4.3,0.3c-0.1-6-0.1-12.1,0.1-18.1C651.8,911.5,651.5,909.1,651.5,906.8z"/>
		<path class="st10" d="M562.7,914.5c5.1-3,10.6-5.3,16.4-6.6c1.7-0.4,3.4-1,5.2-1c0.3-0.2,0.6-0.3,0.9-0.5c1.5-0.1,3,0,4.4-0.4
			c0.5,0.9,1,1.9,1.4,2.8c-2.5,0.5-4.8,1.7-7.3,2.3c-6.7,2-13.3,4-20.2,5.3C563.4,915.9,563,915.2,562.7,914.5z"/>
		<path class="st11" d="M594.6,908.4c4.1-0.2,8.1-0.9,12.1-1.3c4.9-0.5,9.8-0.8,14.8-1.2c0.4,2.8,0.6,5.6,0.8,8.4
			c-3.8,0.7-7.6,0.9-11.4,1.6c-4.5,0.7-8.9,1.5-13.4,2.4c-0.7,0.3-0.9-0.5-1.3-0.9C595.5,914.5,594.8,911.5,594.6,908.4z"/>
		<path class="st12" d="M649.1,904.5c1.3-0.1,1.7,1.5,2.4,2.3c0,2.4,0.3,4.7,0,7.1c-2.2-0.5-4.5-0.2-6.8-0.3
			c-6.3,0.1-12.6,0.1-18.8,0.5c-0.4-3.1-0.5-6.2-0.6-9.2C633.2,904.9,641.1,904.3,649.1,904.5z"/>
		<path class="st13" d="M655.5,901.8c0.5,0.7,0.9,1.4,1.6,1.9c2.1,1.7,4.3,3.3,6.4,5.1c-2.5,2-5.2,3.8-8,5.3
			C655.4,910,655.4,905.9,655.5,901.8L655.5,901.8z"/>
		<path class="st14" d="M594.8,905.5c8.3-0.8,16.6-1.6,24.9-2.3c0.5,0,0.9,0.1,1.4,0.1c0.1,0.9,0.3,1.7,0.4,2.6
			c-4.9,0.4-9.8,0.7-14.8,1.2c-4.1,0.4-8.1,1.1-12.1,1.3C594.6,907.4,594.7,906.5,594.8,905.5z"/>
		<g id="_x23_404f4a87_4_">
			<path class="st15" d="M645.4,901.7c4.8,0.1,9.5-0.3,14.3,0c-1.4,0-2.8,0.1-4.2,0.1l-0.1,0c-1.3-0.1-2.6-0.1-4,0
				c-8.7,0.1-17.4,0.5-26.1,1.1c-0.3,0-0.8,0-1.1,0.1C631.3,902.1,638.4,902,645.4,901.7z"/>
		</g>
		<g class="st33">
			<path class="st34" d="M702.4,1119.6c0,0.8,0.1,1.5,0.3,2.1s0.4,1,0.7,1.4c0.3,0.4,0.6,0.7,1,0.9c0.4,0.2,0.8,0.5,1.2,0.7
				c0.6,0.3,1.2,0.7,1.7,1c0.6,0.3,1.1,0.7,1.5,1.2c0.4,0.5,0.8,1,1.1,1.6c0.3,0.6,0.4,1.4,0.4,2.3c0,1.1-0.2,2.1-0.6,2.9
				c-0.4,0.8-0.9,1.5-1.5,2.1c-0.6,0.6-1.4,1-2.2,1.2c-0.8,0.3-1.6,0.4-2.5,0.4c-0.8,0-1.5-0.1-2.2-0.3c-0.7-0.2-1.4-0.5-2-0.9
				c-0.6-0.4-1.2-0.8-1.7-1.4c-0.5-0.6-0.9-1.2-1.2-1.9l1.6-1c0.5,1,1.3,1.8,2.2,2.5c1,0.7,2.1,1,3.3,1c0.6,0,1.2-0.1,1.8-0.3
				c0.6-0.2,1.1-0.5,1.5-0.9c0.4-0.4,0.8-0.9,1.1-1.4c0.3-0.6,0.4-1.2,0.4-2c0-0.9-0.2-1.6-0.5-2.2c-0.3-0.6-0.7-1.1-1.2-1.5
				s-1-0.8-1.6-1.1s-1.1-0.6-1.5-0.8c-1-0.6-1.8-1.4-2.2-2.3s-0.7-2.1-0.7-3.6H702.4z M702.5,1112.6v3.7h-2v-3.7H702.5z"/>
		</g>
		
			<pattern  id="SVGID_27_" xlink:href="#Unnamed_Pattern" patternTransform="matrix(1 0 0 -1 410.283 -18499.2383)"  style="opacity:0.1;">
		</pattern>
		<path class="st61" d="M243.8,931.5c-4.6,2.4-10.3,2.3-15.1,0.3c-4.7-2.3-8.3-6.6-9.7-11.6c-0.7-2.8-0.7-5.9,0-8.7
			c0.9-2.9,2.3-5.7,4.5-7.8c1.9-2,4.4-3.4,6.9-4.5c5.7-1.9,12.3-0.8,16.9,3.2c4.1,3.5,6.5,8.8,6.2,14.1
			C253.4,922.8,249.4,928.7,243.8,931.5 M238.5,923.7c2.8-0.7,5.1-3,5.9-5.7c0.6-2.4,0.2-5-1.3-7c-1.5-2-3.8-3.3-6.3-3.4
			c-3-0.2-5.9,1.5-7.4,4.1c-1.1,1.8-1.1,4.1-0.8,6.2C229.5,922.1,234.3,924.9,238.5,923.7z"/>
		
			<pattern  id="SVGID_28_" xlink:href="#Unnamed_Pattern" patternTransform="matrix(1 0 0 -1 410.283 -18499.2383)"  style="opacity:0.1;">
		</pattern>
		<path class="st62" d="M229.3,933.1c-8.3,6-16.2,12.5-24.9,17.9c-11-0.3-21.2-5.2-31.9-6.9c0.1-5.7,0.4-11.4,1.1-17.1
			c4.2,1.3,8.4,2.2,12.6,3.4c4.7,1.2,9.4,2.5,14.2,3.4c6.2-4.6,12.4-9.1,18.7-13.4c1.4,5,5,9.3,9.7,11.6
			C229.3,932,229.9,932.6,229.3,933.1z"/>
		
			<pattern  id="SVGID_29_" xlink:href="#Unnamed_Pattern" patternTransform="matrix(1 0 0 -1 410.283 -18499.2383)"  style="opacity:0.1;">
		</pattern>
		<path class="st63" d="M238.5,923.7c-4.2,1.2-9-1.6-9.9-5.9c-0.3-2.1-0.3-4.3,0.8-6.2c1.5-2.6,4.4-4.2,7.4-4.1
			c2.5,0,4.9,1.4,6.3,3.4c1.5,2,1.9,4.6,1.3,7C243.6,920.8,241.3,923,238.5,923.7z"/>
		
			<pattern  id="SVGID_30_" xlink:href="#Unnamed_Pattern" patternTransform="matrix(1 0 0 -1 410.283 -18499.2383)"  style="opacity:0.1;">
		</pattern>
		<path class="st64" d="M223.5,903.6c-2.2,2.2-3.6,4.9-4.5,7.8c-5-4.2-9.1-9.5-14.1-13.7c-0.8-0.7-1.5-1.8-2.7-1.7
			c-8.9,0-17.7,1.9-26.5,2.2c0.3-5.6,0.9-11.2,1.3-16.8c4.8-0.5,9.5-0.8,14.3-1c1.9-0.1,3.9,0.1,5.8-0.5c4.3-0.2,8.5-0.9,12.8-1.2
			c6.8,6.8,13.3,14.1,20.6,20.5C227.9,900.2,225.4,901.6,223.5,903.6z"/>
		
			<pattern  id="SVGID_31_" xlink:href="#Unnamed_Pattern" patternTransform="matrix(1 0 0 -1 410.283 -18499.2383)"  style="opacity:0.1;">
		</pattern>
		<path class="st65" d="M368.6,972.6l-0.4,0.2c-1.7-2.3-3.2-4.9-4.9-7.3c-1.3-2-2.8-4-3.6-6.3c3.2-2,6.4-4,9.6-6
			c0,6.3,0.1,12.6,0,18.9C369.1,972.3,368.8,972.5,368.6,972.6z"/>
		
			<pattern  id="SVGID_32_" xlink:href="#Unnamed_Pattern" patternTransform="matrix(1 0 0 -1 410.283 -18499.2383)"  style="opacity:0.1;">
		</pattern>
		<path class="st66" d="M369.3,948.4c-4.1,2.4-8.1,4.9-12.2,7.3c-0.6-1.4-1.6-2.5-2.4-3.8c-0.8-1.2-1-2.7-1.9-3.8
			c-1.6-1.9-3.9-3.2-6.1-4.3c2-2.1,3.2-4.8,4.4-7.4c1.3-2.8,2.4-5.7,3.6-8.6c3.6,0.8,7,2.5,9.5,5.2c2,2,3.5,4.4,5.2,6.6
			C369.3,942.6,369.4,945.5,369.3,948.4z"/>
		
			<pattern  id="SVGID_33_" xlink:href="#Unnamed_Pattern" patternTransform="matrix(1 0 0 -1 410.283 -18499.2383)"  style="opacity:0.1;">
		</pattern>
		<path class="st67" d="M344,942.7c-6.8-2.5-13.9-4-21-5.3c1.1-5.9,2-11.8,2.8-17.8c2.8-0.2,5.6,0.6,8.3,1.1
			c5.8,1.1,11.5,3.1,17,5.1C348.8,931.5,344.6,936.5,344,942.7z"/>
		
			<pattern  id="SVGID_34_" xlink:href="#Unnamed_Pattern" patternTransform="matrix(1 0 0 -1 410.283 -18499.2383)"  style="opacity:0.1;">
		</pattern>
		<path class="st68" d="M319,936.8c-4.3-0.7-8.7-1.2-13-1.7c-1.8-0.2-3.6-0.1-5.4-0.6c-1.6-0.5-3.3-0.3-4.9-0.6
			c0.3-6.5,0.9-13,1.1-19.5c3.8,0.7,7.6,0.9,11.4,1.6c4.5,0.7,8.9,1.5,13.4,2.4c0.7,0.3,0.9-0.5,1.3-0.9
			C321.1,923.9,319.8,930.4,319,936.8z"/>
		
			<pattern  id="SVGID_35_" xlink:href="#Unnamed_Pattern" patternTransform="matrix(1 0 0 -1 410.283 -18499.2383)"  style="opacity:0.1;">
		</pattern>
		<path class="st69" d="M291.2,933.2c-2.7-0.4-5.4,0.2-8.1-0.3c-1.3-0.2-2.7,0.1-4,0c-8.9-0.5-17.7-1-26.6-1.1
			c-2.9-0.1-5.7,0-8.6-0.3c5.6-2.8,9.5-8.7,9.7-15c0.3-5.4-2.2-10.7-6.2-14.1c4-0.4,8-0.5,12-0.6c1.4,0,2.8,0.1,4.2,0.1
			c-0.5,0.7-0.9,1.4-1.6,1.9c-2.1,1.7-4.3,3.3-6.4,5.1c2.5,2,5.2,3.8,8,5.3c0,5.8-0.4,11.7-0.2,17.5c1.4,0.1,2.8,0.2,4.3,0.3
			c0.1-6,0.1-12.1-0.1-18.1c2.2-0.5,4.5-0.2,6.8-0.3c6.3,0.1,12.6,0.1,18.8,0.5C292.5,920.5,291.7,926.9,291.2,933.2z"/>
		
			<pattern  id="SVGID_36_" xlink:href="#Unnamed_Pattern" patternTransform="matrix(1 0 0 -1 410.283 -18499.2383)"  style="opacity:0.1;">
		</pattern>
		<path class="st70" d="M269.9,904.6c-1.3-0.1-1.7,1.5-2.4,2.3c0-1.7-0.1-3.3,0-5c8.7,0.1,17.4,0.5,26.1,1.1c0,0.6,0.1,1.3,0.1,1.9
			C285.8,905.1,277.9,904.4,269.9,904.6z"/>
		
			<pattern  id="SVGID_37_" xlink:href="#Unnamed_Pattern" patternTransform="matrix(1 0 0 -1 410.283 -18499.2383)"  style="opacity:0.1;">
		</pattern>
		<path class="st71" d="M355.3,916.7c-1.2,3.1-2.7,6.2-4.1,9.2c-5.6-2-11.2-4-17-5.1c-2.7-0.5-5.5-1.3-8.3-1.1
			c0.4-3.6,1.1-7.2,2-10.6c2.5,0.5,4.8,1.7,7.3,2.3C341.8,913.4,348.5,915.4,355.3,916.7z"/>
		
			<pattern  id="SVGID_38_" xlink:href="#Unnamed_Pattern" patternTransform="matrix(1 0 0 -1 410.283 -18499.2383)"  style="opacity:0.1;">
		</pattern>
		<path class="st72" d="M359.7,959.3c-0.1,0.1-0.3,0.2-0.3,0.2c-0.8-1.3-1.6-2.4-2.3-3.7c4.1-2.4,8.1-4.9,12.2-7.3
			c0.1,1.6,0.1,3.2,0.1,4.9C366.1,955.3,362.9,957.3,359.7,959.3z"/>
		
			<pattern  id="SVGID_39_" xlink:href="#Unnamed_Pattern" patternTransform="matrix(1 0 0 -1 410.283 -18499.2383)"  style="opacity:0.1;">
		</pattern>
		<path class="st73" d="M346.6,943.8c-0.9-0.4-1.7-0.7-2.6-1.1c0.6-6.3,4.8-11.2,7.2-16.8c1.5-3,2.9-6.1,4.1-9.2
			c0.3-0.7,0.6-1.4,0.9-2c1.2,0.7,2.3,1.4,3.5,2.1c-1.5,3.8-3.6,7.3-5.1,11.1c-1.2,2.9-2.3,5.7-3.6,8.6
			C349.8,939.1,348.6,941.7,346.6,943.8z"/>
		
			<pattern  id="SVGID_40_" xlink:href="#Unnamed_Pattern" patternTransform="matrix(1 0 0 -1 410.283 -18499.2383)"  style="opacity:0.1;">
		</pattern>
		<path class="st74" d="M369.3,939.6c-1.7-2.2-3.2-4.6-5.2-6.6c-2.6-2.6-5.9-4.4-9.5-5.2c1.5-3.8,3.6-7.3,5.1-11.1
			c3.4,2.2,6.5,4.6,9.6,7.2C369.4,929.2,369.4,934.4,369.3,939.6z"/>
		
			<pattern  id="SVGID_41_" xlink:href="#Unnamed_Pattern" patternTransform="matrix(1 0 0 -1 410.283 -18499.2383)"  style="opacity:0.1;">
		</pattern>
		<path class="st75" d="M323,937.5c-1.3-0.2-2.7-0.4-4-0.6c0.8-6.5,2.1-12.9,3.8-19.2c0.7-3,1.4-6,1.6-9c0-1-0.1-2-0.2-3
			c1.7,0.3,3.4,0.2,5.1,0.6c-0.5,0.9-1,1.9-1.4,2.8c-1,3.5-1.7,7-2,10.6C325,925.6,324.1,931.6,323,937.5z"/>
		
			<pattern  id="SVGID_42_" xlink:href="#Unnamed_Pattern" patternTransform="matrix(1 0 0 -1 410.283 -18499.2383)"  style="opacity:0.1;">
		</pattern>
		<path class="st76" d="M295.6,934.2c-1.5-0.2-3-0.4-4.5-0.7l0-0.3c0.6-6.4,1.3-12.7,2-19.1c0.4-3.1,0.5-6.2,0.6-9.2
			c0-0.6,0-1.3-0.1-1.9c0.3,0,0.8,0,1.1,0.1c1.5,0.2,3.1-0.1,4.6,0.3c-0.5,0-0.9,0.1-1.4,0.1c-0.1,0.9-0.3,1.7-0.4,2.6
			c-0.4,2.8-0.6,5.6-0.8,8.4c-0.1,6.5-0.7,13-1.1,19.5L295.6,934.2z"/>
		
			<pattern  id="SVGID_43_" xlink:href="#Unnamed_Pattern" patternTransform="matrix(1 0 0 -1 410.283 -18499.2383)"  style="opacity:0.1;">
		</pattern>
		<path class="st77" d="M267.5,914c0.1,6,0.2,12.1,0.1,18.1c-1.4-0.1-2.8-0.2-4.3-0.3c-0.2-5.8,0.2-11.7,0.2-17.5
			c0.1-4.1,0.1-8.2,0.1-12.4c1.3-0.1,2.6-0.1,4,0c-0.1,1.7-0.1,3.3,0,5C267.5,909.2,267.2,911.6,267.5,914z"/>
		
			<pattern  id="SVGID_44_" xlink:href="#Unnamed_Pattern" patternTransform="matrix(1 0 0 -1 410.283 -18499.2383)"  style="opacity:0.1;">
		</pattern>
		<path class="st78" d="M355.3,916.7c-6.8-1.3-13.5-3.3-20.2-5.3c-2.5-0.7-4.8-1.8-7.3-2.3c0.4-1,1-1.9,1.4-2.8
			c1.4,0.3,3,0.3,4.4,0.4c0.3,0.2,0.6,0.4,0.9,0.5c1.8-0.1,3.5,0.5,5.2,1c5.8,1.3,11.3,3.6,16.4,6.6
			C356,915.3,355.6,916,355.3,916.7z"/>
		
			<pattern  id="SVGID_45_" xlink:href="#Unnamed_Pattern" patternTransform="matrix(1 0 0 -1 410.283 -18499.2383)"  style="opacity:0.1;">
		</pattern>
		<path class="st79" d="M322.8,917.6c-0.3,0.4-0.6,1.2-1.3,0.9c-4.4-0.9-8.9-1.7-13.4-2.4c-3.8-0.7-7.6-1-11.4-1.6
			c0.2-2.8,0.4-5.6,0.8-8.4c4.9,0.4,9.8,0.7,14.8,1.2c4.1,0.4,8.1,1.1,12.1,1.3C324.2,911.6,323.5,914.6,322.8,917.6z"/>
		
			<pattern  id="SVGID_46_" xlink:href="#Unnamed_Pattern" patternTransform="matrix(1 0 0 -1 410.283 -18499.2383)"  style="opacity:0.1;">
		</pattern>
		<path class="st80" d="M293.7,904.9c-0.1,3.1-0.2,6.2-0.6,9.2c-6.3-0.4-12.6-0.4-18.8-0.5c-2.3,0.1-4.6-0.2-6.8,0.3
			c-0.3-2.4,0-4.7,0-7.1c0.7-0.8,1.1-2.4,2.4-2.3C277.9,904.4,285.8,905.1,293.7,904.9z"/>
		
			<pattern  id="SVGID_47_" xlink:href="#Unnamed_Pattern" patternTransform="matrix(1 0 0 -1 410.283 -18499.2383)"  style="opacity:0.1;">
		</pattern>
		<path class="st81" d="M263.6,901.9c0,4.1,0,8.3-0.1,12.4c-2.8-1.5-5.5-3.3-8-5.3c2.1-1.8,4.2-3.4,6.4-5.1
			C262.6,903.3,263,902.6,263.6,901.9L263.6,901.9z"/>
		
			<pattern  id="SVGID_48_" xlink:href="#Unnamed_Pattern" patternTransform="matrix(1 0 0 -1 410.283 -18499.2383)"  style="opacity:0.1;">
		</pattern>
		<path class="st82" d="M324.4,908.6c-4.1-0.2-8.1-0.9-12.1-1.3c-4.9-0.5-9.8-0.8-14.8-1.2c0.1-0.9,0.3-1.7,0.4-2.6
			c0.5,0,0.9-0.1,1.4-0.1c8.3,0.6,16.6,1.5,24.9,2.3C324.3,906.6,324.4,907.6,324.4,908.6z"/>
		<g id="_x23_404f4a87_3_">
			<pattern  id="SVGID_49_" xlink:href="#Unnamed_Pattern" patternTransform="matrix(1 0 0 -1 410.283 -18499.2383)">
			</pattern>
			<path class="st83" d="M294.7,903.1c-0.3,0-0.8,0-1.1-0.1c-8.7-0.6-17.4-1-26.1-1.1c-1.3-0.1-2.6-0.1-4,0l-0.1,0
				c-1.4,0-2.8-0.1-4.2-0.1c4.7-0.3,9.5,0.1,14.3,0C280.6,902.2,287.7,902.3,294.7,903.1z"/>
		</g>
		<g class="st33">
			<path class="st34" d="M624.5,1216.9c0,1.1,0.1,2,0.3,2.7c0.2,0.7,0.5,1.3,0.9,1.8c0.4,0.5,0.8,0.9,1.3,1.2c0.5,0.3,1,0.6,1.5,0.9
				c0.7,0.4,1.5,0.8,2.2,1.3c0.7,0.4,1.4,0.9,1.9,1.5c0.6,0.6,1,1.3,1.4,2.1c0.3,0.8,0.5,1.8,0.5,3c0,1.4-0.2,2.7-0.7,3.7
				c-0.5,1.1-1.1,2-2,2.7c-0.8,0.7-1.7,1.2-2.8,1.6c-1,0.3-2.1,0.5-3.2,0.5c-1,0-1.9-0.1-2.9-0.4c-0.9-0.3-1.8-0.6-2.6-1.1
				c-0.8-0.5-1.5-1.1-2.2-1.8c-0.7-0.7-1.2-1.5-1.6-2.4l2.1-1.3c0.6,1.3,1.6,2.3,2.9,3.2c1.3,0.9,2.7,1.3,4.3,1.3
				c0.8,0,1.5-0.1,2.2-0.4c0.7-0.2,1.4-0.6,1.9-1.1c0.6-0.5,1-1.1,1.4-1.8c0.3-0.7,0.5-1.6,0.5-2.5c0-1.1-0.2-2-0.6-2.7
				c-0.4-0.7-1-1.4-1.6-1.9c-0.6-0.5-1.3-1-2-1.4c-0.7-0.4-1.4-0.7-2-1.1c-1.3-0.8-2.3-1.7-2.9-2.9c-0.6-1.2-0.9-2.7-0.9-4.7H624.5z
				 M624.6,1207.9v4.7H622v-4.7H624.6z"/>
		</g>
		<g class="st33">
			<path class="st34" d="M191.4,1112.7c0,0.9,0.1,1.6,0.3,2.1s0.4,1,0.7,1.4c0.3,0.4,0.6,0.7,1,1c0.4,0.2,0.8,0.5,1.2,0.7
				c0.6,0.3,1.2,0.7,1.8,1c0.6,0.3,1.1,0.8,1.5,1.2s0.8,1,1.1,1.7c0.3,0.6,0.4,1.4,0.4,2.4c0,1.1-0.2,2.1-0.6,3
				c-0.4,0.9-0.9,1.6-1.6,2.1s-1.4,1-2.2,1.3c-0.8,0.3-1.7,0.4-2.6,0.4c-0.8,0-1.5-0.1-2.3-0.3c-0.7-0.2-1.4-0.5-2.1-0.9
				c-0.7-0.4-1.2-0.9-1.8-1.4c-0.5-0.6-0.9-1.2-1.3-2l1.7-1.1c0.5,1,1.3,1.9,2.3,2.6c1,0.7,2.1,1,3.4,1c0.6,0,1.2-0.1,1.8-0.3
				c0.6-0.2,1.1-0.5,1.5-0.9c0.4-0.4,0.8-0.9,1.1-1.4c0.3-0.6,0.4-1.2,0.4-2c0-0.9-0.2-1.6-0.5-2.2c-0.3-0.6-0.8-1.1-1.3-1.5
				s-1-0.8-1.6-1.1c-0.6-0.3-1.1-0.6-1.6-0.9c-1-0.6-1.8-1.4-2.3-2.3c-0.5-0.9-0.7-2.2-0.7-3.7H191.4z M191.5,1105.5v3.8h-2.1v-3.8
				H191.5z"/>
		</g>
		<g class="st33">
			<path class="st34" d="M267.1,1201.6c0,0.8,0.1,1.4,0.2,2c0.2,0.5,0.4,1,0.7,1.3c0.3,0.4,0.6,0.7,0.9,0.9c0.3,0.2,0.7,0.5,1.1,0.7
				c0.5,0.3,1.1,0.6,1.6,0.9c0.5,0.3,1,0.7,1.4,1.1c0.4,0.4,0.7,1,1,1.6c0.3,0.6,0.4,1.3,0.4,2.2c0,1-0.2,2-0.5,2.8
				c-0.4,0.8-0.8,1.4-1.4,2c-0.6,0.5-1.3,0.9-2,1.2c-0.8,0.3-1.6,0.4-2.4,0.4c-0.7,0-1.4-0.1-2.1-0.3c-0.7-0.2-1.3-0.5-1.9-0.8
				c-0.6-0.4-1.1-0.8-1.6-1.3c-0.5-0.5-0.9-1.1-1.2-1.8l1.5-1c0.5,0.9,1.2,1.7,2.1,2.4c0.9,0.6,2,1,3.2,1c0.6,0,1.1-0.1,1.7-0.3
				c0.5-0.2,1-0.4,1.4-0.8c0.4-0.4,0.7-0.8,1-1.3c0.3-0.5,0.4-1.1,0.4-1.9c0-0.8-0.2-1.5-0.5-2c-0.3-0.5-0.7-1-1.2-1.4
				c-0.5-0.4-0.9-0.7-1.5-1s-1-0.5-1.4-0.8c-1-0.6-1.7-1.3-2.1-2.1c-0.4-0.9-0.7-2-0.7-3.4H267.1z M267.1,1195v3.5h-1.9v-3.5H267.1z
				"/>
		</g>
		<g class="st33">
			<path class="st34" d="M675.7,1006c0,1.2,0.1,2.1,0.4,2.9s0.6,1.4,1,1.9c0.4,0.5,0.9,1,1.4,1.3c0.5,0.3,1.1,0.7,1.6,1
				c0.8,0.4,1.6,0.9,2.4,1.4c0.8,0.5,1.5,1,2.1,1.7c0.6,0.6,1.1,1.4,1.5,2.3c0.4,0.9,0.6,2,0.6,3.2c0,1.5-0.3,2.9-0.8,4
				c-0.5,1.2-1.2,2.1-2.1,2.9c-0.9,0.8-1.9,1.3-3,1.7c-1.1,0.4-2.3,0.6-3.5,0.6c-1.1,0-2.1-0.1-3.1-0.4s-2-0.7-2.8-1.2
				c-0.9-0.5-1.7-1.2-2.4-1.9c-0.7-0.8-1.3-1.7-1.7-2.6l2.3-1.4c0.7,1.4,1.7,2.5,3.1,3.5c1.4,0.9,2.9,1.4,4.6,1.4
				c0.8,0,1.6-0.1,2.4-0.4c0.8-0.3,1.5-0.7,2.1-1.2c0.6-0.5,1.1-1.2,1.5-1.9c0.4-0.8,0.6-1.7,0.6-2.7c0-1.2-0.2-2.2-0.7-3
				c-0.5-0.8-1-1.5-1.7-2.1c-0.7-0.6-1.4-1.1-2.2-1.5c-0.8-0.4-1.5-0.8-2.1-1.2c-1.4-0.8-2.4-1.9-3.1-3.1c-0.7-1.3-1-2.9-1-5.1
				H675.7z M675.8,996.3v5.1h-2.8v-5.1H675.8z"/>
		</g>
		<g class="st33">
			<path class="st34" d="M246.5,1018.1c0,1.2,0.1,2.3,0.4,3.1c0.3,0.8,0.6,1.5,1.1,2.1c0.4,0.6,0.9,1,1.5,1.4
				c0.5,0.4,1.1,0.7,1.7,1.1c0.9,0.5,1.7,1,2.5,1.5c0.8,0.5,1.6,1.1,2.2,1.8c0.7,0.7,1.2,1.5,1.6,2.4c0.4,0.9,0.6,2.1,0.6,3.5
				c0,1.6-0.3,3.1-0.8,4.3s-1.3,2.3-2.3,3.1c-0.9,0.8-2,1.4-3.2,1.8c-1.2,0.4-2.4,0.6-3.7,0.6c-1.1,0-2.2-0.1-3.3-0.4
				s-2.1-0.7-3-1.3c-0.9-0.6-1.8-1.3-2.5-2.1c-0.8-0.8-1.4-1.8-1.8-2.8l2.4-1.5c0.8,1.5,1.9,2.7,3.3,3.7c1.5,1,3.1,1.5,5,1.5
				c0.9,0,1.8-0.1,2.6-0.4c0.8-0.3,1.6-0.7,2.2-1.3c0.6-0.6,1.2-1.3,1.6-2.1c0.4-0.8,0.6-1.8,0.6-2.9c0-1.3-0.2-2.3-0.7-3.2
				c-0.5-0.9-1.1-1.6-1.8-2.2c-0.7-0.6-1.5-1.1-2.3-1.6c-0.8-0.4-1.6-0.8-2.3-1.3c-1.5-0.9-2.6-2-3.3-3.3c-0.7-1.3-1.1-3.1-1.1-5.4
				H246.5z M246.6,1007.7v5.5h-3v-5.5H246.6z"/>
		</g>
	</g>
</g>
</svg>
