<?xml version="1.0" encoding="utf-8"?>
<!-- Generator: Adobe Illustrator 19.2.0, SVG Export Plug-In . SVG Version: 6.00 Build 0)  -->
<svg version="1.1" id="Layer_1" xmlns="http://www.w3.org/2000/svg" xmlns:xlink="http://www.w3.org/1999/xlink" x="0px" y="0px"
	 viewBox="0 0 1410.1 1394.2" style="enable-background:new 0 0 1410.1 1394.2;" xml:space="preserve">
<style type="text/css">
	.st0{fill:#504F4F;stroke:#555454;stroke-miterlimit:10;}
	.st1{fill:#595858;}
	.st2{fill:#595858;stroke:#595858;stroke-miterlimit:10;}
	.st3{fill:#919191;}
	.st4{fill:#858585;}
	.st5{fill:#9D9D9D;stroke:#9D9D9D;stroke-miterlimit:10;}
	.st6{fill:#E44C2E;}
	.st7{fill:#E44C2E;stroke:#E44C2E;stroke-miterlimit:10;}
	.st8{fill:#555454;stroke:#555454;stroke-miterlimit:10;}
	.st9{fill:#2B9C78;stroke:#2B9C78;stroke-miterlimit:10;}
	.st10{fill:#259974;stroke:#259974;stroke-miterlimit:10;}
	.st11{fill:#F1593C;stroke:#F1593C;stroke-miterlimit:10;}
	.st12{fill:#38C296;stroke:#38C296;stroke-miterlimit:10;}
	.st13{fill:#3CC69C;stroke:#2B9C78;stroke-miterlimit:10;}
	.st14{fill:#289F7A;stroke:#2B9C78;stroke-miterlimit:10;}
	.st15{fill:#6C6B6B;}
	.st16{fill:#686767;}
	.st17{fill:#829D94;}
	.st18{fill:#98B2A7;}
	.st19{fill:#436151;}
	.st20{fill:#CF452A;stroke:#E44C2E;stroke-miterlimit:10;}
	.st21{fill:#9AB2A8;}
	.st22{fill:#3A584E;}
	.st23{fill:#385A4C;}
	.st24{fill:#3A5C4E;}
	.st25{fill:#84A094;}
	.st26{fill:#97B2A7;}
	.st27{fill:#97B2A6;}
	.st28{fill:#97B4A7;}
	.st29{fill:#819C91;}
	.st30{opacity:0.53;fill:#404F4A;enable-background:new    ;}
</style>
<g id="_x23_504f4fff">
	<path class="st0" d="M391.4,81.9c-6.2-4.9-15.4-6.1-22.4-2.3c-7.5,3.1-12.5,10.9-12.6,18.9c-0.3,5.2,2,10.1,4.8,14.2
		c5,6.4,13.8,9.6,21.6,7.5c3-1,5.9-2.3,8.6-3.9c6.7-5.1,10-14.3,7.7-22.4C397.7,89.3,395.4,84.8,391.4,81.9z"/>
	<path class="st0" d="M628.4,317.3c-28.9,14.3-52.1,40.1-61.9,71c-10.2,29.4-7.6,62.6,5.8,90.6c8.4,17.7,21.4,33.1,36.9,45.1
		c16.1,11.9,35.2,19.8,55.1,22.7c24.4,3.7,49.7-0.7,71.8-11.5c-3.5-7.2-7-14.4-10.7-21.5c-30.3,15.6-69,13.1-97.2-6
		c-15.3-10-27.8-24.4-35.2-41.2c-7.9-17.2-10.2-36.7-7.3-55.3c4.7-30.8,25.1-58.9,53.3-72.3C635.5,331.6,631.8,324.5,628.4,317.3z"
		/>
	<path class="st0" d="M391.6,452.3c-14.2,6.9-26.7,17.2-36.6,29.5c-18.9,23.7-26.8,56-20.4,85.7c6.1,32.4,28.5,61.2,58.4,75.1
		c28.7,13.9,63.8,13.1,92.2-1.2c-2.9-5.8-5.7-11.7-8.8-17.4c-2,0.5-4.1,1-6.1,1.6c-10.9,4.1-22.5,6.6-34.1,6.1
		c-17.2-0.3-34.3-6.1-48.2-16.4c-17.2-12.1-28.8-31.2-33.1-51.5c-2.7-14.7-1.8-30.3,3.2-44.4c7.1-21,22.9-38.8,42.9-48.4
		C397.7,464.6,394.7,458.4,391.6,452.3z"/>
	<path class="st0" d="M548.6,846.9c-9.3,3-16.6,11.3-18.7,20.9c-2.3,12,3.9,24.8,14.6,30.5c9.5,4.9,22,3.7,30.3-3.2
		c4.4-3.4,7.6-8.3,9.5-13.5c3.2-10.8-0.7-23.3-9.6-30.2C567.6,845.3,557.3,844,548.6,846.9 M551.2,854.3c8.7-3.1,19.3,0.9,23.6,9.2
		c3.4,5.7,3.5,13,0.5,18.9c-5,10.6-19.9,14.4-29.4,7.3c-6.8-4.8-10.2-14.1-7.6-22.1C540.1,861.3,545.1,856.4,551.2,854.3z"/>
	<path class="st0" d="M627.3,830.4c-12.5,4.3-23.2,13.5-29.3,25.2c-7.8,14.3-7.4,32.4-0.4,47c4.8,9.3,12.2,17.4,21.4,22.4
		c15.1,8.8,34.8,8.4,50,0.1c8.3-4.7,15.5-11.4,20.2-19.8c9.5-15.8,8.9-36.8-0.5-52.5c-5.1-8.2-12.2-15.2-20.8-19.6
		C655.7,826.6,640.5,825.9,627.3,830.4 M631.8,837.3c16.3-5,35.2,0.7,46.1,13.9c9.6,11.3,13,27.7,8.2,41.8
		c-3.6,11.6-12.3,21.4-23.3,26.4c-10.1,4.8-22.1,5.5-32.6,1.8c-12-3.9-21.9-13.3-26.6-25c-5.7-13.4-3.9-29.7,4.4-41.6
		C613.6,846.3,622.2,840.1,631.8,837.3z"/>
	<path class="st0" d="M574.3,910.1c-6.8,2.3-12.8,7.6-14.8,14.7c-3,7.5-0.8,16.4,4.2,22.5c4,5.5,10.8,8.1,17.4,8.6
		c7.3,0,14.4-3.5,19.1-9c3-4.1,4.7-9,5-14.1c-0.1-7.3-3.6-14.4-9.1-19C589.9,909.2,581.5,907.2,574.3,910.1 M578.6,917
		c6.8-1.5,14.3,2.3,17,8.8c3.8,7.4,0.1,17.3-7.6,20.5c-7.7,4-18.1-0.3-20.9-8.6C563.4,929.1,569.5,918.5,578.6,917z"/>
	<path class="st0" d="M225.1,1141.3c-14.3-0.2-28.3,6.8-37.5,17.7c-8.6,11.4-12.4,26.2-9.7,40.3c1.7,7.9,5.5,15.3,10.6,21.6
		c5.8,6,12.6,11.1,20.6,13.8c7.1,2.7,14.9,3.1,22.4,2.6c16.3-2.2,31.3-13.1,37.6-28.4c5.8-13.5,5.3-29.5-1.9-42.4
		C259.2,1151,242.3,1141.5,225.1,1141.3 M221.6,1167c7.7-1.6,16.2,1,21.4,7c4.4,5.1,6.7,12.1,5.4,18.8c-1.1,6.7-5.4,12.9-11.5,16
		c-7.1,4-16.4,3.5-23.1-1c-5-3.1-7.8-8.8-9.5-14.2C201.5,1181.8,209.8,1169.1,221.6,1167z"/>
	<path class="st0" d="M1255.6,965.5c-16.3-7.1-36.3-4.6-49.9,6.9c-10.9,8.9-17.4,22.8-17.6,36.8c-0.4,13.5,5.8,26.9,15.7,35.9
		c11.5,10.1,27.6,14.5,42.6,11.3c8-1.7,15.5-5.6,21.7-11c11.8-10.9,18-27.5,15.6-43.4C1281.4,986.3,1270.5,971.7,1255.6,965.5
		 M1229.9,986.3c9.9-3.1,21.5,2,26,11.3c4.5,8.1,3,18.8-3.3,25.5c-4,4.2-9.5,6.9-15.2,7.3c-7.9,0.5-16.1-3.4-20.2-10.3
		c-3.9-6.1-4.9-14-2-20.7C1217.6,993,1223.4,988.2,1229.9,986.3z"/>
	<path class="st0" d="M1074.7,1122.9c-21.8,10.8-43.6,21.6-65.4,32.4c5.9,11.9,11.8,23.9,17.7,35.8c21.8-10.7,43.7-21.5,65.4-32.4
		C1086.5,1146.7,1080.6,1134.8,1074.7,1122.9z"/>
	<path class="st0" d="M832.7,1242.6c-21.8,10.8-43.6,21.6-65.4,32.4c5.9,11.9,11.8,23.9,17.7,35.8c21.9-10.7,43.7-21.5,65.4-32.4
		C844.5,1266.4,838.6,1254.5,832.7,1242.6z"/>
	<path class="st0" d="M1103.6,1181.2c-21.9,10.7-43.7,21.5-65.4,32.4c5.7,11.6,11.5,23.2,17.2,34.8c21.9-10.7,43.7-21.5,65.4-32.4
		C1115,1204.4,1109.3,1192.8,1103.6,1181.2z"/>
	<path class="st0" d="M861.5,1300.9c-21.8,10.7-43.7,21.5-65.4,32.4c5.8,11.6,11.5,23.2,17.2,34.9c21.8-10.7,43.7-21.5,65.4-32.4
		C873,1324.1,867.3,1312.5,861.5,1300.9z"/>
	<path class="st0" d="M1131.9,1238.5c-21.8,10.8-43.7,21.5-65.4,32.4c6.3,12.8,12.7,25.6,19,38.4c21.8-10.7,43.7-21.5,65.4-32.4
		C1144.6,1264.1,1138.2,1251.3,1131.9,1238.5z"/>
	<path class="st0" d="M889.9,1358.3c-21.9,10.7-43.7,21.5-65.4,32.4c6.3,12.8,12.7,25.6,19,38.4c21.8-10.7,43.7-21.5,65.4-32.4
		C902.6,1383.9,896.2,1371.1,889.9,1358.3z"/>
	<path class="st0" d="M1162.1,1299.5c-21.9,10.7-43.7,21.4-65.4,32.4c6,12.2,12.1,24.4,18.1,36.6c21.9-10.6,43.7-21.5,65.4-32.3
		C1174.2,1323.9,1168.1,1311.7,1162.1,1299.5z"/>
	<path class="st0" d="M1191.3,1358.7c-21.9,10.7-43.7,21.5-65.4,32.3c6.4,12.9,12.7,25.8,19.2,38.7c15.7-19.5,38.7-32.7,63.5-36.3
		C1202.8,1381.9,1197.1,1370.3,1191.3,1358.7z"/>
</g>
<g id="_x23_595858ff">
	<path class="st1" d="M391.5,116.3c-2.7,1.6-5.6,3-8.6,3.9c2.9,5.9,5.6,11.9,9.2,17.4c5.3,0.6,10.7-0.9,16,0
		c-9.2,7.9-18.8,15.4-28,23.3c-1.4,1.3-3.4,2.8-3.1,5c0,2.5,2.4,4.6,4.9,4.5c12.5-0.6,24.9-3.5,37.4-4.1
		c-9.2,9.4-20.7,16.3-29.2,26.4c0,1.8,0.9,3.5,1.7,5.1c1.2,0.5,2.5,0.2,3.7,0.2c14.4-0.7,28.7-3.4,43.1-4.2
		c-3.6,6.3-8.4,11.8-12.3,17.9c4.9,13.2,11.8,25.6,17.2,38.6c-4.8,3.6-8.5,8.7-9.7,14.7c4.6-2.2,9.2-4.4,13.8-6.7
		c6.7-3.3,13.3-6.5,19.9-10c-4.9-1.5-10.2-1.2-15.2-2c-5.5-10.9-10.6-22-15.3-33.3c3.8-6.2,8.4-11.7,12.5-17.7
		c1.6-2.6,4.5-5,3.7-8.3c-0.2-1.9-2.2-2.8-3.4-4c-13.5,1.2-26.9,3.2-40.4,4.6c10.6-9.4,21.8-18,32-27.8c-2.6-2.5-5.5-6.2-9.6-5
		c-11.4,1.9-22.9,3-34.3,4.6c8.3-8.6,18-15.7,27.2-23.1c1.5-2.3,3.1-5.5,1.5-8.1c-2.5-2-5.9-1.2-8.9-1.1c-6.7,0.2-13.3,0.7-20,1
		C395.4,124.2,393.4,120.2,391.5,116.3z"/>
	<path class="st2" d="M716.7,594.5c-3.6-0.2-6.7,2-9.9,3.5c-24.5,12.1-48.9,24.3-73.5,36.3c-22.7,11.3-45.3,22.7-68.1,33.8
		c-2.7,1.4-6.2,2.9-6.8,6.2c-0.6,4.2,2.1,7.8,3.7,11.4c2.5,5.4,5.7,10.6,7.3,16.4c6.5-2.3,13.3-2.3,20-3.1c4.1-0.2,5.9-4.3,9-6.3
		c3-0.1,6.2,1.5,9.1,0c2.8-1.5,6.3-2.4,8.4-4.8c0.7-6.6,0.5-13.3-0.8-19.8c-0.4-2.8-1.1-5.7-0.6-8.6c0.8-1.6,2.6-0.1,3.8,0.2
		c7.9,4.1,14.9,9.9,23.4,12.8c3.4,1.2,7.1,0.5,10.5-0.2c0.7-2.8,0.6-6.3,2.6-8.6c4.3-1.5,8.6,2.9,12.8,1.9c1.9-3.8,2.4-8.2,4.1-12
		c3.5,1.8,7.2,3.2,11.2,2.8c-0.4-3.8-2.1-8.1,0.3-11.6c4.7,0.2,8.3,3.6,12.6,5c1.2-2.6-0.8-5.4-1.2-8c-1.4-6.8-3.9-13.3-4.8-20.2
		c-0.5-1.7,1.3-2.5,2.2-3.5c8.3,5.7,16.9,11.2,23.9,18.5c1.4,1.5,3.5,5.1,0.9,6.4c-7.8-2.8-12.7-10.3-19.9-14.2
		c2,7.4,3.5,14.9,4.8,22.4c0.5,2.8,0.2,6.1-2.3,7.8c-4-1.6-7.5-4.3-11.4-6.1c-0.4,3.6-0.1,7.2-0.2,10.8c-3.9-0.7-7.7-2.1-11.7-2
		c-2.3,3.2-1.8,7.5-3.9,10.6c-2.9,1.2-5.8-0.7-8.3-2c-3.2,1-5.5,3.2-6.3,6.5c-0.4-0.1-1.1-0.2-1.5-0.3c1.2,2.7,1.3,5.7-0.2,8.3
		c-1.4,0.5-2.6-0.4-3.8-0.9c-9.2-4.6-18.3-9.5-27.2-14.8c-1.6-0.9-3.2-1.6-4.9-2.2c1.3,8.3,3.8,16.7,2.6,25.3
		c-5,2.6-9.9,5.1-14.8,7.8c-2.3,1.6-5.1,0.6-7.7,0.8c-2.4,1.5-4.1,4.2-7.1,4.8c-6.7,1.6-13.6,1.8-20.4,3c5.2,6.6,7.3,15.1,12.1,22
		c2.3,3.2,6.7,2.7,9.7,1c23.3-11.5,46.6-23,69.9-34.4c25.7-12.8,51.4-25.5,77.2-38.2c2.3-1.2,4.8-2.6,5.7-5.2c1-2.6-0.5-5.2-1.5-7.6
		c-3.1-6.2-6.1-12.4-9.3-18.5c-1.8,1.2-4,2.2-4.7,4.5c-1.6,4.8-2.3,9.9-3.4,14.9c-3.5,0.3-7.2-1.4-8-5.1c1.3-2.5,3.4-4.5,4.8-6.9
		c1.6-3.2,1.5-7,3.3-10.1c1.3-1.7,3.5-2.5,5.3-3.6c-3.3-7.1-7.1-14-10.5-21C721.9,597.8,720,594.8,716.7,594.5z"/>
</g>
<g id="_x23_919191ff">
	<path class="st3" d="M752.9,110.3c-4.4,1.2-9,1.6-13.2,3.6c-71.1,35.2-142.2,70.3-213.3,105.5c-19.7,9.6-39.2,19.6-59,29
		c-6.6,3.5-13.2,6.7-19.9,10c62,125.3,124,250.6,185.9,375.9c24.5-12,49-24.2,73.5-36.3c3.2-1.4,6.3-3.7,9.9-3.5
		c3.3,0.3,5.2,3.3,6.5,5.9c3.5,7,7.2,13.9,10.5,21c-1.8,1.1-4,1.8-5.3,3.6c-1.8,3.1-1.7,6.9-3.3,10.1c-1.4,2.4-3.5,4.4-4.8,6.9
		c0.9,3.7,4.5,5.4,8,5.1c1.1-5,1.8-10.1,3.4-14.9c0.7-2.3,2.9-3.3,4.7-4.5c3.2,6.1,6.2,12.3,9.3,18.5c1,2.3,2.5,5,1.5,7.6
		c-0.9,2.6-3.4,4-5.7,5.2c-25.7,12.7-51.5,25.4-77.2,38.2c5.8,11.4,11.3,23,17.1,34.4c74.4-36.8,148.8-73.6,223.2-110.4
		c23-11.4,46-22.8,69-34.1c3.1-1.5,5.5-4,8.2-6.1c2.4-2.1,5.3-3.9,7.1-6.6c3.5-5.7,6.9-11.7,7.4-18.5c2.1-7.8-1.2-15.5-2.8-23.1
		c-15.5-31.8-31.4-63.5-47-95.3c-37.7-76.1-75.3-152.3-113-228.4c-12.1-24.5-24.3-49-36.4-73.6c-2.7-6.2-7.7-10.8-11.8-16
		c-4.1-3.7-9.2-6-14.3-8.1C765.2,110.2,758.9,108.4,752.9,110.3 M674.8,170.7c3.3-0.6,7-0.1,9.8,1.9c2.7,3.3,5.3,8.3,2.7,12.4
		c-1.5,2.4-2.8,5.4-5.7,6.3c-4.3,1.5-9.9,0.6-12.5-3.5c-1.8-2.8-3.5-6.4-2.3-9.8C668.2,174.6,671,171.3,674.8,170.7 M718.3,161.7
		c6.9-1.8,14-2.4,21.1-3.3c20.2-1.1,42,5,55.6,20.8c3.3,5,8.1,10.1,7.6,16.5c-0.7,2.3-1,5.6-3.5,6.8c-10.1,1.9-19.2-4.2-27.5-8.9
		c-7.8-4-15.6-8.3-24.5-9.3c-10.2-2.5-20.8-1.6-31.1-0.7c-5.1-0.2-11.5-0.2-14.5-5c0-3.8,1-8,4.1-10.5
		C709.4,165,713.9,163.2,718.3,161.7 M712.5,308.8c10.2,2.3,19.8,6.7,28.9,11.7c16.2,8.8,29.6,22,40.4,36.8
		c6.3,9.5,11.5,19.7,15.3,30.5c5.2,16.9,7.8,34.9,5.5,52.6c-1.5,11.5-4,22.9-8.9,33.5c-11,26.4-32.1,48.3-57.6,61.2
		c-22.1,10.8-47.4,15.2-71.8,11.5c-19.8-3-38.9-10.8-55.1-22.7c-15.5-12-28.5-27.3-36.9-45.1c-13.4-28-15.9-61.2-5.8-90.6
		c9.8-30.8,33-56.7,61.9-71C654.2,304.8,684.7,301.3,712.5,308.8z"/>
	<path class="st3" d="M692,618.1c-0.9,1.1-2.6,1.9-2.2,3.5c0.9,6.9,3.4,13.4,4.8,20.2c0.4,2.6,2.4,5.4,1.2,8
		c-4.3-1.4-7.9-4.8-12.6-5c-2.4,3.5-0.7,7.8-0.3,11.6c-4,0.3-7.7-1.1-11.2-2.8c-1.7,3.9-2.2,8.2-4.1,12c-4.2,1-8.5-3.4-12.8-1.9
		c-2,2.3-1.8,5.7-2.6,8.6c-3.4,0.7-7.1,1.4-10.5,0.2c-8.5-2.9-15.5-8.7-23.4-12.8c-1.2-0.3-3-1.8-3.8-0.2c-0.5,2.9,0.2,5.8,0.6,8.6
		c1.3,6.5,1.5,13.2,0.8,19.8c-2.1,2.4-5.6,3.3-8.4,4.8c-2.9,1.6-6.1-0.1-9.1,0c-3.1,2-4.9,6.1-9,6.3c-6.7,0.8-13.6,0.8-20,3.1
		c0.5,2.4,1.5,4.7,3.3,6.4c6.8-1.2,13.7-1.3,20.4-3c3-0.6,4.7-3.2,7.1-4.8c2.6-0.2,5.4,0.9,7.7-0.8c4.9-2.7,9.8-5.2,14.8-7.8
		c1.2-8.5-1.3-16.9-2.6-25.3c1.7,0.7,3.3,1.3,4.9,2.2c8.8,5.3,17.9,10.2,27.2,14.8c1.2,0.5,2.5,1.4,3.8,0.9c1.5-2.6,1.4-5.6,0.2-8.3
		c0.4,0.1,1.1,0.2,1.5,0.3c0.8-3.3,3.1-5.5,6.3-6.5c2.5,1.3,5.4,3.2,8.3,2c2.1-3.2,1.7-7.5,3.9-10.6c4-0.2,7.8,1.2,11.7,2
		c0.1-3.6-0.1-7.2,0.2-10.8c3.9,1.8,7.4,4.5,11.4,6.1c2.5-1.7,2.9-5.1,2.3-7.8c-1.3-7.5-2.8-15-4.8-22.4c7.2,3.8,12,11.4,19.9,14.2
		c2.6-1.2,0.5-4.9-0.9-6.4C708.9,629.3,700.3,623.8,692,618.1z"/>
	<path class="st3" d="M914,640c-74.3,36.9-148.8,73.6-223.2,110.5c74.4,150.6,149,301.1,223.4,451.8c31.7-15.7,63.4-31.3,95.1-47
		c21.8-10.8,43.6-21.6,65.4-32.4c20.9-10.3,41.8-20.7,62.8-31c-52.2-105.5-104.3-210.9-156.5-316.4c-2.6-5.4-5.4-10.7-7.8-16.1
		c-9-17.5-17.4-35.3-26.3-52.8c-4-8.1-8-16.2-12-24.3c-2.1-4.2-4.1-8.5-6.2-12.8C923.6,659.7,918.9,649.8,914,640 M894.4,715.6
		c5,10.2,10.1,20.3,15.1,30.5c-52.9,26.2-105.7,52.3-158.6,78.5c-5.1-10.1-10.1-20.3-15.1-30.5C788.7,767.9,841.6,741.7,894.4,715.6
		 M916.6,760.4c5.1,10.1,10,20.3,15.1,30.4C878.8,817,825.9,843.2,773,869.3c-5-10.2-10.1-20.3-15.1-30.5
		C810.8,812.7,863.7,786.6,916.6,760.4z"/>
</g>
<g id="_x23_858585ff">
	<path class="st4" d="M447.4,258.4c-4.5,2.3-9.2,4.5-13.8,6.7C346.9,308.2,260,351,173.2,394c-2.3,1.2-4.2,3.1-6.2,4.7
		c-3.5,3.1-7.8,5.7-9.8,10.1c-3.3,5.3-5.6,11.1-6.1,17.4c-1.6,6.1,1,12.1,2.1,18c0.7,4,2.9,7.5,4.6,11.1
		c12.5,25.3,25,50.5,37.5,75.8c37.5,75.9,75.1,151.7,112.6,227.6c14.9,30,29.7,60.1,44.6,90.1c2.3,3.9,5.6,7,8.3,10.6
		c2.8,4,7.4,5.9,11.5,8.1c4.7,2.6,10.1,3,15.3,3.8c3.8,0.5,7.4-0.8,11-1.6c3.3-0.8,6.7-1.2,9.7-2.8c17.6-8.8,35.2-17.4,52.9-26.2
		c73.5-36.3,147-72.7,220.5-109.1c-5.8-11.4-11.3-23-17.1-34.4c-23.3,11.4-46.7,22.9-69.9,34.4c-3,1.7-7.4,2.2-9.7-1
		c-4.8-6.9-6.9-15.4-12.1-22c-1.7-1.8-2.7-4.1-3.3-6.4c-1.6-5.8-4.9-10.9-7.3-16.4c-1.6-3.6-4.3-7.3-3.7-11.4
		c0.6-3.4,4.1-4.8,6.8-6.2c22.8-11.1,45.4-22.5,68.1-33.8C571.4,509,509.4,383.7,447.4,258.4 M468.3,446.1
		c32.4,9.4,59.1,35.7,69.6,67.7c2.4,8.5,4.8,17.2,5.1,26.1c1.5,18-2.3,36.4-10.1,52.7c-9.8,21-27.2,38.2-47.8,48.7
		c-28.4,14.4-63.5,15.1-92.2,1.2c-29.9-13.9-52.3-42.7-58.4-75.1c-6.3-29.7,1.5-62,20.4-85.7c10-12.2,22.4-22.6,36.6-29.5
		C415.2,440.8,443.2,438.2,468.3,446.1z"/>
	<path class="st4" d="M690.8,750.5c-73.5,36.3-147,72.8-220.5,109c4.6,9.4,9.3,18.7,13.9,28.1c-0.5,0.2-1.4,0.6-1.9,0.8
		c0.6,0,1.7,0.1,2.2,0.1c8,15.4,15.5,31,23.1,46.5c2.1,3.9,3.9,8,5.7,12c4,7,7.3,14.3,10.8,21.5c6.5,12.8,12.8,25.6,19,38.5
		c50.4,101.3,100.3,202.8,150.6,304.2c24.5-12.1,49-24.2,73.5-36.4c21.8-10.8,43.6-21.6,65.4-32.4c27.2-13.5,54.4-26.9,81.5-40.3
		C839.9,1051.6,765.3,901.1,690.8,750.5 M548.6,846.9c8.7-2.9,19-1.6,26.1,4.5c9,6.9,12.8,19.4,9.6,30.2c-1.9,5.2-5,10.1-9.5,13.5
		c-8.3,6.9-20.7,8.1-30.3,3.2c-10.8-5.7-16.9-18.5-14.6-30.5C532,858.2,539.3,849.9,548.6,846.9 M627.3,830.4
		c13.2-4.5,28.4-3.8,40.7,2.9c8.6,4.4,15.7,11.4,20.8,19.6c9.4,15.7,10,36.7,0.5,52.5c-4.7,8.3-11.9,15-20.2,19.8
		c-15.3,8.3-34.9,8.7-50-0.1c-9.3-5-16.6-13.1-21.4-22.4c-7.1-14.5-7.4-32.6,0.4-47C604.1,843.9,614.8,834.7,627.3,830.4
		 M574.3,910.1c7.3-2.9,15.6-0.9,21.8,3.6c5.5,4.7,9,11.8,9.1,19c-0.3,5-2,10-5,14.1c-4.7,5.5-11.8,9-19.1,9
		c-6.6-0.5-13.4-3.1-17.4-8.6c-5-6.1-7.2-15-4.2-22.5C561.5,917.7,567.4,912.3,574.3,910.1z"/>
	<path class="st4" d="M187.5,1155.2c-27.7-4.7-55.1-10.9-83.1-13.6c-26.7,14.1-45.8,38.5-70.1,56c7.3,13.9,14.8,27.6,23.5,40.7
		c8.6-8.3,18.1-15.7,27-23.7c10.2-8.6,20.1-17.5,30.8-25.5c20.8,3.8,41.6,7.4,62.5,10.2c-2.7-14.1,1.1-28.9,9.7-40.3
		C188.8,1157.9,189.5,1155.6,187.5,1155.2z"/>
	<path class="st4" d="M221.6,1167c-11.8,2.1-20.1,14.9-17.3,26.5c1.8,5.5,4.5,11.1,9.5,14.2c6.7,4.5,16,5,23.1,1
		c6.1-3.1,10.4-9.3,11.5-16c1.3-6.7-1.1-13.7-5.4-18.8C237.8,1168,229.3,1165.4,221.6,1167z"/>
	<path class="st4" d="M209.1,1234.6c-7.9-2.7-14.8-7.8-20.6-13.8c-7.3,16.5-10.8,34.3-18,50.8c-1.2,2.7-1.6,6.2-4.7,7.5
		c-21.9,10.8-45.8,16.8-67.9,27c7.6,13.4,15.9,26.4,23.7,39.8c12.3-4.6,24.4-9.6,36.4-14.8c4.9-2,9.5-5.1,14.9-5.8
		c10.7-4.8,22.1-8,32.9-12.7c8.5-25.2,15.6-50.8,25.8-75.4C224,1237.7,216.3,1237.3,209.1,1234.6z"/>
	<path class="st4" d="M1229.9,986.3c-6.5,1.9-12.3,6.7-14.8,13.1c-2.9,6.7-2,14.7,2,20.7c4.1,6.9,12.3,10.8,20.2,10.3
		c5.7-0.4,11.3-3.1,15.2-7.3c6.3-6.7,7.8-17.5,3.3-25.5C1251.4,988.3,1239.8,983.2,1229.9,986.3z"/>
	<path class="st4" d="M1359.8,1027.6c-25.4-8.3-51.3-15.4-76.1-25.4c2.4,15.9-3.8,32.5-15.6,43.4c18.6,7.5,38.2,11.9,56.6,19.9
		c2.6,3.4,4.3,7.3,5.8,11.3c8.6,19.4,14.6,39.8,23.3,59.1c13.1-8.1,26.3-16.2,39.5-24.1c-5.9-16.1-12.9-31.8-20-47.4
		c-0.6-3-1.3-5.9-2.9-8.5C1366.9,1046.4,1363.6,1036.9,1359.8,1027.6z"/>
	<path class="st4" d="M1203.8,1045.2c-2,1.8-1.9,4.6-2.3,7.1c-3.1,18.4-6.8,36.7-9.5,55.1c-0.9,7.7-2.4,15.4-2.4,23.2
		c14.3,26.4,38.6,45.3,56.3,69.2c13.7-7.3,27.4-14.9,40.3-23.5c-15.7-17.3-30.8-35-45.9-52.8c-1.3-1.5-2.5-3.2-3.7-4.8
		c3.6-20.7,7-41.4,9.7-62.2C1231.5,1059.6,1215.3,1055.3,1203.8,1045.2z"/>
	<path class="st4" d="M1092.4,1158.7c-21.8,10.9-43.6,21.7-65.4,32.4c3.7,7.5,7.4,15,11.1,22.5c21.8-10.9,43.6-21.7,65.4-32.4
		C1099.8,1173.7,1096.1,1166.2,1092.4,1158.7z"/>
	<path class="st4" d="M850.4,1278.3c-21.7,10.9-43.6,21.7-65.4,32.4c3.7,7.5,7.4,15,11.1,22.5c21.8-10.9,43.6-21.6,65.4-32.4
		C857.8,1293.4,854.1,1285.8,850.4,1278.3z"/>
	<path class="st4" d="M1120.8,1216c-21.8,10.8-43.6,21.7-65.4,32.4c3.7,7.5,7.4,15,11.1,22.5c21.8-10.9,43.6-21.6,65.4-32.4
		C1128.2,1231,1124.5,1223.5,1120.8,1216z"/>
	<path class="st4" d="M878.8,1335.7c-21.8,10.9-43.6,21.7-65.4,32.4c3.7,7.5,7.4,15,11.1,22.5c21.8-10.9,43.6-21.7,65.4-32.4
		C886.2,1350.7,882.5,1343.2,878.8,1335.7z"/>
	<path class="st4" d="M1150.9,1277c-21.7,10.9-43.6,21.7-65.4,32.4c3.7,7.5,7.4,15,11.1,22.5c21.7-10.9,43.6-21.7,65.4-32.4
		C1158.4,1292,1154.6,1284.5,1150.9,1277z"/>
	<path class="st4" d="M1180.2,1336.1c-21.8,10.8-43.6,21.7-65.4,32.3c3.7,7.5,7.4,15,11.1,22.5c21.8-10.8,43.6-21.7,65.4-32.3
		C1187.6,1351.2,1183.9,1343.6,1180.2,1336.1z"/>
</g>
<g id="_x23_9d9d9dff">
	<path class="st5" d="M674.8,170.7c-3.9,0.6-6.6,3.9-8,7.3c-1.2,3.4,0.5,6.9,2.3,9.8c2.5,4,8.2,4.9,12.5,3.5
		c2.9-0.9,4.2-3.9,5.7-6.3c2.6-4.1,0-9.1-2.7-12.4C681.9,170.6,678.1,170.1,674.8,170.7z"/>
	<path class="st5" d="M718.3,161.7c-4.5,1.5-9,3.3-12.6,6.3c-3.1,2.5-4.1,6.7-4.1,10.5c3,4.9,9.4,4.9,14.5,5
		c10.3-0.8,20.9-1.7,31.1,0.7c8.8,1,16.7,5.3,24.5,9.3c8.4,4.8,17.4,10.8,27.5,8.9c2.4-1.2,2.7-4.4,3.5-6.8
		c0.5-6.4-4.4-11.5-7.6-16.5c-13.6-15.8-35.4-21.8-55.6-20.8C732.4,159.2,725.3,159.9,718.3,161.7z"/>
</g>
<g id="_x23_e44c2eff">
	<path class="st6" d="M890.5,206.4c-18.8-3.3-38.4-2.3-56.8,2.7c37.7,76.1,75.3,152.3,113,228.4c28.8-21.7,47.7-55.8,50.8-91.7
		c3.5-36.3-9.6-73.7-34.5-100.3C943.8,225,918,211.1,890.5,206.4 M902.2,233.6c12.3-3.2,26.4,1.5,33.9,11.8
		c2.6,3.8,4.1,8.9,2.1,13.3c-1.1,4.6-5.4,7.6-9.6,9.1c-9.4,2.9-20.1,0.9-28.2-4.5c-5.3-3.7-9.9-9.2-10.4-15.8
		c0.4-2.7,1.2-5.5,2.7-7.9C895.2,236.8,898.4,234.4,902.2,233.6z"/>
	<path class="st6" d="M195.1,531c-24.7,19.1-41.9,47.6-47.5,78.3c-3.2,17.3-2.9,35.2,1,52.4c6.9,30,24.6,57.6,49.5,75.8
		c30.8,23,72.3,31.1,109.5,21.1C270.2,682.7,232.7,606.8,195.1,531 M182.9,585.9c4-1.6,8.4,0,11.9,1.9c5.2,4.8,6.8,12.4,6.2,19.3
		c-1.1,9.6-6.1,18.9-14.2,24.2c-3.7,2.1-8.3,3.6-12.4,1.7c-4.9-1.2-8.1-5.8-9.4-10.5c-2.3-8.8-0.4-18.5,4.6-26
		C173,592,177.2,587.5,182.9,585.9z"/>
	<path class="st7" d="M551.2,854.3c-6.1,2-11.1,7-12.9,13.2c-2.6,8,0.8,17.3,7.6,22.1c9.4,7,24.3,3.3,29.4-7.3
		c3-5.9,2.9-13.2-0.5-18.9C570.5,855.3,559.9,851.2,551.2,854.3z"/>
	<path class="st7" d="M631.8,837.3c-9.6,2.8-18.2,9-23.8,17.3c-8.4,11.9-10.1,28.2-4.4,41.6c4.7,11.7,14.7,21,26.6,25
		c10.6,3.7,22.5,2.9,32.6-1.8c11-5.1,19.7-14.9,23.3-26.4c4.8-14.1,1.4-30.5-8.2-41.8C667,838,648.1,832.3,631.8,837.3 M636.2,848.3
		c4.2-0.6,8.5-1.3,12.8-0.5c10.8,1.6,20.8,9,24.8,19.4c5.7,14.1-0.5,32-14,39.3c-9.3,5.4-21.3,5-30.6-0.1
		c-7.6-4.1-13.5-11.5-15.5-19.9c-1.1-7-1-14.4,2.3-20.9C619.9,857.2,627.3,850.6,636.2,848.3z"/>
	<path class="st7" d="M578.6,917c-9.1,1.5-15.2,12.1-11.5,20.7c2.7,8.2,13.1,12.6,20.9,8.6c7.7-3.1,11.4-13.1,7.6-20.5
		C592.9,919.3,585.4,915.5,578.6,917z"/>
</g>
<g id="_x23_555454ff">
	<path class="st8" d="M712.5,308.8c-27.8-7.6-58.3-4.1-84.1,8.4c3.4,7.2,7.1,14.3,10.6,21.5c19.3-9.8,42-12.3,63.1-7.7
		c32.2,6.8,60.5,30.8,71.3,62.1c12.7,33.3,4.5,73.2-19.7,99.2c-7.9,8.9-17.6,16-28.2,21.2c3.6,7.1,7.1,14.3,10.7,21.5
		c25.5-12.8,46.6-34.7,57.6-61.2c4.9-10.6,7.4-22,8.9-33.5c2.3-17.7-0.3-35.7-5.5-52.6c-3.8-10.7-8.9-21-15.3-30.5
		c-10.8-14.8-24.2-28-40.4-36.8C732.2,315.5,722.7,311.1,712.5,308.8z"/>
	<path class="st8" d="M468.3,446.1c-25.2-7.9-53.1-5.3-76.8,6.2c3.1,6.1,6.1,12.4,9.3,18.5c10.1-4.5,20.9-8,32-8.2
		c14.2-0.7,28.6,1.8,41.3,8.1c19.9,9.5,36.2,26.9,43.3,47.9c6.6,17.7,6.3,37.6,0.6,55.5c-7.2,20.7-22.3,38.9-42.2,48.5
		c-1.9,0.9-3.7,1.9-5.6,2.8c2-0.6,4.1-1.1,6.1-1.6c3,5.7,5.8,11.6,8.8,17.4c20.6-10.5,38-27.7,47.8-48.7
		c7.8-16.3,11.5-34.7,10.1-52.7c-0.3-8.9-2.7-17.6-5.1-26.1C527.4,481.8,500.8,455.5,468.3,446.1z"/>
</g>
<g id="_x23_2b9c78ff">
	<path class="st9" d="M702,331.1c-21.1-4.6-43.8-2.1-63.1,7.7c14.3,29,28.6,58,43,87c28.6-14.2,57.2-28.5,86-42.4
		c1.6,3.4,3.5,6.6,5.3,9.9C762.6,361.9,734.3,337.8,702,331.1z"/>
	<path class="st9" d="M432.9,462.6c-11.1,0.2-21.9,3.7-32,8.2c12.4,25.2,24.8,50.4,37.3,75.5c6.3-3.1,12.7-6.2,19-9.4
		c4-4.1,9.2-6.6,14.9-7.3c13.5-6.5,26.8-13.5,40.4-19.8c1.5,3,3.3,6,5,8.9c-7.1-21-23.4-38.4-43.3-47.9
		C461.4,464.5,447,461.9,432.9,462.6z"/>
</g>
<g id="_x23_259974ff">
	<path class="st10" d="M639,338.8c-28.2,13.4-48.6,41.5-53.3,72.3c-2.9,18.6-0.6,38.1,7.3,55.3c7.4,16.7,19.9,31.2,35.2,41.2
		c28.2,19.1,66.9,21.7,97.2,6c-14.4-29.3-28.9-58.5-43.4-87.8C667.6,396.8,653.3,367.8,639,338.8 M654.1,437.7
		c6.7-1.6,14.1,0.9,18.6,6c3.2,4.7,6,10.4,4.6,16.2c-1.4,7.2-6.8,14.3-14.4,15.7c-4.8,0.5-10,0.4-14.2-2.2
		c-7.6-4.5-11.9-14.6-8.5-23.1C641.9,443.9,647.8,439.4,654.1,437.7z"/>
	<path class="st10" d="M400.8,470.8c-20,9.7-35.7,27.4-42.9,48.4c-5,14.2-5.8,29.7-3.2,44.4c4.4,20.4,16,39.5,33.1,51.5
		c13.8,10.3,30.9,16.1,48.2,16.4c11.7,0.5,23.2-2.1,34.1-6.1c1.9-0.9,3.8-1.9,5.6-2.8c-12.6-25.5-25.2-50.9-37.7-76.4
		C425.6,521.2,413.2,496,400.8,470.8z"/>
	<path class="st10" d="M916.6,760.4c-52.9,26.2-105.8,52.3-158.6,78.5c5,10.2,10,20.3,15.1,30.5c52.9-26.2,105.8-52.3,158.6-78.5
		C926.6,780.7,921.7,770.5,916.6,760.4z"/>
</g>
<g id="_x23_f1593cff">
	<path class="st11" d="M182.9,585.9c-5.7,1.5-9.9,6.1-13.2,10.7c-5,7.5-6.9,17.2-4.6,26c1.3,4.6,4.5,9.3,9.4,10.5
		c4.1,1.9,8.7,0.4,12.4-1.7c8.1-5.3,13.1-14.7,14.2-24.2c0.7-6.9-1-14.4-6.2-19.3C191.2,586,186.9,584.3,182.9,585.9z"/>
	<path class="st11" d="M902.2,233.6c-3.7,0.8-6.9,3.2-9.5,5.9c-1.5,2.4-2.3,5.2-2.7,7.9c0.5,6.7,5.1,12.2,10.4,15.8
		c8.1,5.4,18.8,7.4,28.2,4.5c4.2-1.5,8.5-4.4,9.6-9.1c2-4.4,0.4-9.5-2.1-13.3C928.5,235.1,914.5,230.4,902.2,233.6z"/>
</g>
<g id="_x23_38c296ff">
	<path class="st12" d="M654.1,437.7c-6.3,1.7-12.2,6.1-13.9,12.6c-3.3,8.4,0.9,18.5,8.5,23.1c4.2,2.6,9.4,2.7,14.2,2.2
		c7.6-1.4,12.9-8.5,14.4-15.7c1.4-5.8-1.4-11.5-4.6-16.2C668.1,438.7,660.7,436.1,654.1,437.7z"/>
	<path class="st12" d="M894.4,715.6c-52.9,26.1-105.7,52.3-158.6,78.4c5,10.2,10,20.3,15.1,30.5c52.9-26.2,105.7-52.3,158.6-78.5
		C904.5,735.9,899.5,725.7,894.4,715.6z"/>
</g>
<g id="_x23_3cc69cff">
	<path class="st13" d="M472,529.6c-5.7,0.7-10.9,3.2-14.9,7.3c-2.7,5.2-4.1,11.7-0.7,17.1c3.2,8,13.1,11.4,21,8.7
		c8.7-3.5,13.3-14.9,8.7-23.3C483.7,533.7,477.8,530.7,472,529.6z"/>
</g>
<g id="_x23_289f7aff">
	<path class="st14" d="M767.9,383.3c-28.8,13.9-57.3,28.3-86,42.4c14.4,29.3,29,58.5,43.4,87.8c10.6-5.2,20.3-12.4,28.2-21.2
		c24.2-26,32.4-65.9,19.7-99.2C771.4,390,769.5,386.7,767.9,383.3z"/>
	<path class="st14" d="M512.4,509.7c-13.6,6.4-26.9,13.3-40.4,19.8c5.8,1.2,11.7,4.1,14,9.8c4.7,8.3,0,19.8-8.7,23.3
		c-7.8,2.8-17.8-0.7-21-8.7c-3.3-5.3-2-11.8,0.7-17.1c-6.3,3.2-12.6,6.3-19,9.4c12.5,25.5,25.2,50.9,37.7,76.4
		c19.8-9.7,34.9-27.8,42.2-48.5c5.8-17.9,6-37.8-0.6-55.5C515.7,515.7,514,512.8,512.4,509.7z"/>
</g>
<g id="_x23_6c6b6bff">
	<path class="st15" d="M904.7,621.2c-74.4,36.8-148.8,73.6-223.2,110.4c3.1,6.3,6.2,12.5,9.3,18.8C765.2,713.6,839.7,676.9,914,640
		C910.9,633.7,907.8,627.5,904.7,621.2z"/>
</g>
<g id="_x23_686767ff">
	<path class="st16" d="M681.5,731.6c-73.5,36.3-147,72.7-220.5,109.1c3.1,6.2,6.2,12.5,9.3,18.8c73.6-36.2,147-72.7,220.5-109
		C687.7,744.2,684.6,737.9,681.5,731.6z"/>
</g>
<g id="_x23_829d94ff">
	<path class="st17" d="M482.2,888.3l-1.2-0.1c-1.4,7.9-2,15.9-3.1,23.8c-0.6,6.6-2.1,13.2-1.3,19.8c10.3,1,20.6,2.1,31,3.1
		c-7.7-15.5-15.2-31.1-23.1-46.5C483.9,888.4,482.8,888.4,482.2,888.3z"/>
	<path class="st17" d="M942,670.1c-4.5,0.2-8.9-0.5-13.3-0.7c2.1,4.2,4.1,8.6,6.2,12.8c13.6-1.5,27.3-0.6,40.8,0.4
		c3.2,0.1,6.4,0.4,9.5,1.1c0.3-3.3,0.5-6.6,0.7-9.9C971.4,671.4,956.7,669.5,942,670.1z"/>
	<path class="st17" d="M983.1,704.2c-12,1.7-24.1,3.6-36.3,2.2c8.9,17.6,17.3,35.4,26.3,52.8c1.1,0,2.1,0,3.2,0.1l1-1.2
		C979,740.2,980.9,722.2,983.1,704.2z"/>
	<path class="st17" d="M513.3,947c-13-0.9-26-2.2-39-3.2c0.3,4.2-0.9,8.2-1.3,12.3c-0.4,3.9,1,7.9-0.1,11.8
		c-1.6,6.7-5.6,12.6-9.9,17.9c7.5,2.9,13.8,7.8,19.8,12.9c6.6,5.4,12.9,11.1,19.3,16.7c7.9-6.3,14-14.7,17.2-24.4
		c2.5-7.3,3.2-15,4.7-22.5C520.6,961.4,517.3,954,513.3,947z"/>
	<path class="st17" d="M993.2,708c-1,17.8-2.6,35.5-3.9,53.3c3.8-0.2,7.7,0.4,11.4,1.4c4.4,0.3,8.8-1.2,13.1,0
		c6.7,1.7,12.5,5.7,17.9,9.7c1.7-5.9,5.4-10.8,9-15.6c6.4-8.2,13.3-15.9,20.1-23.8c-6.2-7.7-14.4-13.8-23.9-16.8
		c-13.8-4.4-28.4-5-42.8-6.4C993.8,709.4,993.4,708.5,993.2,708z"/>
	<path class="st17" d="M458.1,991.8c-13.6,14.4-29.3,26.7-45.2,38.5c9.8,13.3,19.3,26.7,28.6,40.3c7.1-3,12.9-8.3,19.1-12.8
		c13.1-9.8,24.5-21.5,35.7-33.3C483.5,1013.6,467.2,1006.4,458.1,991.8z"/>
	<path class="st17" d="M403.7,1036.7c-9.8,7-20,13.4-30,20.2c-4.1,2.8-8.8,4.7-12.6,8c-3.2,3.2-7.7,4.6-11.3,7.4
		c8.7,15.5,18.1,30.7,26.3,46.6c8.5-6.3,17.6-11.6,26.1-17.9c10.2-7.1,20.2-14.5,30-22.1c1.3-1.5,2.9,0,4.2,0.6
		C424.5,1066,413.5,1051.7,403.7,1036.7z"/>
	<path class="st17" d="M339.5,1079.4c-6.2,4.2-13.5,6.2-19.6,10.5c-3,2.2-6.7,3-9.8,5c-21.2,12-42.5,23.9-64.1,35.2
		c-6.9,3.8-14.1,7.1-20.8,11.2c17.2,0.2,34.1,9.8,42.1,25.1c7.2,12.9,7.7,28.9,1.9,42.4c10.3-3.9,20.3-8.6,30.3-13.2
		c3.4-1.7,6.8-3.6,10.2-5.3c-2-1.1-3.9-2.4-6.1-2.8c-7.3-1.6-14.7-3-21.9-4.8c3.7-7.9,8.1-15.6,13.1-22.8
		c-7.2-14.3-15.3-28.2-21.8-42.8c3.4-1.9,6.8-3.9,10.1-5.9c7.7,14.7,14.8,29.6,21.9,44.6c6.1-1.4,11.5-4.9,17.1-7.5
		c15.4-7.8,30.9-15.4,45.8-24.2C358.3,1109.2,348.7,1094.4,339.5,1079.4z"/>
	<path class="st17" d="M1069.7,739.1c-3.5,4.4-6.9,8.9-10,13.7c-6.3,9-12.5,19.1-22.6,24.4c13.9,12.7,25.5,27.6,37,42.5
		c0.7,0.8,1.5,1.7,2.2,2.6c13.4-9.9,26.8-19.6,40.5-28.9C1103.7,773.1,1087.5,755.1,1069.7,739.1z"/>
	<path class="st17" d="M322.2,1175.8c-3.2,1.9-6-1.5-8.7-2.7c1.9,4.1,3.9,8.3,6.1,12.3c21.3-10.9,42.2-22.5,62.9-34.6
		c-0.7-1.6-1.4-3.2-2.2-4.7C360.6,1155.3,342,1166.6,322.2,1175.8z"/>
	<path class="st17" d="M1122.7,800.7c-12.7,11.1-26,21.6-40.1,30.8c7.9,11.2,15.6,22.6,23,34.1c2.2,3.2,3.6,7,6.7,9.4
		c4.4,6.3,6.9,13.6,12,19.4c-2-3.1-4-6.2-5.8-9.4c15.7-8.7,30.9-18.4,46.9-26.7c-5.4-5.2-8.7-12.1-13.2-18.1
		C1142.7,826.8,1133.2,813.3,1122.7,800.7z"/>
	<path class="st17" d="M1197,852.2c-3.7,1.3-7.3,3.1-10.7,5c1.9-0.8,3.9-1.5,5.9-2.3c9.4,17.7,18.9,35.3,28.1,53.1
		c1,2.1,2.4,4.2,2.6,6.5c-1.3,2.6-3.1,4.9-4.9,7.2c4.7-2.2,9.4-4.6,14-6.9c-10.5-20.2-21.7-40-33.3-59.6
		C1198.2,854.2,1197.6,853.2,1197,852.2z"/>
	<path class="st17" d="M1170.5,866.7c-14.9,9.6-29.6,19.5-44.8,28.7c1.9,3.2,4.2,6.3,5.5,9.8c2.2,6,6.6,10.8,8.8,16.8
		c5.6,10.1,11.6,19.9,16.9,30.1c15.1-7.8,30.3-15.3,45.6-22.6c-3.4-8.8-8-17.1-12.5-25.4C1184,891.5,1176.9,879.3,1170.5,866.7z"/>
	<path class="st17" d="M1163.7,962c-1.7-3.2-3.3-6.6-6-9.1c6,11.8,12.9,23.1,18.8,34.9c3.8,7.2,7.7,14.3,11.6,21.5
		c0.2-14.1,6.6-27.9,17.6-36.8c13.6-11.5,33.7-14,49.9-6.9c-5.5-14.2-12-27.9-18.8-41.5c-0.4,0.2-1.3,0.7-1.8,0.9
		c-1.5,9.4-4,18.6-5.7,27.9c-8-3.8-15.5-8.6-23.4-12.8C1191.7,947.1,1178,955.2,1163.7,962z"/>
</g>
<g id="_x23_98b2a7ff">
	<path class="st18" d="M975.7,682.6c-13.6-1-27.3-1.9-40.8-0.4c4,8.1,8,16.2,12,24.3c12.1,1.4,24.3-0.5,36.3-2.2
		c0.9-6.8,1.4-13.7,2.1-20.5C982.1,683,978.9,682.7,975.7,682.6z"/>
	<path class="st18" d="M1087.5,718.7c-0.4,0.1-1.2,0.2-1.7,0.2c-5.6,6.6-10.9,13.3-16.2,20.2c17.9,16,34,34,47.1,54.1
		c7.4-4.8,14.4-10.4,21.2-16.1c0.4-1,0.8-1.9,1.2-2.8c-7-6.9-14.1-13.8-20.9-20.9C1107.6,742.2,1097.8,730.2,1087.5,718.7z"/>
	<path class="st18" d="M517.7,1042.1c-6.8-6.3-14.1-12-21.4-17.7c-11.3,11.8-22.7,23.5-35.7,33.3c-6.2,4.5-12,9.8-19.1,12.8
		c5.3,8.4,11.4,16.3,18,23.7c5.6-4.3,9.8-10,15.1-14.6C488.4,1066.7,502.4,1053.5,517.7,1042.1z"/>
</g>
<g id="_x23_436151ff">
	<path class="st19" d="M1009.9,678.8c-7.9-1.9-16-3.5-24-4.9c-0.2,3.3-0.4,6.6-0.7,9.9c-0.7,6.8-1.2,13.7-2.1,20.5
		c-2.2,18-4.1,36-5.8,54c-0.1,0.5-0.2,1.5-0.2,2c4.1,0.2,8.1,1,12.2,1.1c1.3-17.8,2.9-35.5,3.9-53.3c0.5-7.8,1-15.7,1.3-23.5
		c0.3-1.2-0.1-2.8,1-3.7c8.2-0.5,16.3,1.1,24.5,0.9C1016.8,680.2,1013.3,679.6,1009.9,678.8z"/>
	<path class="st19" d="M476.6,931.9c-0.3,0-0.8-0.1-1.1-0.1c-0.3,4-1,8-1.2,12c13,1,26,2.3,39,3.2c-1.8-4.1-3.6-8.1-5.7-12
		C497.3,934,487,932.9,476.6,931.9z"/>
	<path class="st19" d="M463.1,985.9c-1.7,2-3.3,3.9-5,5.9c9.1,14.7,25.4,21.8,38.2,32.7c7.3,5.7,14.6,11.4,21.4,17.7
		c1.6,1.3,3.2,2.6,4.8,3.8c2.1-3.1,4-6.2,6-9.4c-8.4-7.4-17.8-13.7-26.2-21.1c-6.4-5.6-12.7-11.3-19.3-16.7
		C476.9,993.7,470.6,988.7,463.1,985.9z"/>
	<path class="st19" d="M1091,712.9c-3.1-2.4-6.4-4.3-9.8-6.3c-6.6,9-13.4,17.9-20.5,26.4c-6.7,7.9-13.7,15.6-20.1,23.8
		c-3.6,4.8-7.3,9.7-9,15.6l0,0.1c1.9,1.5,3.7,3,5.5,4.6c10.1-5.3,16.2-15.4,22.6-24.4c3.1-4.7,6.5-9.2,10-13.7
		c5.2-6.9,10.6-13.6,16.2-20.2C1087.5,716.9,1089.2,714.9,1091,712.9z"/>
</g>
<g id="_x23_cf452aff">
	<path class="st20" d="M636.2,848.3c-8.9,2.3-16.3,8.9-20.2,17.2c-3.3,6.4-3.4,13.9-2.3,20.9c2,8.5,7.9,15.8,15.5,19.9
		c9.3,5.1,21.3,5.4,30.6,0.1c13.5-7.3,19.6-25.1,14-39.3c-3.9-10.3-14-17.7-24.8-19.4C644.7,847,640.4,847.7,636.2,848.3z"/>
</g>
<g id="_x23_9ab2a8ff">
	<path class="st21" d="M1019.9,681.7c-8.2,0.2-16.3-1.4-24.5-0.9c-1.1,0.8-0.7,2.4-1,3.7c-0.3,7.9-0.8,15.7-1.3,23.5
		c0.2,0.5,0.7,1.4,0.9,1.8c14.3,1.4,28.9,2,42.8,6.4c9.5,3,17.6,9.1,23.9,16.8c7.2-8.6,14-17.4,20.5-26.4
		c-16.6-9.7-34.5-17.2-52.9-22.8C1025.5,683,1022.8,682,1019.9,681.7z"/>
	<path class="st21" d="M524.2,968.5c-1.6,7.5-2.2,15.2-4.7,22.5c-3.1,9.6-9.3,18.1-17.2,24.4c8.4,7.4,17.8,13.7,26.2,21.1
		c5.6-9.5,10.4-19.4,14.8-29.5C537,994.2,530.7,981.3,524.2,968.5z"/>
</g>
<g id="_x23_3a584eff">
	<path class="st22" d="M412.8,1030.2c-3.1,2.1-6.1,4.3-9.2,6.5c9.9,15,20.9,29.3,32.8,42.7c5.3,6.5,10.8,13,15,20.2
		c1.1,2.5,2,5,3,7.6c3.8-2.8,8.2-4.8,11.8-7.8c-2.3-1.7-4.7-3.3-7-5.2c-6.6-7.4-12.7-15.3-18-23.7
		C432.2,1056.9,422.6,1043.5,412.8,1030.2z"/>
	<path class="st22" d="M1152.9,780.4c-2.8-3.9-4.9-8.3-8-11.9c-2.1,3-4.1,6.2-6.9,8.6c-6.8,5.7-13.7,11.3-21.2,16.1
		c-13.8,9.3-27.2,19.1-40.5,28.9c-0.7-0.9-1.5-1.7-2.2-2.6c2.8,4,5.7,7.9,8.5,11.9c14.1-9.2,27.4-19.7,40.1-30.8
		c7.1-6.4,14.6-12.3,22.5-17.6C1147.7,782.1,1150.3,781.3,1152.9,780.4z"/>
</g>
<g id="_x23_385a4cff">
	<path class="st23" d="M349.5,1071.7c-3.5,2.3-7,4.6-10.3,7.2l0.4,0.6c9.2,15,18.7,29.8,28.1,44.6c4.7,7.1,8.7,14.6,12.7,22
		c0.7,1.6,1.4,3.1,2.2,4.7c0.6-0.4,2-1.1,2.6-1.4c3.5-2.4,7.9-3.5,11-6.3c-1.2,0.5-2.4,1-3.6,1.5c-1.4-2-2.8-4-4.1-6
		c-4.3-6.4-8.4-13-12.2-19.7c-8.2-15.8-17.6-31-26.3-46.6L349.5,1071.7z"/>
	<path class="st23" d="M1191,841.8c-2.1,1.3-4.3,2.7-6.4,4.1c-6.2,4.4-12.7,8.4-19.2,12.3c-16,8.3-31.2,18-46.9,26.7
		c1.8,3.2,3.8,6.3,5.8,9.4c0.2,0.3,0.6,0.9,0.8,1.3l0.5-0.3c15.2-9.2,29.9-19.1,44.8-28.7c5.1-3.3,10.3-6.6,15.8-9.4
		c3.4-2,7-3.7,10.7-5c0.6,1,1.2,2,1.8,3C1196.5,850.6,1193.3,846.5,1191,841.8z"/>
</g>
<g id="_x23_3a5c4eff">
	<path class="st24" d="M304.8,1155.7c-7-15-14.2-29.9-21.9-44.6c-3.4,2-6.7,3.9-10.1,5.9c6.6,14.6,14.7,28.5,21.8,42.8
		c5.3,10,10.3,20.2,15.2,30.4c3.3-1.5,6.6-3.1,9.8-4.8c-2.2-4-4.2-8.1-6.1-12.3C310.6,1167.3,307,1161.9,304.8,1155.7z"/>
	<path class="st24" d="M1232.1,914.9c-4.6,2.4-9.3,4.7-14,6.9c-5,2.8-10.1,5.5-15.4,7.8c-15.3,7.2-30.5,14.8-45.6,22.6
		c0.2,0.2,0.5,0.5,0.7,0.7c2.7,2.5,4.3,5.9,6,9.1c14.3-6.8,28-14.8,42.3-21.8c9.4-5.6,19.3-10.3,29.1-15.1c0.4-0.2,1.3-0.7,1.8-0.9
		C1235.3,921,1233.7,917.9,1232.1,914.9z"/>
</g>
<g id="_x23_84a094ff">
	<path class="st25" d="M1091.2,712.7l-0.2,0.2c-1.7,2-3.4,4-5.1,6c0.4-0.1,1.2-0.2,1.7-0.2c10.2,11.6,20.1,23.6,30.8,34.7
		c6.8,7.2,13.9,14,20.9,20.9c-0.4,0.9-0.8,1.9-1.2,2.8c2.8-2.4,4.8-5.6,6.9-8.6c-3.2-3.7-4.6-8.8-8.4-12
		c-4.3-6.8-10.1-12.5-15.2-18.7c-2.2-1.8-4.2-4-6.1-6C1107.8,724.6,1099.5,718.6,1091.2,712.7z"/>
	<path class="st25" d="M517.7,1042.1c-15.3,11.4-29.2,24.6-43.2,37.6c-5.2,4.6-9.5,10.3-15.1,14.6c2.2,1.8,4.6,3.5,7,5.2
		c3.2-2.6,6.9-4.4,10.4-6.3c0.6-0.8,1.1-1.7,1.7-2.5c4.5-2,8-5.6,11.7-8.7c12.6-10.2,23.4-22.5,32.3-36.1
		C520.8,1044.7,519.2,1043.4,517.7,1042.1z"/>
</g>
<g id="_x23_97b2a7ff">
	<path class="st26" d="M436.5,1079.4c-1.3-0.7-2.9-2.1-4.2-0.6c-9.8,7.6-19.8,15-30,22.1c-8.5,6.3-17.6,11.7-26.1,17.9
		c3.8,6.7,7.9,13.3,12.2,19.7c11.6-7,23.4-13.7,34.8-21c9.5-5.8,18.5-12.6,28.3-17.9C447.3,1092.4,441.8,1085.9,436.5,1079.4z"/>
	<path class="st26" d="M1145.1,783.1c-7.9,5.2-15.4,11.2-22.5,17.6c10.6,12.6,20.1,26.1,29.6,39.5c4.4,6,7.8,12.9,13.2,18.1
		c6.6-3.9,13-7.9,19.2-12.3c-10.1-15.6-18.9-32-29.6-47.2C1151.5,793.7,1148.2,788.5,1145.1,783.1z"/>
</g>
<g id="_x23_97b2a6ff">
	<path class="st27" d="M380.4,1146.1c-4-7.4-8-15-12.7-22c-14.9,8.7-30.4,16.3-45.8,24.2c-5.7,2.6-11,6.1-17.1,7.5
		c2.2,6.1,5.8,11.6,8.7,17.4c2.8,1.2,5.6,4.6,8.7,2.7C342,1166.6,360.6,1155.3,380.4,1146.1z"/>
	<path class="st27" d="M1192.2,854.9c-2,0.7-3.9,1.5-5.9,2.3c-5.4,2.8-10.6,6.1-15.8,9.4c6.3,12.6,13.4,24.9,19.6,37.6
		c4.4,8.3,9.1,16.6,12.5,25.4c5.3-2.4,10.4-5,15.4-7.8c1.8-2.3,3.6-4.6,4.9-7.2c-0.2-2.4-1.6-4.4-2.6-6.5
		C1211.1,890.3,1201.6,872.6,1192.2,854.9z"/>
</g>
<g id="_x23_97b4a7ff">
	<path class="st28" d="M309.9,1190.2c-4.9-10.2-9.9-20.4-15.2-30.4c-5,7.2-9.4,14.9-13.1,22.8c7.3,1.9,14.6,3.3,21.9,4.8
		c2.3,0.4,4.2,1.7,6.1,2.8L309.9,1190.2z"/>
	<path class="st28" d="M1235.1,925c-9.8,4.9-19.7,9.5-29.1,15.1c7.9,4.1,15.4,9,23.4,12.8C1231.1,943.6,1233.6,934.4,1235.1,925z"/>
</g>
<g id="_x23_819c91ff">
	<path class="st29" d="M451.5,1099.7c-9.8,5.4-18.8,12.1-28.3,17.9c-11.5,7.2-23.2,14-34.8,21c1.4,2,2.8,4,4.1,6
		c1.2-0.5,2.4-1,3.6-1.5c19.6-11.7,39-23.8,58.4-35.8C453.6,1104.7,452.6,1102.1,451.5,1099.7z"/>
	<path class="st29" d="M1152.9,780.4c-2.6,0.9-5.2,1.7-7.7,2.7c3.1,5.3,6.4,10.6,9.9,15.7c10.7,15.2,19.5,31.6,29.6,47.2
		c2.1-1.4,4.2-2.8,6.4-4.1C1178.5,821.2,1165.9,800.7,1152.9,780.4z"/>
</g>
<g id="_x23_404f4a87">
	<path class="st30" d="M385.1,1149.4c-0.6,0.4-2,1.1-2.6,1.4c-20.7,12-41.6,23.6-62.9,34.6c-3.2,1.7-6.4,3.3-9.8,4.8l-0.2,0.1
		c-3.4,1.7-6.8,3.6-10.2,5.3c12-5.1,23.3-11.7,35.1-17.3C351.5,1168.7,368.9,1159.9,385.1,1149.4z"/>
</g>
</svg>
